/* XPM */
static char *coin[] = {
/* columns rows colors chars-per-pixel */
"64 64 251 2 ",
"   c #492E2D",
".  c #4B352B",
"X  c #4C3334",
"o  c #523434",
"O  c #533B3C",
"+  c #56383A",
"@  c #542E32",
"#  c #633A39",
"$  c #2F661C",
"%  c #34651D",
"&  c #3A661C",
"*  c #366A1E",
"=  c #3A6A1E",
"-  c #386417",
";  c #2F6924",
":  c #2F6928",
">  c #346623",
",  c #3A6623",
"<  c #356A24",
"1  c #3B6C24",
"2  c #346B2A",
"3  c #3B6E2A",
"4  c #37652B",
"5  c #3C7126",
"6  c #36732B",
"7  c #3D722C",
"8  c #3D782F",
"9  c #367428",
"0  c #3A6E30",
"q  c #3D7532",
"w  c #3F7936",
"e  c #475C19",
"r  c #426D1E",
"t  c #434828",
"y  c #464E32",
"u  c #57463B",
"i  c #485A35",
"p  c #545335",
"a  c #555A3B",
"s  c #575737",
"d  c #4B5C2A",
"f  c #66483D",
"g  c #76493C",
"h  c #63543D",
"j  c #625E2F",
"k  c #426D25",
"l  c #426E2B",
"z  c #48692A",
"x  c #437226",
"c  c #497526",
"v  c #43742C",
"b  c #49752C",
"n  c #44792D",
"m  c #4C7A2D",
"M  c #4A7A26",
"N  c #517C2E",
"B  c #52732E",
"V  c #466C33",
"C  c #4A6C33",
"Z  c #4C6738",
"A  c #546C33",
"S  c #53653A",
"D  c #526C3B",
"F  c #5A6B3D",
"G  c #566B34",
"H  c #437532",
"J  c #4B7533",
"K  c #457A34",
"L  c #4C7C34",
"P  c #4B7539",
"I  c #467B3A",
"U  c #4C7D3A",
"Y  c #44753B",
"T  c #547332",
"R  c #5B7132",
"E  c #527D35",
"W  c #5C7A35",
"Q  c #53733C",
"!  c #527D3A",
"~  c #5C7B3C",
"^  c #5C753B",
"/  c #676839",
"(  c #68753B",
")  c #71793D",
"_  c #61672B",
"`  c #563C43",
"'  c #653E48",
"]  c #793F4B",
"[  c #5A4646",
"{  c #585546",
"}  c #5F4651",
"|  c #4D5140",
" . c #654A42",
".. c #684547",
"X. c #7C4B4D",
"o. c #764547",
"O. c #665745",
"+. c #735245",
"@. c #7C5B4C",
"#. c #74554A",
"$. c #7B4D50",
"%. c #795A52",
"&. c #675A51",
"*. c #596944",
"=. c #4C7E42",
"-. c #5A7743",
";. c #4E6D41",
":. c #676948",
">. c #786749",
",. c #687848",
"<. c #747A45",
"1. c #777948",
"2. c #7A6753",
"3. c #667953",
"4. c #797756",
"5. c #747C64",
"6. c #845D3E",
"7. c #834A4D",
"8. c #874947",
"9. c #87564D",
"0. c #824A53",
"q. c #884B50",
"w. c #855452",
"e. c #895757",
"r. c #945C5A",
"t. c #965D57",
"y. c #915D4F",
"u. c #91684E",
"i. c #89784B",
"p. c #87655A",
"a. c #97675A",
"s. c #88785A",
"d. c #9B7B5D",
"f. c #97775A",
"g. c #8F624D",
"h. c #A17B5E",
"j. c #8D5C63",
"k. c #8C6163",
"l. c #976967",
"z. c #8D7A62",
"x. c #9C7463",
"c. c #9B7A64",
"v. c #9B7A6C",
"b. c #99746A",
"n. c #9B7270",
"m. c #A47363",
"M. c #A37C64",
"N. c #A4756B",
"B. c #A37C69",
"V. c #AC7B6A",
"C. c #A77A71",
"Z. c #AA7669",
"A. c #4D8135",
"S. c #43833C",
"D. c #4D813B",
"F. c #468036",
"G. c #538235",
"H. c #5A8535",
"J. c #53833B",
"K. c #5A853B",
"L. c #56893F",
"P. c #5C893D",
"I. c #598835",
"U. c #4F812C",
"Y. c #608B3D",
"T. c #61853B",
"R. c #4F8240",
"E. c #548641",
"W. c #5B8542",
"Q. c #568A42",
"!. c #5C8B43",
"~. c #5C8D4A",
"^. c #578C48",
"/. c #5E914A",
"(. c #5D9146",
"). c #5D8F51",
"_. c #618D42",
"`. c #688344",
"'. c #79864A",
"]. c #639345",
"[. c #63934B",
"{. c #6A964C",
"}. c #6B9A4D",
"|. c #66984A",
" X c #729B4D",
".X c #789F4E",
"XX c #639552",
"oX c #6B9651",
"OX c #669953",
"+X c #6C9C54",
"@X c #6B9D5A",
"#X c #6C935B",
"$X c #729E54",
"%X c #729E5B",
"&X c #7D9E5A",
"*X c #718B53",
"=X c #6DA155",
"-X c #6EA259",
";X c #74A254",
":X c #7AA556",
">X c #7DAA57",
",X c #74A45C",
"<X c #7AA65C",
"1X c #75A95C",
"2X c #7BAA5D",
"3X c #74A856",
"4X c #7EB05E",
"5X c #70A14E",
"6X c #798B62",
"7X c #789A63",
"8X c #689760",
"9X c #75A962",
"0X c #7CAC62",
"qX c #79A864",
"wX c #7EB264",
"eX c #7EB26A",
"rX c #76A469",
"tX c #898756",
"yX c #94855A",
"uX c #9D845B",
"iX c #948C5B",
"pX c #9C8C5B",
"aX c #958556",
"sX c #839B5D",
"dX c #8C955B",
"fX c #97915C",
"gX c #83834A",
"hX c #A2855D",
"jX c #A58A5C",
"kX c #82AD5D",
"lX c #84A45D",
"zX c #85B05E",
"xX c #888A63",
"cX c #9E8463",
"vX c #978963",
"bX c #879B66",
"nX c #929C61",
"mX c #859974",
"MX c #A28262",
"NX c #A48A63",
"BX c #A88368",
"VX c #A78272",
"CX c #82AD63",
"ZX c #87AA69",
"AX c #94A56B",
"SX c #84B164",
"DX c #89B364",
"FX c #84B26A",
"GX c #89B46B",
"HX c #89BA6A",
"JX c #8DAD6F",
/* pixels */
"E <XP.E b FXwX].K L 4 > H : q U ,X<X! P #X2 q G.FX+XP U E N W N zX0XK.U m SXSX_.H =.4 4 q : w w OX0XL U @X> x E CX@XH K ! E K.k ",
"J +X0Xb L FXOX1 x U E.U 3 4 q 4 x 0Xl Q ).2 K.9XSX[.U , Q DX;XU.{.SX9XE m CX{.1 H U =.=.0 2 6 ; K 0Xq w /., K.GX2X{.L 1 ! CX:XB ",
"3 H 9Xv A.;Xb 1 _.GXqX3 2 4 w : ~.,Xl % 4 , !.eX].m V ~.GXCX;X;Xm ;X0X1 ! ,Xn k v 1 q 7 4 2 q : E.-XH 0 > < !.2X|.v H Q.2XSX;X:X",
"H 7 9Xx v ;Xm E CXCXOXE.=.: : : K @X! 1 > U K.0XJ.< l eXCX{.G.x m v $Xk J $XL v n b v A.D.: 2 4 U @X=.0 4 L P.>XI.< 6 wXSX XE k ",
"3 3 OX1 m [.b I.GX}.U U q I w w I XX8 Q.J m G.<XJ.3 v 9X[.J.K.K.k v +X= b [.J I.SX4Xn U.3 H K 3 H XXY w I I E 2XG.6 7 wX}.m I.I.",
"v v [.G.v A.v L.,XJ n v 0 Y w 2 q A.H wX>XH.G.+XD.1 L 1X< J.FX2Xx 1 ].U L U V E.SXSX4Xn 3 U v L H D.3 8 7 l G.[.L 1 A.,X= G.SX0X",
"2XG.G.9Xn * v J.! v v 7 & < 9 6 F.K 5 +XSXzXG.= K 3 x @X9 -X;XFX2XJ.7 n 1 4 q A.J.9XFX1X% & G.3Xb M 9 n x v k b J.5 7 @Xv $X9X0X",
"FX<Xb 0X9XL D.K v qXv 5 b n n wX,X< 7 L  XzXlXk > x K L < 3 J.$XFX2XM 1 7 q 3 H 8 n wX1Xx G.zX>Xx G.FX1Xx 3 ! SX1X7 5 l , k J.$X",
";X<Xm L 0X9XL L , ,XqXb b P.wX4XXX8 v K H..X:Xm !.FX9Xx 7 J.E J.=X9XA.8 K v < K A.7 K 1XA.4XHX;XU.4X1X4X2XJ.CXGX,X7 A.v k K.J.J.",
"x <Xm 1 ].,XL J.1 n $X2XI.,XSX].x 1 v J.H.T.:XH.CXCXoX! H U J.k 5 1XK 5 A.=Xn 7 K w A.9XA.SX3XM M =Xn m ;XN SX<XA.L.wX2Xm m L 1 ",
"k +XJ n J.,Xm SXCXx E 2XG.FX(.5 U I.L G.m N 2X!.FX].K.! U H L 1 0 @XI 1 A.HX3XM < $ q =XA.3Xb & 1 5 3 J <XE :Xv v E.wXDX.XN G.v ",
"3 ].% n _.2Xb ;XCXlXT.$Xb 1X7 n 0XCX+XL % b <XQ.;XK.E b J.! n K 4 XX2 H U 3XSX3XF.9 8 6 9 0Xx 3 v 7 > J <XP.2X5 < K n 2XDX>Xx n ",
"H H H U E.,Xx b $X<XE @Xb -XK K <X$XSX@X% > U A.J.G.G.P.;X<XH H K q V I , k CXHX9Xx 5 < F.=XH =.D.U 7 E.<XP.0Xx 7 q x M zX4Xn n ",
"H I H v 7 L L b G.$Xb {.x @X3 7 x z <X2X9 8 H U n J H.;XkX{.H Y w =.J H , k J 0X1X% 1 9 7 8 H U 7 q H I qXL qXJ.q K A.1 U.5X5 F.",
"I H U U 8 D.U 7 x [.W.[.l [.K v H.N ].3X8 6 q H 3 b I.0X].M 0 0 I H ! J Q J J ~ ,X= 1 5 7 > 3 q A.8 K J.$Xm rXU q 2 8 n E 0X8 ; ",
"W.! 7 q 7 q I H I U U U I U H ! E E H.=XK 6 K I v m x ;Xr L I 7 E.J J ! *X,.b W.0XA.A.J.E.3 > > q 6 x U ! J Z P V < K 9 L ,XL 6 ",
"ZXW.U q I w 8 K D.K H =.U U A.U U c b n U l 3 K.! n x 3Xc L G.FX9XJ.~ ZXtX<.k I.;Xx k ~ GXqXv v v 5 m E S a O.z.-.V 6 6 n U.L.0X",
"&X%XV R.w K 6 K n n H 3 H K L W.E l E G.v % I.0X<XU b 1XG.].0XCX;X:X^ AXvX1.R x k H.`.T.,XHX0Xb k ! ZXbX*.O.e.b.z.,.3 8 D.P.CXGX",
"E K.P H q K v < v L L n J.L ].<Xx n v F.3 L SX0X@XH 5 =XJ.wXSX{.N W ( iXyX1._ ) AXdXsXT E <XDX2XT sXAXtX&.%.j.n.v.z.3.J E GXCX[.",
"b J v x K A.v G.J ! P.G.E !.SX>XA.A.Q.E.L n zX+XU < K L A.wX!.k c ( j >.aXpXdXdXdXdXR z b v zXsX( iXxXvXn.n.l.0.l.vX4.D `.0X[.% ",
"L U 1 P.F.A.L 7 _.0XDX{.Y.kXSX>XG.1X9XFX[.E ;XJ.I > l L L qX, H U T / u.pXtXdXAXlXT J v K.( '.dXi.vXc.b.p.j.] ] q.w.>./ B :X< v ",
"H D.I.0X2XJ.v L CXCXDXlXH.DXkX].U.+XJ %X,Xn 3XA.q H U , m ~.> 0 J ( 2.vXiX/ JXlXl & U ( ) ) aXfXvXVXm.l.0.o.0.$.0.g @.j A {.% < ",
"J.n E ;XSX2XG.b SX{.Y..XT.zX{.M 7 G.l c <XL 9Xn H J.J k v V 3 P D / 2.vX*XT ZXz B z R gXpXaXNXBXVXC.e.q.X.$.j.l.X.@.tX:.c x n F.",
"J.v x b ;X2XL K |.G.Y.lXI.lXG.K 5 L , v ,XF.1XS.U 3 v J ! J.eXZX>.h p.s.A _.sXR ) '.tXiXhXBXh.M.C.j.q.o.# ..+. .f u xX^ B A.eX9X",
"0XD.< x _.CXJ > J.U P.<XJ SXA.H v 6 & v ,X< L < 9 9 n L E.eXoXbXz.9.f.yXA ~ dXi.i.i.NXc.f.a.m.m.r.7.o.# . p p y t Z rXv K.1XOXeX",
"eX0Xx E N ,XU > D.H ! <X!.,XD.R.K H < H 9X1 < ; 8 w 6 < v k C 1.@.l.d.aX( 1.pXaX9.u.V.c.a.+.a.t.8.8.# . . i S S D J @X$ ; F.6 -X",
"-X9Xm L U k L 3 R.> U 9XK U E.K 9 q I U ,XF.5 K ; R.S.9 < N R s g x.jXuXaXaXjXhXx.l.n.+.u o 7.t.r.+.p a z z P =.Y I 3 < 6 2 I =.",
"H ,X3 , U H U q I < U K 3 q U H A.8 w Y 8 !.FX,X8 6 S.6 N lX( >.g.s.uXjXhXhXhXV.C.n.k.'   o # 9.n.>.F Q z _.eX-XU A.K 8 6 2 q =.",
"x @Xv q H v H v K 3 7 < U > J.W.L 9 I I Q.wX1X[.w 8 2 I AXdXi.vXb.c.hXuXf.h.h.m.N.j...+ X o @ #.s.>.;.P ~.9XwX|.v b v k Y w Y U ",
"= U H 7 v 3 A.Q.n K 8 > 2 J.JXCXI.v < H FX,Xb , 1 v z A dXfXuXBXc.b.c.uXBXBXV.n.p.+.f u [ O X u %.4.*.P wX1Xn > 3 k k 1 3 6 P P ",
"L.n % K D.K J.-X< 5 7 8 E.,X$XDXFX! l G.SX_.H L k `.( tXNXjXBXM.v.p.#.@.a.a.p.e.O.s a a &.[ ` `  .z.3.^ GX].K K 7 L 5 n H 3 J.J.",
",XJ.6 n < ~.FX9Xn F.9 J.=Xb b .XCXCXW ( :Xk B W `.nXvXvXNXBXMXc.k...u o f +.&.O.a -.Z 3.5.| [ O # k.4.1.7X> 7 D.~.2XM L R.3 m 0X",
"N 0XwX5 m CXFXXXw F.9 v n m J !  XkXR ( '.e ( tXfXvXMXh.m.b.#.[ + o O | p 4.bX,.J ! V Z ;.*.| [ ' X.p.4.6X, v A.0X{.M b L U J.n ",
"m -X1X* N FX).< 7 q D.n k & v I ! sX( T.dX) tXpXi.u.h.g.y.r...[ O u } | S bXoX3 v v I Q Z i 0 { [ # %.xX6XD ! E.1X- m = K.eX0XU ",
"3 q 9X8 J <XH 8 D.n m b $ 1 Y 3 ~ sXgXpXfXpXhXMXu.u.m.y.8.o...} | y 6X*.Q 7XH l F.v K U 4 4 =.i a . { 4.i G ^ E ;X1 n !.CXCXoXqX",
"w w -X3 b $XU M P.DX;X~ G.J l V ( iXpXjXjXuXx.m.Z.V.V.m.t.o.[ { *.;.7X0 P %X! n G.5 n 8 H U Y -.*.a y t p ,.ZXB m % K.qXSX{.& v ",
"2 7 @X3 K (.b T.DXlX'.dX,.W ,.1.<.iXjXd.B.a.w.y.t.t.Z.r.X. .:.*.4 H XX5 U ).H U U G.L.K A.J.b n Q D Z i :.,.`.( ! U !.FX].& _.J.",
"8 6 @XP 7 G.J JXbX<.vXcXtX1.xXtXyXpXh.M.a.w.7.7.6.8.p.p.h s mXZXJ 6 +XK H U H U L SX2XI.A.A.I.I.-.Q Q `.JX'.,.~ `.U K.,X& G.lXCX",
"CXK.4 Y 1 - E nX:.+.%.c.MXhXd.f.c.d.h.m.w.o.e.l.@.h p 4.d 7XoXFXCX! 1 b 7 , H H L qXZXCXJ.E DXlXE ! E ( JXbX~ T qXK.E $Xk <X;XzX",
"ZX<X2 3 b B -.:. .$.X.l.BXBXd.d.d.BXa.t.j.e.o.#.O.p S A z k E 5XFX,X7 1 x H =.U U J CXqXT.CXGX:Xb v z H.lXE J G.DXkXH.m = = W  X",
"$XFX7 5 m A :.u ' ] ' l.C.B.M.c.h.V.r.7.r.k.s a F V U H C N M I.;X<Xb 1 v A.F.A.D.L L 2XK.DXlXW P.T.N T.2XM U.I.kXCX2Xc x E E K.",
"J @X1 m ^ S [ X @ @ o.k.b.v.MXV.M.Z.w.o. .:./ -.H A.H A.c Y.SX,Xx ,X7 x L.A.5 M 8 U ! <XY.lXE K.DX<XI.I.:XU.N U.I.kX>XN b !.CX2X",
"! XX2 V -.S u ' ` @ + +.a.M.VXB.c.9.+.O.:.S J H F.A.D.U.H.CXGX`.L |., J.SX4X4XI.G.x b ;XY.2Xk !.CXGX2XI.N c H.I.M Y.zXm I.CX0X+X",
"H ).q Y 3.{ [ ' @ X   +.a.B.VXs.2.O./ ,.z l n G.4X4XI.= P.FXXX, L ].3 SX4XzXzX>XU.m P.b m ;XK.J.2XGX2XU.r N zX>XN I.3Xx J.FX[.> ",
"H H =.rXmX{ [ } O   o p.l.m.c.2.O.bXD #X> % J.1X+XSX3XI.K 9X4 H l L J.<XE M lX>XU.G.CXSXE G.! J.I.2XwXE P.DXzXzX2XK.wXJ G.,X< 7 ",
"H H P #X*.{ } } O X X ..w.@.#.2.7XXX=.~.Y v 8 m M }.SX3XA.,Xl K P H 1 J.N b P.kXT.zXSX<XL I.! L b m 2XP.DXDX.XK.;X!.;XE U ;X3 K ",
"L n E d 3.{ [ ` ` + ........:.6XZ H 8 6 2 q 3 H l m $X:Xb |.% > K K A.U E L !.<XH.SX;XE H v E.v k T.<XG.SX9Xb ! K.E K.L L [.< % ",
"E.E ! l Z 3.{ } { { &.O.u { mX#Xq 1 5 v 8 7 I U W.H.r ;Xv {.L x W.U D.E.m L W.9XP.2Xn n U =.U J.K.P.<XG.<XG.U v E ! ! L 3 OXK v ",
"qX_.L ! 3 V 7XZ i ;.Z Z D Z 7XH 7 L n v L x 1 _.GX;Xl {.J E I.wX2XP.F.D.U G.!.;X_.qX! J.R.U J.! ! Q.,X_.<XE m E H J.J.L H U J.CX",
"%XoXH K.< 7 @XY 4 q H l l l XXl !.2X0XI.x 1 m CXCX].T $XJ.T.SX2X$X,XU U b E E E K.:XJ.! U E.! ! U U ! P.0XJ.m ! U J.A.U I.K.FXSX",
"! E.U x 5 1 OX3 H U ~ E J.E 3 E.@X7 =XwXK.L 0XFX].= x L J.FX2X{.G.E L D.G.P.W m N x H.J Y K E K.! v L J.,XJ.m m P.A.J.U J.FXCX{.",
"P L k L J.7 H I D.H J.SXkXP.3 v U v A.+X-X5 FX].1 J K.L m kX[.< c E J U !.SXkXE E N m K.U L K.H.m b v n E ! K Q.<XK.! L E 0X].< ",
"U U J CXkXQ.n K U L c  XDX<Xm 3 q U 7 v 1XA.,X1 ! FXCX1 L 0X& x E J.L U FXGX&XT.DXkXP.H.J P.SX<XB H.E J.J.F.D.L.FXCXK.= E <X< 7 ",
"H W.&XoXGX<Xv 5 U x B b {.DX1X& < 3 3 L ,XA.@X7 eXFX!., L ,X$ x c ! J.W.CX<XE H.lXDX:XG.L L kXDXlXE G.L U 1 J.L <XDX<X& U ,X$ x ",
"=.! , l oXFX,Xn * G.CX:Xb $X,Xn q 7 ; R.=X6 1X7 qX/.3 7 L !.n L E E P ^.9XH.W N H.CX<XK.E x I.kXkXr b P.L A.L b P.CXCXk l {.v H ",
"J.3 b ! l $X2X5 I.4XFX%XoXb 9Xx K 8 3 7 OX7 [.K OX1 K H % K FX2XP.k v ^.,Xm E b E N kXJ.L m E T.:XH.T.CXDX;XL b U K.9Xx & K eXqX",
"9XD.l qXK.A.3X5 wXwX{.! v H $X1 F.q U U XXK < K /.% I H H 9X=XSXCXJ.> ^.2XI.! U E K.9XJ.U U E K.>XK.DXDX;XP.$XI.L E 9XK v ,XoXFX",
"FX,Xv FX,Xb =Xn wX|.k H H U %Xv A.K D.q > K L 6 < K K < U n 1 +XDX;X2 ^.-XA.G.J.J.!.0XJ.D.v x G.<XP.CX<XH.N K.m A.!.9X< U J.l oX",
"1X-X1 =X9Xn ].n -X* 8 6 I K [.H R.K A.K $ 7 A.R.< U K , 1 n K.n $X,X6 K D.J.U A.U J.,XD.I H E K.,XI.kXN N G.G.P.G.J.rX< 7 J.J.b ",
"8 1X7 1 =XL !.U 1X; L 8 l v U ! V v n m n L.HX-XH U v x !.eX9XL b ,Xv A.F.v L n A., U H 4 q J.U 1 U kXN M Y.GX<Xn K 7 H J.! J.L ",
"x ,X7 v H 3 m J ~.1 H F.L U W.K.! n E 5 !.wX0X[.v v K J.0XFX+Xb x ,Xv 2 U 7 x v n < v A.I D.P.K.E L |.m Y.SX2X[.v v L K E.J.K J.",
"1 L 6 K H 3 J !.J.K 8 F.8 J.FXCXJ.k % b HX1Xv * < L.,XK FX_.< J < A.H S.H < U J.U U x L K A.SXSXH.x - N FX1Xv 1 1 J.,Xk A.I l I ",
"P.J.> H U U ~ FX:Xv K 8 F.,X$XkXkXK.k J.0X].x m J FX,X! ,Xv E Q.W.G.4 7 I U J.eX<Xv n 7 E.=X}.kXkXI.x m 0X[.H n L FX<XU v K U ^.",
"DX<X, q 4 ~.GXCX{.! 9 D.9X1 B .XSXCXE K.,X= x m SX9X+XH , 1 E 2XCXqX> 7 3 E.eXeX+XK x E.=Xn M 5XDX2XG.L.,X1 3 L 0XCXoXv 1 3 U qX"
};
