/* XPM */
static char *exit_empty[] = {
/* columns rows colors chars-per-pixel */
"64 64 241 2 ",
"   c #4D383F",
".  c #355E1E",
"X  c #2E651D",
"o  c #34651D",
"O  c #3A641D",
"+  c #356A1D",
"@  c #3A6B1D",
"#  c #376616",
"$  c #3C701E",
"%  c #3C4B2D",
"&  c #3E412E",
"*  c #3D5B2C",
"=  c #3D4D34",
"-  c #3E4732",
";  c #3F5B34",
":  c #2E6827",
">  c #346523",
",  c #3B6525",
"<  c #356A24",
"1  c #3B6C24",
"2  c #35652A",
"3  c #3C642A",
"4  c #356A2A",
"5  c #3C6D2A",
"6  c #3D7225",
"7  c #3D722B",
"8  c #3E792D",
"9  c #37722E",
"0  c #3D6C31",
"q  c #3F6333",
"w  c #3D7431",
"e  c #3E7838",
"r  c #416D1E",
"t  c #404E2E",
"y  c #435C2C",
"u  c #43532E",
"i  c #4B443B",
"p  c #474A3A",
"a  c #514A3E",
"s  c #445332",
"d  c #435B35",
"f  c #4B5B35",
"g  c #45533B",
"h  c #4B533B",
"j  c #465D3A",
"k  c #4C5B3C",
"l  c #495536",
"z  c #525A3D",
"x  c #426E25",
"c  c #43642D",
"v  c #426D2C",
"b  c #4C6728",
"n  c #536E2E",
"m  c #437325",
"M  c #43742C",
"N  c #4A752C",
"B  c #45792D",
"V  c #4C7A2D",
"C  c #4A7527",
"Z  c #517C2D",
"A  c #456334",
"S  c #4A6434",
"D  c #446C33",
"F  c #4A6D35",
"G  c #4B633C",
"H  c #4C6B3B",
"J  c #45673A",
"K  c #52643D",
"L  c #536B3C",
"P  c #566637",
"I  c #437432",
"U  c #4A7533",
"Y  c #457A33",
"T  c #4C7C34",
"R  c #4C743A",
"E  c #467C3A",
"W  c #4C7C3A",
"Q  c #447539",
"!  c #537434",
"~  c #527D34",
"^  c #53733B",
"/  c #5A733B",
"(  c #527D3B",
")  c #5B7D3B",
"_  c #5B7C35",
"`  c #627E3C",
"'  c #4D3C44",
"]  c #513C44",
"[  c #553D4A",
"{  c #59384B",
"}  c #5D3B52",
"|  c #4D4D41",
" . c #4A4542",
".. c #544D43",
"X. c #5C444C",
"o. c #584649",
"O. c #4D5343",
"+. c #4E5D42",
"@. c #555244",
"#. c #5A5546",
"$. c #545B42",
"%. c #5B5E46",
"&. c #56564B",
"*. c #5C544B",
"=. c #5B5D4B",
"-. c #565948",
";. c #5D4851",
":. c #5E5B51",
">. c #624C4D",
",. c #615B4E",
"<. c #62544D",
"1. c #634C53",
"2. c #664B54",
"3. c #695756",
"4. c #73585C",
"5. c #4D6A43",
"6. c #4E6343",
"7. c #546343",
"8. c #5A6545",
"9. c #536C43",
"0. c #5A6B44",
"q. c #5C6C4A",
"w. c #57664A",
"e. c #4D7E42",
"r. c #4E7246",
"t. c #537443",
"y. c #5A7445",
"u. c #547A43",
"i. c #5B7B43",
"p. c #5D744C",
"a. c #5C7A4B",
"s. c #577B4B",
"d. c #5D6451",
"f. c #5E7650",
"g. c #62694D",
"h. c #62744C",
"j. c #627B4D",
"k. c #647A46",
"l. c #636E53",
"z. c #696757",
"x. c #726C5D",
"c. c #677755",
"v. c #727B5E",
"b. c #747768",
"n. c #857A76",
"m. c #468134",
"M. c #4D8135",
"N. c #4D813B",
"B. c #538135",
"V. c #5A8436",
"C. c #53833B",
"Z. c #5A853C",
"A. c #558A3C",
"S. c #5B8A3C",
"D. c #588A35",
"F. c #5A913E",
"G. c #4F802F",
"H. c #618C3D",
"J. c #61833C",
"K. c #4E8340",
"L. c #558442",
"P. c #5B8343",
"I. c #558943",
"U. c #5C8B42",
"Y. c #5D824B",
"T. c #5D8A49",
"R. c #578848",
"E. c #5D9245",
"W. c #5D914B",
"Q. c #5C8C52",
"!. c #638246",
"~. c #628C44",
"^. c #63834D",
"/. c #638C4B",
"(. c #6B884F",
"). c #639345",
"_. c #64934B",
"`. c #6A964C",
"'. c #65994D",
"]. c #6B994D",
"[. c #699445",
"{. c #739C4D",
"}. c #72984D",
"|. c #648252",
" X c #658C50",
".X c #6C8B53",
"XX c #6D8659",
"oX c #738A5C",
"OX c #649552",
"+X c #6D9353",
"@X c #659A53",
"#X c #6C9C53",
"$X c #6B9E59",
"%X c #6C965B",
"&X c #729455",
"*X c #729D55",
"=X c #73935C",
"-X c #729D5B",
";X c #79995A",
":X c #6FA259",
">X c #6BA355",
",X c #73A355",
"<X c #7AA556",
"1X c #74A45B",
"2X c #7AA55C",
"3X c #75AA5C",
"4X c #7BAA5D",
"5X c #77AB56",
"6X c #7CB15D",
"7X c #788665",
"8X c #7A9463",
"9X c #7B9D64",
"0X c #799667",
"qX c #689760",
"wX c #7CA464",
"eX c #76A962",
"rX c #7CAC63",
"tX c #7CA669",
"yX c #76A764",
"uX c #7DB264",
"iX c #7EB268",
"pX c #80935C",
"aX c #82AC5E",
"sX c #85A95E",
"dX c #82B15E",
"fX c #829769",
"gX c #899A75",
"hX c #858D75",
"jX c #82A563",
"kX c #82AD64",
"lX c #83AD6A",
"zX c #87A86A",
"xX c #84B264",
"cX c #89B465",
"vX c #83B369",
"bX c #89B46B",
"nX c #87BA69",
"mX c #8BA674",
"MX c #89B573",
"NX c #91A778",
"BX c #93AD85",
/* pixels */
"~ 2XS.T V vXrX_.Y T > > w > e W ,X2X( U qX2 7 C.xX#XU W ! ~ V.V xX4XZ.T V kXxX~.I e.2 4 w : w m.@XkXE W $X> m ~ kX$XY I ~ ~ Z.v ",
"T +XrXV T xX'.1 M W R.W 0 2 w > M rXv W Q.3 L.rXxX_.W 3 ~ lX,XZ ].xXrX~ T rX`.1 I W e.e.9 < w : Y rX7 e T.1 V.cXkXOXY 5 C.kX2Xn ",
"5 I eXM M.1XC 1 ~.bXyX5 4 4 e : R.2XM o 4 5 T.rX_.U D T.cXkX<X,XT #XrXx B.1XN m M 1 w 6 : 4 w : R.-XI 0 > < ~.2X].M M I.4XxX,X<X",
"I M 1XM M ,XV ~ aXkX#XC.e.: 4 : Y $X~ 1 > ~ Z.rXC.< 7 iXkX`.B.m T C -X1 T #XT M B B M N.W 4 4 : E $Xe.9 3 Y S.rXC.< 6 iXxX{.~ x ",
"7 5 @X1 V _.N Z.cX&XT W e E e w Y OX7 I.T V ~ 2XC.1 M rX_.C.Z.C.1 M #X@ U OXU Z.xX6XB T 7 I Y 7 Y OXE e E E ~ rXM.6 9 uX].T V.C.",
"M 7 _.T M M.m I.1XT M M 0 e e 4 e N.Y iX2XZ.B.#XM.6 T 3X1 N.vX3Xm 1 ).M.U Y 7 L.uXuXuXB 7 W w Y M W 4 8 7 v B._.E 5 M.1X@ B.xXrX",
"4XB.M.4XY o M N.C.M M 7 o < 9 6 E 8 6 #XdXdXZ @ Y 1 M :X6 :X1XcXrXB.M M 1 4 w N.A.eXvXrXo o V.,XC B 6 Y x M m m Z.6 M #XM *X4XrX",
"cX2XT rX3XT C.Y M yXB 6 M B B uX1X1 7 G.{.sXaXx > M M T < 4 C.*XvX4XM 1 M I 9 I M Y eX3XM ~ dX4Xm B.iX3XM r ~ xXeX7 1 7 O x L.-X",
"<X2XV V yXrX~ Y 1 $XeXT C S.xX6X'.M I T V.{.2XV I.vXwXI 7 C.~ C.,XeXT B Y 6 < W N.w W 1XM.6XnX,XV 6X4X3X4XV.aXnX1X7 E M m V.) N.",
"m 2XV 1 _.1XT C.1 N *X2XC.,XuX).7 6 M C.~ H.<XV.xXkX].~ I W C.x M 1XI 6 M.3XB M Y I W eXB.xX,XV C >XB T ,XZ kX1XM.I.uX4XZ V T 5 ",
"x #XT M C.2XV kXjXC ~ aXC.vXE.1 T Z.T B.V Z 2XU.cX_.Z.C.T I ~ 1 7 :XE 5 Y nX5XB < > 7 :XM.1XM < 1 6 m T 2X~ 2XC M A.4XcX,XZ B.M ",
"7 _.o M U.4XC *XxXaXZ.*XV 3X6 T rXkX#XT # T 2XS.,XC.T M ) C.M E 4 OX5 7 Y 5XuX,XM.5 M 7 6 rXM 5 M 6 o M 2XS.2Xm < Y B 4XcX5XC B ",
"7 I I W I.1Xm C *X2X~ ,XM 1XY Y 2X*XkX#Xo + E C.C.~ ~ S.,X4X7 I I 0 7 E 1 6 6XnX3X6 6 1 Y :Xe N.N.M.5 L.2XI.rX7 6 8 6 V dXaXC 8 ",
"I W I 7 7 M.Y T B.-XC `.v @X5 M x C 2X4X6 9 Y W N T V.,XaX`.I Q e N.Y w < 6 T eX3Xo 6 6 7 w w E w 7 Y E 4X~ rXC.9 Y M.6 G.,X6 m.",
"R Y N.E M N.N.7 7 _.I./.5 OXY M B.~ [.3X8 9 9 I v M V.6X[.C w 4 E 8 M.M > I Y C.1X@ < 6 7 > 9 w N.6 Y C.:XN 3XN.w 4 7 B ~ uX9 < ",
"P.W w I 9 w Y I E E W W Y ( M ( ~ B.G.:X8 9 Y W M V m ,Xr ~ E 9 C.Y Y B o 9 I L.4XM.M.M.L.4 < < 7 6 8 Y Y Y 6 7 w < I 6 T :XE w ",
"sXZ.W I E e w Y W E 7 N.W E ) W T C m B N.w 6 N.( C m 4XN ~ M.vXrXZ.Z.wXC.M I i.*X$ 6 S.cXrXU M 7 6 T Y 6 7 8 6 w w 6 I 7 T C.rX",
";X-Xv L.e Q 9 Y M Y Y 4 Y T N S.G.6 M.N.5 > C.uX2XZ C 4X~ /.kXjX`.*X~ bXuXB ^ 5 x G.V m #XMXtXv x C.uX3X7 8 N.Y N.7 9 M N.E.rXcX",
"B.Z.Y w w Y M < C Y T C ~ T /.2XC M 5 u.v U kXwX#XM m ,XC.2XwX/.N ) ~ cX2XN b ) xXkX-XU U 9XmXP.F rXMX:XB 6 6 L.N.w N.7 W cXaX}.",
"T Y M 7 Y N.M C.T ~ Z.Z.~ ~.bXjX~ ) ( P.R F 2X~.T < Y E W lXi.y ! ! N 1XjXV.N fXMX-XF c F R 8X^.^ rX1X6 7 5 6 vXyXY 6 6 N.kX[.# ",
"Y N.5 I.W C.T M /.aXxX}.H.2X;X9Xa.9X+XmXXXH /.U.T > M I T 4Xy P h.P . V.<XS.fX&X;X, c H P.y.7.7.! -X, I v I Y rXnX3XG.$ V 3X@ N ",
"Y N.C.kXrX~ C T kXkXkXsX` sX;XP.y.|.L oXK S rXV 0 R e.2 Y ~.y f f / ~ Z ,Xm mX^.F D ! t.^ S k oXy.&XD I W 4 5 R 3XuX5X+ B _.O x ",
"K.Y M.-XlX2XT U cX`.J.;X` ;X&XF c y.L s .X! 4XY J r.r.J I H z f K ! U V.].R 7Xt A F c y.S K y.9X!.&X, 3 R Q D x T 6X5X6 B 7 v ^ ",
"K.7 x N <XrXT T _.V.V.}.` (.y.t.3 H s 7.jXT 3XY e.q J 9.S y.oXg.i.I v F D ^.8.l H D i.oXh.oXU -XR D D 0 2 L.W M M U.:XB T M.cXyX",
"iXN.< m S.kXU + C.E Z.*X! (.t.H U y k 7.9X< T > D q J H k v.K fXtXC.> F H G d 9.y.^.fXL 8X/ * 5 H J J 0 D W v U M.I.yX9 K.eX#XxX",
"iXyXC ~ T 1XE < N.Y ( wX!.a.9.H t.H g $.gX3 3 5 D D F A K l l oXMX1XU s.j ; t.* , y.7XK y.U F J J 9.q 3 v W N M E I $X> < E 1 :X",
"*XwXN ! W x Y 5 K.X N.tX^ t.9.G J G =...b.a.0 e 3 L F A F c u L =XrXD t.d k J I D ( g.7.v W t.j j j q D v I I Y U E 0 w w 4 V B ",
"M 1Xx 1 ~ C E M Y 2 W R J L t.d K 7.h z g p.BXtXF A S H y.=Xs 8.L jXF * j r.t.D M F 7.w.c 3 j +.9.H H t.D T.%X-XW e.E w 6 1 B E ",
"M *XM 7 I D D Y E w 5 3 t.* j.L k 7.t.L q.z XXXXJ A g g.mX8Xh O.A ;XS s w.k G G a.A K k +.d t.j.t.L H H s.%X9X XI M 9 6 Y w I W ",
"@ E Y I I 5 ( I.U I D 2 3 s.oXf l 7., R NX7Xk d G 9...#.gXq.O.O.F u.k $.k d O.c.z k l s l q.mXjX^.S y c u.|.Q 3 v v 7 1 9 6 I E ",
"A.Y > I u.I ( %X, v 3 D H 0X8X7X$.$.v ~ 2X(.K d s =.a =.8Xk *.O.a.9.O.@.7.G $.hX@.i $.z h.fX8XfXk.S S ^ =X/.R F v W 7 Y Y 6 C.I.",
"1XN.7 8 > L.jXoXH H d r.t.R L 8Xc.%.a.^ &XS G 9.8.$.a a h l =.h v.l.a -.f c.g.&.&.-.$.c.fXH K P ;XjX/ !.9Xc D t./.tXY Y N.5 T yX",
"Y rXeXB T rX0Xt.= g = +.d t.L t.7Xh h s 0X* 5.5.fXk.z ..@.g.l.p k x.%.8./ zXz...w.p.6.+.d.$.K i.&XjX_ ! &Xc S R 9X XU W W W N.Y ",
"Y :X3X+ M.vX/.q +.+.| - % d H H w.7X- s f.5.5.f.(.S ,.i ..z.gXz a -.c.y / v.a ,.w.G 6.s h O.G L / wXb v i.S D y.&XO ~ , ) iXkXT ",
"v v 3X6 m.3XM I u.5.0.k % g 6.+.w.gXO.% O.5.+.+.g.z  .:.hXd.z.x.i #.8X9.8.z ,.<.,.k j t.d s G j 6.f.S * , R ( T '.@ M ~.kXkX+XwX",
"U U 3X6 8 @Xm.7 U.bX(.y.q.= = = = q.f.k & :.l.6.g h ' b.BXq.a X.o.,.0XS -...<.<.$.z 0.S L y.7.5.r.5.5.G c P.2XC N o S.4XcX[.O N ",
"1 7 @X5 Y W.B S.xX2X^ .X* r.r.j d +.s O.p i +.+.5.6.O.d.XXf a a X.:.8XG ..{ o.#.g.h.|.9.g.9.L R a.5.F u./.zX2XN ) ~ ~.lX~.# H.G.",
"I 6 @XY 7 M.T xXkX`.v I D Y.MXtXL c.G +.d.| p = J 6.:.O.j d.n.] 2.*.7Xk  .2.a h G 0XoXL K q.i.!.W u.D ( +X&X/._ Y./ P.2X@ V.5XdX",
"tXR.5 U 7 o G.uX'.1 5 I > , +XcXlX^ , J L 8.$.% = =  . .i b.n.o.1.3.;.i ..&.z f S a.c.8./ ` bX2XC.~ ~ S.bX*XP.R jXI.! -Xx 4X,XdX",
"vXyX3 5 B 6 A.3X+ 9 < > m B.U ].jX-Xv A = q.8.$.j = &.&.' ' X.[ o.} ' >.-.8.y.i.e.u.mX;X/ k.*X{.m x r V.2X~ ~ ~ bXkXZ.V , @ B.{.",
"-XtXM v B Y A.>XX m.6 X G.6X+X/ C.%Xd p.7XhX8.q.q.G d.,.X.[ } { { ' } ;.P ^ i.( L.R ( zX` sX;X_ V.H.Z H.2XN G.V.4XxX<XC m ~ ! S.",
"M ,X5 M C.6 8 6 m.3XX F.xX4X/.k.^ -X9.c.k l t k d G j 8.,.1.{ { { } ;.&.^.M.x U v T ! jX~.<XZ D.cX2XV.V.2XB.Z G.D.dX5XZ V H.kXjX",
"T OX< x C.R 9 E iX3XG.6XnX`.M , ! !.S L H J 7.s l k K g.j.7Xi { } ;.3.f.mXuXaXD.~ C N *XS.4Xm U.aXcX4XB.V C V.D.C H.dXG.V.xXrXOX",
"W _.x T L.( 5 T.xX4XB 6XE.6 C v C _ i.9X2 J F p.g.oXK y i.NX=.o.{ 1...BXrXxXnX5XZ Z J.Z G.,XC.C.4XnX4X~ C ~ sXaXZ V.<Xm B.vX'.> ",
"D F u.rXrX( M U kXS.M.,X6 m.+ 8 xX4XT OX0 : L.yX^.=X=X_ U 9X@.  1.<.g.fXu.V 4X5XZ V.xXaXB.B.M.C.D.5XkX~ V.cXdXaXaXS.jXT M.:X4 I ",
"R W I 1XlX2XC.S.4X# V :X# 6 m.uX4XE.~ T.Q w 9 8 T ~.;X}.C.0X..;.2.3.k ^.R C D.dXD.aXnX,XT C.N.W M V 4XS.cXcX,XH.*XS.1XT M.1X5 Q ",
"E M Y 1 '.nX,XB.2XO P./.> T uX3X8 7 M D 7 7 7 B 6 N ;X2XM 0X .X.2.,.0.R ~ ~ ~.,XA.6X,XB.C I L.I v U.2XV.cX2XC ( Z.~ C.W Y _.< o ",
"A.M.N.6 6 #X5XV ~.v ( I v S.eX>X6 6 M D M 6 m.m.D.B.m 9XF XX&.;.4.z.K ) N T S.jXS.3XB M ( ) W W C.Z.2XV.2XB.~ M T C.L.W 5 @XT 6 ",
"2XT.T M.1 B yXw < E M D Y 7 yXM M V T I T 6 $ F.nX{.m &XL w. .1.4.<.7.i.~ M.D.sXH.wX~ C.L.W e.C.W R.1XU.2X~ N ~ T W C.W Y W B.xX",
"1X@XY C.< 9 $Xw 5 I Y x 5 6 @X9 I.eXrXZ.6 6 C xX4X`.n ;Xh.#.;.2.3.3.-.0.F V.Z Z Z.2XL.( W L.~ M.W M.C.I.rXC.T ~ T C.M.W C.Z.xXkX",
"W L.T M 6 1 @X5 I E ~ T B.T 5 N.$XM $XrXZ.~ wXlXT.1 F 0.3.;.[ 3.4.4.,.q.a.i.` n Z N Z.R U Y ~ C.C.M T C.2X~ M Y I.C.~ T C.cXkX`.",
"U W m V C.7 Y E W I C.xX4XS.7 w N.I N.$X,Xm bX/.5 t.c.h o.{ 2.2.4.2.4.<.g.fXsX_ V.N ! C.~ T V.Z.N M C N ~ C.T I.4XZ.C.T T rX_.< ",
"W ( ~ kX2XS.B M W T C ].cX4XB 6 9 N.D U 3XM.,Xc a.0X7X .[ ' ;.2.4.4.4.>.z.gXpX` cXsXS.C.T S.cX<XZ V.~ C.C.M.C.Z.cXkXV.r ~ 2X< 7 ",
"I Y.-X#XnX4XB 6 M.x Z C ].cX3X> : 9 5 Y 1XM.#Xv 0.h g | ' X.X.} 2.>.>.>.<.#.P ` sXdX2XB.T ~ aXkX2X~ B.T T 1 M.T eXcX2XO T 2XX 7 ",
"W W O v +XxX3X6 + B.kX<XN *X3XB 8 6 > C.@X6 9XA f.p.S G -.i ] ] >.<.<.<.x.P b n Z.kX4XZ.~ x S.sXsXx C S.T B.T V Z.rXrXx x '.M Y ",
"C.5 M ) v #X3Xm A.6XxX1X`.M 3X6 m.7 5 7 @X6  XL =XA R 9.; O.x.z.#.#.<.z.g.g./ n ~ T rXN.E V Z H.<XV.H.jXvX,XT N T Z.rXC o Y lXyX",
"rXC.v yXZ.T 5X6 uX6X].~ I M $X1 m.B T W OXY , W /.. R H f g.0XBXg.g.k c.0Xy.) ) ( Z.rXN.N.M.~ V.2XV.cXcX,XS.*XZ.~ ~ eXY M 1X$XlX",
"iX3XM kX1XT >Xm uX'.1 B I W 1XM m.Y W U 4 Y W 5 o T T 5 L f c %XgXP A Y.yX( ( ) ( T.yXN.N.6 N B.4XS.kX<XV.Z S.V M.T.yX< W C.1 #X",
":X1X1 :XrXM ).B :X< 6 7 E Y /.Y N.Y ~ R X 7 W N.< M.8 $ , W P.U &X^.I Y N.A.T ( ( ( 1XN.m.Y M.Z.,XA.aXZ Z V.~ S.W C.yX< M C.C.N ",
"B :XM < >XT T.T 3X< W 7 v M W ~ 7 I U T M I.MXyXU W 9 6 E.vX2XT v tXI W m.6 E N W 5 N.w < 6 B.T 6 ~ aXZ C H.nX2XM T 6 Y W ~ C.T ",
"M 1X6 B Y 5 N U T.1 7 N.E M.I.Z.( U W 5 F.6XuX_.I I Y M.iXuX_.m.M 1X7 < m.9 B M M < M M.W M.A.V.~ T `.C H.xX2X_.M M W I I.C.E ~ ",
"< T 7 Y Y 5 R H.B.Y B m.M C.bXkXZ.v > N nX5X6 + , R.1XY vX).+ B @ M.Y E w < N.C.T M.M T I M.xXxXB.C # T vX3XM 1 < C.2XM C.I 5 W ",
"S.C.> I W W V.zX2XM Y w E 1X}.sXkXZ.x B.6XE.m B Y vX1X~ -XI B.D.S.B.. w e.E C.vX3XC M M Z.:X,X4X4XS.m V rXW.B M T xX2XT I Y W W.",
"cX2X< w 2 R.bXkX].~ 6 N.eXx Z {.dX4XB.D.5X# m V uXwX#XN , x T 5XxX3X5 D q R.vXrX].V m S.:XM C ,XxX5XB.U.2X1 7 T rXlX].v 1 6 E yX"
};
