/* XPM */
static char *exit_full[] = {
/* columns rows colors chars-per-pixel */
"64 64 244 2 ",
"   c #3B3D37",
".  c #483C3D",
"X  c #34651C",
"o  c #346A1D",
"O  c #38691B",
"+  c #2F611C",
"@  c #2C542C",
"#  c #2E5C2C",
"$  c #2B5925",
"%  c #325C2D",
"&  c #345928",
"*  c #2C4E3D",
"=  c #2B4E34",
"-  c #324D34",
";  c #334C3B",
":  c #3C4B3D",
">  c #38453B",
",  c #2D5433",
"<  c #2D5B33",
"1  c #2E543A",
"2  c #2B563A",
"3  c #325435",
"4  c #335C33",
"5  c #33543C",
"6  c #3A533C",
"7  c #345C3B",
"8  c #3A5B3C",
"9  c #395A33",
"0  c #2E622C",
"q  c #2F6627",
"w  c #346523",
"e  c #396623",
"r  c #356A23",
"t  c #3B6C24",
"y  c #34642C",
"u  c #39642C",
"i  c #346A2C",
"p  c #3B6C2B",
"a  c #3D7225",
"s  c #3D722C",
"d  c #3B7529",
"f  c #346333",
"g  c #3A6434",
"h  c #366A33",
"j  c #3B6B34",
"k  c #35633B",
"l  c #3B643B",
"z  c #376A39",
"x  c #3C6B3B",
"c  c #3D7333",
"v  c #3D723B",
"b  c #3E7A38",
"n  c #2D6131",
"m  c #48473C",
"M  c #475838",
"N  c #55593C",
"B  c #455A2F",
"V  c #426E24",
"C  c #426D2B",
"Z  c #49672F",
"A  c #427326",
"S  c #43742C",
"D  c #49762D",
"F  c #457A2E",
"G  c #4B7A2D",
"H  c #487527",
"J  c #527B2D",
"K  c #416D34",
"L  c #42653D",
"P  c #426C3B",
"I  c #496637",
"U  c #536A39",
"Y  c #437432",
"T  c #497534",
"R  c #457A34",
"E  c #4C7C34",
"W  c #43743B",
"Q  c #4A743C",
"!  c #457B3B",
"~  c #4C7C3B",
"^  c #527D35",
"/  c #537E3B",
"(  c #5B7A3C",
")  c #547439",
"_  c #3A3F42",
"`  c #4C3D42",
"'  c #463E43",
"]  c #553B4A",
"[  c #5A3F52",
"{  c #2E4E41",
"}  c #3C4543",
"|  c #354B42",
" . c #3B4B43",
".. c #3B4548",
"X. c #364746",
"o. c #2D5341",
"O. c #2E5842",
"+. c #345343",
"@. c #3B5543",
"#. c #355B42",
"$. c #3B5C43",
"%. c #3B5B49",
"&. c #355849",
"*. c #366442",
"=. c #3B6343",
"-. c #3C6A41",
";. c #3C6549",
":. c #3F7345",
">. c #434344",
",. c #4B4543",
"<. c #424B44",
"1. c #4C4B4B",
"2. c #484A47",
"3. c #534B45",
"4. c #544349",
"5. c #5A454C",
"6. c #564948",
"7. c #425344",
"8. c #425C44",
"9. c #485A48",
"0. c #555C44",
"q. c #5B554C",
"w. c #595648",
"e. c #5C4852",
"r. c #475550",
"t. c #5D5C52",
"y. c #5A5550",
"u. c #634C4E",
"i. c #62554B",
"p. c #654956",
"a. c #635D53",
"s. c #695758",
"d. c #71535A",
"f. c #446C43",
"g. c #4B6D43",
"h. c #476647",
"j. c #5D6349",
"k. c #586B47",
"l. c #447442",
"z. c #4B7445",
"x. c #4C7C44",
"c. c #4C7D4A",
"v. c #477749",
"b. c #5B7544",
"n. c #537D45",
"m. c #5B7D4C",
"M. c #567847",
"N. c #596851",
"B. c #567A53",
"V. c #476352",
"C. c #646A48",
"Z. c #637849",
"A. c #666956",
"S. c #697758",
"D. c #745463",
"F. c #5D6A60",
"G. c #747968",
"H. c #6C6E64",
"J. c #4C8135",
"K. c #4D823B",
"L. c #478038",
"P. c #528235",
"I. c #53833B",
"U. c #5A853C",
"Y. c #558A3C",
"T. c #5A8A3D",
"R. c #578736",
"E. c #5C923F",
"W. c #4D802F",
"Q. c #608B3E",
"!. c #4D8342",
"~. c #4E8548",
"^. c #548443",
"/. c #5B8644",
"(. c #558A43",
"). c #5A8C43",
"_. c #54844B",
"`. c #59844C",
"'. c #568B4A",
"]. c #5B8C4B",
"[. c #5D9245",
"{. c #5E924C",
"}. c #589348",
"|. c #5D8B53",
" X c #588554",
".X c #5D9250",
"XX c #618D49",
"oX c #628B46",
"OX c #619346",
"+X c #62944B",
"@X c #69954D",
"#X c #65994C",
"$X c #6A9C4C",
"%X c #639945",
"&X c #749A4D",
"*X c #648B53",
"=X c #668857",
"-X c #76895D",
";X c #639453",
":X c #6B9655",
">X c #659B52",
",X c #6C9C53",
"<X c #64935A",
"1X c #6B9C5A",
"2X c #69975A",
"3X c #719E55",
"4X c #739D5C",
"5X c #72935D",
"6X c #6EA24F",
"7X c #6DA254",
"8X c #6EA25A",
"9X c #6FA85B",
"0X c #74A255",
"qX c #7AA556",
"wX c #74A45C",
"eX c #79A65C",
"rX c #75AA5D",
"tX c #7BAA5C",
"yX c #74A952",
"uX c #7AB05A",
"iX c #688261",
"pX c #768766",
"aX c #6C9863",
"sX c #7A9867",
"dX c #73A361",
"fX c #76AA62",
"gX c #7CAC63",
"hX c #7CAC69",
"jX c #79A667",
"kX c #7DB264",
"lX c #7EB36A",
"zX c #7CA973",
"xX c #81AE5F",
"cX c #81B15D",
"vX c #849770",
"bX c #82AD63",
"nX c #83AD6B",
"mX c #87AA63",
"MX c #84B264",
"NX c #89B465",
"BX c #84B26A",
"VX c #89B56B",
"CX c #87B672",
"ZX c #96A087",
/* pixels */
"^ eXoXE E BXgX+XD E r X S w Y ~ 8XgXQ T :Xe A P.NX,XT ~ ) ^ ^ J NXxX/.G ^ NXnX+XS !.i i v i d L.6XkXR ~ 2Xe A ^ MX8XR Y ^ ^ P.V ",
"E @XgXD R MX#Xt A / /.~ p w c r Y gXY ~ /.e ^ gXgX@XE e ^ BX3XJ &XxXrX/ G rX+Xe S R ~ ~ h i d X F fXd R ].t P.NXkX+XE t P.mXqXJ ",
"t Y wXD E wXH t oXVXgXC r i b q '.8Xs w p y XXnXOXE A oXBXxXqX3XG 3XgXA I.wXG a S p Y s r r d X !.8Xc p w e T.rX#XS F (.bXbXqX0X",
"R S dXA H 0XE P.gXbX:Xn.! q h q R wX!.t e / ).fXJ.o S tXMX$XJ H E R :Xe S +XT.E F S Y K.~ o r r E 8X~ c t E T.tXK.o d hXnX3X) H ",
"d t ,Xt F OXH U.VX:XE ~ c ! b b R {.d Y.F E E }.}.(.R $X[.J.Y.K.p ].(.E ).OX$X6X%X7XS x.s R ! p R .X! b W E P.tXJ.a d lX@X^ I./.",
"A d +XJ.S P.A T.wXE S D s R b i F J.F MX,Xp ].{.^.K.(.>XI.J.CX8Xr e d +X+X,XR.R.R.).;Xc i R d ! R !.s Y s a P.OXJ.t ~ wXt P.nXgX",
"gXP.J.fXR X S K./ D S p o o a a R R d >X].Y _.W ~.s s }.K.]._..X).a R }.a L.H R.[.1XW !.^.'.Y.9XF F d c d H A A I.a A ,XS 3XjXgX",
"NXqXG gXrXE I.R C fXY d H F F kXdXt Y ]. X|._.f x.K.E {.{..Xh ^.>XK.L.}.(.Y.J.E.{..Xx j .X8X{.%Xa I.BXrXA t P.kXfXa t A O t U.3X",
"0XeXG J.kXgXE E e 0XgXD S T.cXkX@XY j _.f.l z 4 W >XOXR.F I.Y W c c ! '.{.+XY.).;Xx.i ~ ^.+X>X#XG 6XrXrXrXI.gXVXrXd E S A P.P.P.",
"H eXG e [.wXG / t F 3XeX/.0XqX).d S y y 4 4 5 4 f.|.#XOX%X).K.1X(.i i W K.).K.W f g u ;X,XK.{.).T.%XF W.yXW.bXfX~ ).MXgXG G J V ",
"C ,XT H I.eXJ bXxXC ^ bX/ (.(.p p ~ x.l.l 4 3 , 7 z j p {.7X+X(.! c c K.E K.^.4 < , % ^.XXR +X].$X0X[.S %XI.,XD S ^.eXNXqXP.E A ",
"s XXX Y OXrXJ 3XmXmXU.5XC Q Q j h c.m.c.4 8 +.= 1 3 7 4 j ~ U.I.K.<X{.{.(.@XaXk 1 5 x c.].p p '.3XY.S Y.,X}.I.A w R E tXNXqXF R ",
"Y Y c ~ ^.wXS D :XnXn.sX9 % @ % k k -.B.l 5 1 { +.{ { O., 4 Q _..XaX'.].@XwX<X4 1 O.h.v.g y 4 P |.`.u !.{.(.Y I.~ F G G cXqXG F ",
"Y ~ Y c s K.T E ) :XQ <XP  X=.k < k 7 =., 5 +.5 &.&.o.&.1 < < f h i q y Y ~ e 9 , 1 2 8 # g @ 4 4 j h !.}..X].9X}.).Y.O P.0Xd ! ",
"~ R K.R Y !.~ i u L L z.3 B.h.5 7 k < *.%.$.3 $.3 7 2 ;.;.7 < f h f # q p u u `.h.= 1 =.g y 4 4 7 < f :.!..X(.K.'.[.T.J.G BXs i ",
"^.~ Y Y c c j q f l 8 3 , 5 5 ;.7 *.+.+.+.5 7 7 k 4 4 l k *.-.n l.c.v l.`.x.C P l =.;.4 z.n.j l < 5 < -.h j _.<X;XR (.#XG 8XR p ",
"gX/.~ Y x.W h h z #.#.3 5 6 5 @.7 =.8 @.;.#., x h z z c.l.v x.v h x.~..X^.+XD oX^.aXaX!./.;X<Xz.l 5 1 1 5 k x P g g j T D ^ R.gX",
"3XwXT x.W l.h f 7 2 O.+.$.$.; ; 3 $.%.+.| +.=.< k v l.~.W h ! !.y h b ^.{.oXoXOX#X].|.'.+XI.|. Xv.%.5 * 3 , % % l $ u W T T.xXcX",
"U.^ G S K Q l.4 7 #.#.%.$.5 { o.+.+.@.; ; ; #.k x v.l.B.`.^.Y.T.K.h u ~ `.^.1X$X[.F c ~.;XW g f., 3 %.7 7 @ 4 l.% % 4 P ~ eXtX$X",
"D T S C ~ c.g < 5 #.1 +.5 1 { { &.%.| * 5 5 1 2 l f.P z.|.;XOX).^.Q K h g x.,X^.^.^.i v |.|.8 @ 7 l *.7 4 x W `.x.|.h ~ 2X+XE.O ",
"~ K.t (.x.f.l 3 +.#.* { +.+.+.{ +.+.+.5 +.5 5 1 7 7 < 4 4 x W ! z.8 9 4 < l.<X;X*X=XP l _. X8 4 z.~ x.W W '.].8X+X[.+X#X@X+XT.R.",
"Y K.I.BXaX4 4 7 8 $.+.+.&.%.+.* o.*.$.$.$.#.2 $.< k l 7 @ @ q h 3 ; $.7 , 4 l g 3 - - 3 < < , g _.K.K.!.^.;X}.).Y.Y.Y.[.(.#X#X6X",
"^.D U.aX`.& @ % l 4 3 5 +.%.5 5 =.v.v.f l k < f f j P z k *.n < 8 3 7 3 7 @ , 6 > : 8.&.< 7 l 4 f s K.(.J.J.Y.Y.%X6X{.#XY.J.[.E.",
"/ S A Z aXQ & 9 =Xz.=.5 %.8.@.8 v.-.v.x f z h x ! !.l.h :. X:.k 3 $.6 , 3 8 7.7. . .%.=.l P f.x i j ).+X).K.}.[.rX[.[.>XI.R J.W.",
"jX!.w Y `.zXQ g n.M.h.5  .:  .; 8 l l.x z v c.v !.'.! x.v v.l.z k 7 3 %.M : > > +.=.% h ^.!.K.c i p R Y.{.Y.Y.7XY.J.).7X).Y #X$X",
"BXhXt ^.z.<Xx.y n.f.8 - |  .}  .@.7 k z v v ~.x.'.<X.X~ c b !.!.c.x 5 V.F.} : $.-.z ! K.7X8X'.~.!.!.>X[.J.J.{.@X{.R.K.I.S r J.[.",
"3XjXE Q z.4 k < < 2 #.V. .X._ X. .8 3 l c.W x.W _.W ! W K.].;X].<X X5 @.r.: 8.h.v.b !.$X0X0X'.! ! {.{.K.R {.^.^.{.+X).D E {.D S ",
"D eXV e P 7 =.#.2 * o.&.+.+.....| 7.$.l f.x W P 4 $ g x.K Y R Y !. X8.} >.<.h.=.:.b d Y.{.R c b ! '.{.R Y ! p p d Y J.#X,X+X{.+X",
"A 3XA S x l 5 #.O.O.O.#.#.5  .| }  .@.+.l x g.l.=., k x $ w u & @ 6 X...} <.@.6 x z ^.T E L.b K.Y.L.d J.E.7XY.K.Y ].,X#X7XE.%X$X",
"o E E y 4 8 l =.;.#.O.2 8 8 @.| } _ | ; , % % 4 , 4 x P P K P f.h.; ....>. . .@.8 g.M.T E >XK.}.lXrX6XY.Y.E.+X{.R j ^.(.[.6X%X6X",
").R # f 4 @ g l 7 *.*.k 7 7 #.+.} _ X.@.4 g W x.l x l.~ ).^.|.B.h.<.>.' >.>.>.} <.: 9 =X^..X].9X7X6X6X6X{.7X8X~ y W R K.R.6X).}.",
"dX_.j @ 3 7 l 4 k k k *.k ;.O.5  . .| %.V. X`.!.W Y ~ K.I.+XaXg.: 2.>.>.>.1.>.' > m h.B.z.K W ].}.7X8X}.;X|. Xy @ W {.K.J.[.K.K.",
"R hXzX# , 7 k k k z n *.2 *.2 2 %.6 @.; ; h.L l.~.!.c L..X,X/.g.N 3.1.m t.H.1._ m 9.7.h.6 6 g K U.).;X|.M.l 7 3 % _.{.Y.[.J.Y ~ ",
"E 1XjXf k *.-.k k v x f n 7 *.*.7 #.%.@.6 3 4 j ~.!.d ^.Y Q P B.t.. . ,.A.G.' ' 1.y.r. .m : 6 K Y ^.<X`.9 3 - =.P c.!.Y.#XK.^..X",
"u W zXy n f k k v '.~ p x v -.*.< #.7 8.8.9 4 f !.c p Y Q z.P B.<.. m q.a.y.] [ s.1.} : > > k.B.m.B 9 9 3 $.8 L l.x.K.d L.(.! ! ",
"Q W aXj f # x f h ! !.!.v v x n :.k 4 g L L l f 0 0 K Y Y P g M > . y.q.y.>.] e.5.,.1.1.<.: M h.B.B.L 9 B.N.M.8 % x.'..X}.~.i r ",
"p K 2XC u W W f # :.x.x.v h x c.v.h v ! W W W b ! c ! ~ ^ Q K g.9.m a.y.6.] ] [ e.a.G.2.} } > 8.8.6 6 6 h.N.=X3 f n v h b ~.d b ",
"Y p :XT p x.W |.f z z n x n n v h h ~.~.Y ! ! W ! R I.I.E ^ ) *X5XG.A.q.' ` [ e.6.A.H.1.>.} > 7.@.6 6 ; 8.8 f.L k @ z z :.b c R ",
"jX].p ~ S X R fXv.< < < 7 n z n 0 b x.v b '..X}.K.I.I.@XT.@XOX,XOXb.9.. ' e.1.1.N 0.0.<.: X...X.%.8 @.3 4 l 9 L aX2 7 l l.l K *X",
"BXwXe p d a [.rXi n < *.:.:.z -.h h h h h c !.'.'.R R Y.[.+XOX#X:Xb.m ` e.y.t.A.j.Z.=X8.> | X.+.$.= 5 8 8 8 P z.=X# # l 4 f P 5X",
"1XgXS C R E Y.,Xw ! n f -.l.v.x.h v ~.b c c c d }.'.J.d [.[.+X+X5Xm.m 4.w.j.Z.b.Z.b.g.h.; ; * | +.* #.8 3 L K ~ 1XdX<Xu & Z T oX",
"T 4Xp S K.A D a ~ dXw h 0 l.~.W b c L.K.~..X~.d ! L.7XY.J.F I.].Z.j.3.u.t.Z.C T Z b.b.L % , - - - #.=.=.h.g C / /.gXwX) T oXnXnX",
"~ :XO V / ~ j ~ lXgXK.^.y y j ~.b ~ Y.}.L.}.~.b c Y.L.K.J.K.>X=Xm m 4.i.pXnXgXT.( Z I `.Q P 9 P B.1XsXn.T K U./.G Q.NXP./.nXnX=X",
"~ XXA E ^.n.j  XBXrXF fXY $ h j `.!.R a F Y.(.b h }.#X#XJ.R M.k.3.5.s.q.nXkXVXeX( ( oXT ^.,X^.b.nXCXjX( D ^ NX0XH R.0XA I.BX+Xw ",
"j Y U.hXgX~ Y Q nX).P.dXy # f x  X`.K.R K.! W # f c x.^.Q I M <.. p.s.t.) G gXtXJ ( BXgXE ^./.b.U.xXxXJ R.mXVXmXxXT.cXG P.0Xr S ",
"W ! S 0XnXwXI./.gXO D 8X& h f.0 f b b c j y % 4 g g j p L k.7.,.u.p.s.i.) C T.bXQ.xXVXrXE I.) ^ H J xXU.NXNX0XQ.3XT.0XG E 7Xd F ",
"E D E e $XNXyXP.3Xe /.XXt ~ zX_.i i i w u i % $ # y Y z.I G.m 6.5.s.a.0.b.( @X3XW.cXrXL.S C / V A Q.xXJ NXqXD ^ U.^ I.^ R {.a q ",
"U.J./ a A $XyXG +XC / Y t (.jX1Xs i c j j P W P Q x.C sXU G.3.] 5.s.a.C.) ) U.tXQ.yXd F n./.^ U./ /.qXJ xXW.E H ^ ( P.E A @XR d ",
"rX).E ~ t S rXY r ~ Y Y T S dXR d E ! Y ~ S e ].BXwXV -Xk.a.. 5.u.d.w.j.b.( oX&XoXrXI.K.^.( / I.I.(.wX/.qX^ D P.T I.I.E D K.P.gX",
"wX,XT I.X d 8Xc r Y Y A p a ;Xd ).rXgX^.C V E NXnX@XU sXA.3.5.u.d.u.A.0.k.Z.( J Q.wX( ( ~ ^.~ / ~ J.I./.gXI.D ^ E I.~ E U.U.BXMX",
"~ U.E S a a >Xi Y T I.G P.J.t K.1Xc 1XgXI.E gXBXXXI I C.a.5.p.] p.d.s.w.w.C.C.J ^ V U.T T E E I.I.S E I.eXI.D D )./ P.I.I.BXnX+X",
"R ~ V J P.S Y ~ ~ T I.mXtXY.d c K.Y ^.1XwXA BX*XI k.S.3.` ] ] [ d.d.d.d.q.j.vX( ( ^ J / ~ E ^.U.D D A D E I.E /.eXI.I.D E bX+Xe ",
"~ ~ E bXtX/.F F E E H &XMXuXG a s ~ c Y rXE aXZ Z.pXA.m e.] ] p.p.D.D.d.u.i.C.Z.VXmXoXP.^ U.nXqXJ U.^ I.I.E I.I.BXbXP.V ^ wXp s ",
"K /.0X,XNXeXH d J.V J H $XcXrXX r t p E 9XK.3XZ k.m m 3.] ] ] p.] p.d.p.. i.N ( 5XNXqXU.E E gXVXeXJ P.E E p K.E eXmXxXO E qXX s ",
"K.E X S ,XBXrXa O J.MX0XG ,XrXS d d X K.>Xd dXI U U M 0.s.] 4.. ,.p.p.u.u.i.N U ) bXeXU.^ V U.xXxXV H U.E P.E G U.bXgXV t @XY R ",
"I.p T ) V ,XrXA T.kXbXwX@XF rXa W.S t C >Xs *XU -XI k.j.m N w.w.,.6.i.i.C.C.C.U ) E gXI.E G ^ T.qXU.Q.mXBX0XE D E U.gXH X R hXgX",
"fXI.p gX/.E yXa kXuX@X/ S S 1Xt L.d ^ ~ +X~ u ) *X& Q U B j.G.ZXA.0.0.S.vXS.Z.( ( U.gXI./ E ^ R.xXU.NXNX0XQ.0XI.^ P.fXE S rX2XMX",
"lXwXS lX0XE 7XA kX$Xp R R E 8XS R F E T r Y ~ C e ) Q p U B M sXvXI N =XsX) ( ( ) XXjX^.K.A A P.0XT.xXqXR.P.U.J J.).dXr K.~ t ,X",
"rX9Xt 0XfXD OXG 9Xr s d ~ R +XY I.~ / Q w s ~ n.e I.R p u ) n.T sXZ.Q Q / ^.^ ^ ^ ( dX/ R S J.T.0XU.tXJ J J ^ T./ I.fXr A I.I.D ",
"S 9Xd r 8XE /.^ rXX E s d S ~ / s K T E s ).CXfXR ~ s c XXCXwXE K jXS ~ ~ a E H ^ e / Y p A P.E V P.xXJ J Q.VXqXD R p R ~ / / ^ ",
"C wXa S E d D T ].t s J.E K.U./.^ J ) C ).kXuX{.Y Y R ~ BXhX;XJ.D wXs t L.d d S F t D ~ ~ J.Y.R.W.J #XG T.bXeXOXS S E Y ^.K.E I.",
"t E a R Y t T oX^ R R R s I.bXmX( Z X G lXuXd o r (.1XE CXXXt G X J.R ~ S r J.Y.R J.A ~ D I.kXMXR.A O G NXrXA a e U.wXA I.R C R ",
"U.I.r Y ~ ~ ( mXeXS Y b ~ qX3XxXxXQ.a R.uXE.d W.T BXeX/ 3XD J.Y.Y.J.X Y K.! L.lX9XS H C I.3X6XtXxXR.A G kX{.F S E BXeXE A R ~ '.",
"NXrXt c y ].CXmX&X^ d K.fXV J &XmXcXW.R.yXo a G gXgX3XH t t E uXMXwXt C u '.lXkX$XE d ).3XD F 7XMXeXP.T.wXt a J.gXMX,XH e p K.fX"
};
