/* XPM */
static char *grass_2[] = {
/* columns rows colors chars-per-pixel */
"64 64 121 2 ",
"   c #2E641D",
".  c #34651D",
"X  c #39661C",
"o  c #36691E",
"O  c #3B6A1E",
"+  c #2E6625",
"@  c #2F6A25",
"#  c #2F6B2C",
"$  c #336622",
"%  c #356A23",
"&  c #3B6C24",
"*  c #34662A",
"=  c #3B6728",
"-  c #356B2A",
";  c #3B6E2A",
":  c #347026",
">  c #3D7126",
",  c #36722B",
"<  c #3D722C",
"1  c #3F792F",
"2  c #3D6F30",
"3  c #377232",
"4  c #3D7432",
"5  c #3E7832",
"6  c #3D773C",
"7  c #3F7A3A",
"8  c #416E1B",
"9  c #416E25",
"0  c #416F2A",
"q  c #437226",
"w  c #4A7526",
"e  c #43742C",
"r  c #49762C",
"t  c #46792D",
"y  c #4C7A2D",
"u  c #517C2E",
"i  c #437532",
"p  c #497633",
"a  c #457A34",
"s  c #4B7C33",
"d  c #407638",
"f  c #467C39",
"g  c #4C7D3A",
"h  c #527E34",
"j  c #517E3A",
"k  c #4C7F42",
"l  c #468036",
"z  c #4D8136",
"x  c #45813B",
"c  c #4D813B",
"v  c #538235",
"b  c #5A8536",
"n  c #53833B",
"m  c #5A853B",
"M  c #56893E",
"N  c #5C893C",
"B  c #618837",
"V  c #618C3E",
"C  c #4E8240",
"Z  c #548541",
"A  c #5A8642",
"S  c #568A42",
"D  c #5C8B42",
"F  c #578C48",
"G  c #5C8D48",
"H  c #5E9146",
"J  c #5E914A",
"K  c #5C8C52",
"L  c #618C44",
"P  c #618E49",
"I  c #639346",
"U  c #6A9744",
"Y  c #63934B",
"T  c #6A964D",
"R  c #66994E",
"E  c #6C9A4D",
"W  c #729D4D",
"Q  c #789F4E",
"!  c #649652",
"~  c #6A9751",
"^  c #659953",
"/  c #6C9C53",
"(  c #659C58",
")  c #6B9D5A",
"_  c #729E53",
"`  c #729F5A",
"'  c #75A04E",
"]  c #6EA155",
"[  c #6EA159",
"{  c #73A255",
"}  c #7AA556",
"|  c #74A957",
" . c #7CAA57",
".. c #74A45B",
"X. c #7AA65C",
"o. c #76A95D",
"O. c #7CAA5D",
"+. c #7EB15F",
"@. c #689760",
"#. c #74A661",
"$. c #76A961",
"%. c #7CAC62",
"&. c #76AA68",
"*. c #7DAD68",
"=. c #7EB164",
"-. c #7EB169",
";. c #82AC5D",
":. c #88AF5E",
">. c #83B05F",
",. c #81A663",
"<. c #82AE63",
"1. c #89AF64",
"2. c #80AF69",
"3. c #84B264",
"4. c #89B365",
"5. c #88B864",
"6. c #83B36A",
"7. c #89B56A",
"8. c #86B86B",
"9. c #89BA6B",
"0. c #85B971",
/* pixels */
"h X.L s s 6.%.Y t g * $ i * 4 g { X.j p @.* i v 6./ p g h h h w 4.<.m s s 4.3.I i k * * i + 3 x ^ *.s g ) $ 9 h <.) a a h h m 9 ",
"s ~ %.r y 6.R & q g A g ; * 3 * e %.0 j K * n ,.3.Y g = h 7.Q h E 3.X.h y ,.Y & i g k k ; % 5 + s O.4 4 G = b 4.<.~ a ; j ,.` u ",
"& i ..r s | w & L 7.&.0 - * 6 * S ..e . = = A 2.Y p 0 P 6.,.} { s ) %.9 h ..q e 9 & i > # # 4 # Z #.4 - $ & L X.T e 1 S ,.<.Q ;.",
"d i ..0 e { y h ;.<.~ k k + # # f ) j & $ j A $.n % 0 *.<.E h q r e ` 9 s ` s q t 1 t z g - * * g ) k 2 - s m %.n % & -.3.W h 9 ",
"< ; / & t Y r m 7.~ s f 4 f 6 4 f ! < A s u j X.n ; t $.Y n m n & e / O p ~ p M 3.+.t l ; d d > p ! d d f g h %.z < < =.E s v M ",
"e e Y z e v e M ` s r e ; f 5 , 4 c a =.X.b v E c & s $.& c 3.X.w & I s p a ; Z =.=.+.t ; g t a t g ; 4 ; e h Y g & z ..O v <.%.",
"X.v z $.t . < n n p t ; . % > > l 5 > E :.:.h O s & < / > [ ..8.%.v e t & * i g M o.6.O.. . v | w t > 1 q r q q m > 1 ^ 0 _ O.%.",
"4.X.y %.$.s n a e #.t > e t t -.#.% < s W :.X.9 $ e y s % - n _ 6.O.e & e i ; d 4 a %.$.q v >.+.q v -.o.q & h 3.o.< ; 0 X 9 A ` ",
"} X.y y *.$.g a = ` #.s r N 3.O.R 1 e s b W  .y D 6.#.r 2 n h j ] %.g t a 1 % g g ; g ..v +.9.' y +.O.$.O.v :.5...< s t 9 v n n ",
"9 X.y & I ..y j & t _ X.v } =.I e & e j v B } b <.<.~ j i g n 9 q ..1 > z | e 1 a i g $.v 3.{ t w ] t y { u <...g S =.O.u y s 0 ",
"9 / s t n X.y 4.;.w h ;.v 6.H > g m s h u h X.D 6.Y m j s p s 9 < ) f ; y 9.| t % $ t ) z ] e % : q < s X.v X.r 1 M O.6.{ u h t ",
"; Y . q G O.r _ 1.X.m _ s o.> a %.<./ s . r X.N } v s r n j r a - ! ; < l | +.| z & e < < %.e < e > . r X.b O.& o t t O.:.} r t ",
"e i i g M ..q w W X.h ` e ..i s X._ 4./ o o g n n h v N ..X.e d i 2 2 f & > %.8.o.> 1 % a / i c c g ; n X.m *.e > 1 q t >.+.q t ",
"i g i 4 < g r s v _ r T e ^ ; < 9 r X.O., < 1 g r p b { ;.Y i i d g t 1 % & z $.| . > > 1 4 4 f 1 < a g $.h %.n , a z & v ' > l ",
"g i g f 1 c g < e Y A G ; ! p r j u U | 1 , > d ; r v >.U w 2 - f t g 1 . 4 f c ..O & > < + < 5 x 1 a c / y ..f 5 - t t h *.< @ ",
"A j ; i < 4 f i f f k g p g e j h h v ] 1 , d f r s q { 8 h f 4 M a t t $ < r n %.z z z n - + % 1 > > l s t < 1 5 + 4 > s | x , ",
",.A j 0 f d 1 t g f i g g f n g g q r t g > & M j p q | w y v 6.;.v m O.n t > n { q q v 9...t e > > w l > < t < 4 4 3 5 t z m O.",
",.` p k 6 d > s e r d ; i a s m z < g j e . v >.#.g r O.h Y <.O.' { v 6.=.t a > q y t y | 9.| t > v +.| : 1 x t g 4 3 3 z N O.4.",
"h k h 0 5 a 4 % e s s r j h I X.q r e s & s 3.+.) p & ..m *.4.T h v v 6.| t & v *.3.{ w s X.9.X.t %.5.| 1 , 1 n z t g < g 7.<.~ ",
"r p r 0 a z e z s j m j v L <.X.n j m M y y >.E s % s s g =.G O r s y O.O.n z 6.8.] < & t r O.| y =.] > 1 % > 8.#.y > > v <.Y $ ",
"s g & m g z z q L ,.4.U V :.4.;.n X.X.6.T h X.v f $ 0 a a o.& > n p . N X.m *.6.] o t a z n h } s $.o 1 < 1 s ..9.} y > y ..& r ",
"i z m *.O.z e s 2.<.4.;.b :.;.L s ` r ` ` r  .g 0 d g % g G $ < t n v y | 9 3...1 o a f g r h { m ..e 1 x : < a  .9.{ . y I . ; ",
"n t h { 4.O.g y 6.U B } B ;.U t q j 0 r ..s O.t i Z f > 1 < < g j s y z E y O.< < 1 4 a g y g ..M ..& : l 5 5 & y <.$.e t > e a ",
"n e q w _ O.s a ~ j B X.B  .v s & g $ i | g | g g ; 4 a s z -.$.n q ; t > S ..t e 4 c -.6.^ w ` t z < , + C g t r D | y a z -.O.",
"&.c O w V ,.s = z g m X.s <.n 4 t ; + t ..: a o < < 5 f S o.^ 6.%.v . i e a | g g S *.6.$.v . & a 4 < : t g e i g Z &.> c $.] =.",
"-.%.e s h ` g $ Z i j X.G [ g c a 5 - < $.% : . < 5 4 & t q t E 7.| a g < a g   . n 6...n e e d i 5 , @ 1 a 0 t d i ( + @ x & ] ",
"..#.w g g 9 a - C $ g $.p g k f < 4 f C ..l > 5 % x c % & q r y / #.q n x 4 < 4 e s X.q & g j g f - - 5 > q t s i f < , 4 - g t ",
"t ..& & h p g i f % g a & p g p c 5 i d t F -.o.1 < c 1 n | w s r *.; $ f d f i i q O.h & r g i C d 5 a q D 3...j c f 5 , - i g ",
"e ) t 0 i e t < f ; < - x % k L a 1 a s A -.$.R < 4 - g %.O.q p = ..; & g ; d i g q / & s = n m a i f i G %.%.R 1 e 1 > a 5 4 g ",
"% s d < i - g S t a < o & n 1.;.v > % i 8.o.e % > i % i =.H y g 0 g i s < ; g c < n e % & n 6.%.m 9 % s =.o.e % ; < ; % , < f p ",
"M t   i c a n [ o > < 1 S .._ 1.4.h 0 g 4.D r s & c ; Z o.> g M Z g $ i j s M ..% i i ; A ..E 4.;.b > l *.Y p f ; j q t i 4 j A ",
"..n < t % G 8.o.t g : c [ r r _ 4.%.j m { & q g J #.g a s q y O...Z 0 e = D 6.#.d g ; S ] r y W :.;.z M | $ i g G X.y y c & i %.",
"s *.%.t t =.-.J i f % t t y p n _ $.s g R o 1 g 2.P p h y z v > t 8...a s 3.%.Y i f ; 4 i f d n E O.z a ) . e g =.Y t y s z v t ",
"t ] o.o z 3.J & < t g s & $ < i p O.& a F a x Z ..9 r & m 6.O.a t [ | & p 6.~ & < t g g 0 * ; f s ..& e G t g A | o y O v =.%.g ",
"& 1 $.< l ..r q g w g <   < f ; M ..i + @ 5 a c ) = t L %.O.../ < ; *.e r ..e 0 g e a g $ $ C & n $.t . o t j s ) & q D <.<.E O.",
"1 t [ ; y ) s w N 5.{ S z i - 4 s ~ z > - C f 4 0 . v *.6.T X t i i ) ; a ) s t z q t e i n d g g J s e % D X.t y . m <.6.Y . w ",
"& < ^ ; a J t M 5.| z { ; g Z ; t T t g f i 4 < i i 1 *.I . M n = 0 ^ ; a Y t s h m M t j n s p n i z n D =.<.h j h P 7.P X V h ",
"1 & ^ f 4 z a 3.=.I > t ; n 0...y h 0 < a > f - i 4 f o.& n <.*.f 2 ) a i g e s s 2.%.n h h m v h g r m %.9._ v j p L ` & b O.:.",
"%.A = a <   l =.J > % ; . & / 4.*.h & & e t M f d 4 4 ) & O.E :.%.j ; i < $ e i s &.6.O.v h :.;.h n s m 6.| v y ,.m h _ 9 } { <.",
"6.#.& & 1 1 S o.@ < & % e h w T %.X.q q r <.[ t % + d f & O u W 6.X.& q ; s g g j a 2.O.m :.:.;.w 0 9 n  .v u u 1.<.j u = 8 h W ",
") *.0 < t a S ] % a < o z 8.X.u h X.y N 3.O.e t a , g 4 e s y b _ | e > q z z g n s s O.j 1.;.h b N u N X.r h b 1.<.;.w 8 v u N ",
"p ` 0 e z e 1 , x [ o M =.3._ ~ v ..y 4.4.G t s 1 z t g q L 4.} w ] > q M s q t q s v X.V ;.u h 4.} b b X.b u h b :.} u w V <.%.",
"k ! = e z s < a 3.o.z +.3.I t & s { y %.L e t a z n v v m <.6.L s E o v 3.+.+.b v w w _ L X.9 L +.5.;.v u w b b y V >.u m 2.%.~ ",
"f K ; p n h & D 8. .w +.I 1 4 - t v v { $ ; t n =.| b O N 6.Y = z J > =.+. .9. .v y B y h X.j n  .5.;.u 9 h 1.X.w b  .q b 6.Y $ ",
"; e c *.%.h r r :.V v ' & z ; d 3. .a ! - $ Z ..' 5. .b s ..- 2 < d n ..h t  .;.w b <.<.h n j Z m  .4.u b 5.7.1.;.b ;.p j ..$ e ",
"a f t ` 6.#.j D X.X s / o & a -.O.H l J i 4 4 s t E >.{ h ..= f d a & M s w N ,.b >.6.} s Z j s q y  .N 4.<._ b { A ..j g ..; i ",
"s q g & ) 6...h ... A G % z 8.o.1 t < 4 4 , 1 t 9 w _ X.r ^ + $ g f g g h s L } b 4.{ h r r n i q N X.v 1. .w h v j m g i ~ - . ",
"m j h & e / ..s G 0 g i e Z %.R > & < < 4 > a s N v 9 { q ^ g 1 S g z n r h V X.V X.w r j g g z n m X.b  .v u r j j k g 2 ^ a < ",
"#.D s g & 1 #.4 % g i 0 i e [ a q l y t a q & V 5.} 9 T y h h *.O.m g c h h L Q L ,.j n k k j j j A ..D X.h w v r n n g t g v 3.",
"..) t n % < [ 4 * i t ; < ; ^ < G ..%.m q & y <.,.Y h / n L 4.O._ ..f g t h h h m X.v j j A j j g g n A %.n p h g n g g n m 6.<.",
"j Z g q > > ^ - d f j y v s ; c [ < ] O.m s %.2.P % 0 h v 7.<.I v h g n j m h u u w v p i g h m v e s n ..n t t A h j j n 6.<.T ",
"p g 9 y v e d g g p n 4.O.N < 4 a a z / ] q 3.Y 9 h v y y O.Y & r h p g D 4.,.h h u u n j p v b r r e r h j s A O.M n y h %.I % ",
"k j h ,.;.A t i j s w E 6. .a < 4 g e t | g ..% j 2.*.& u O.X q h h h p 2.7.Q B 4.;.B j s m 4.X.u b h n n g n m 8.,.b 9 h ..& < ",
"0 A ` _ 7.X.> 1 g 9 y w U 5.o.. % , ; a ..z / e 2.2.L $ g ..  q w j j G ,.;.h V ;.1.;.h y g ;.4.} h h p s & g s X.4.X.X s X.. ; ",
"k g X 0 ~ 2.X.q o v 1.} r _ | t i < + c ) 1 o.1 *.G ; e s G r s h h f A %.h h u b 1.} m j 9 b ;.;.8 r m s v s s m <.;.9 & T e i ",
"n 0 0 j 0 _ | q N +.<.` T t o.< a 4 ; < ! < J a ~ & a i . a =.O.m 9 p G X.r h r h u ,.h s y h B } m V 1.8._ s w g m $.r . a *.*.",
"$.n 0 #.M z { > +.+.R j 0 r ) & g t g f ! a % a H   i i i [ ] 4.,.n   S %.v v g h M X.j j g j m  .b 1.4.{ N _ m s h #.g e ..) <.",
"-...r 6.` s ] q =.J & i p g ` e f a f i % a f > $ s g $ g t & / 4.| & G ..g v n h G %.n g i q v X.N <. .b u N y z D #.% g n 9 ^ ",
"| [ & ] O.t Y t | o 1 > g p Y i Z f x t   t a c % g a & ; t v s _ ..; a z n g z g n ..c f i g m ..M O.v u v h N h n &.& e n n r ",
"a ..e & ` a D s ..@ z 1 ; e g j 0 < y s q S 8.o.i z < e G 3.#.s r | 4 x g e g t g & g e - i h h & h >.u w B 7.X.t a ; i g j j h ",
"< ..> r i 0 p p P & 1 l g g m m j p h & D %.%.J e < a n <.<.~ i q | 4 , g < < e t % e z g c m m h y E t V <.X.I 0 t g p Z g s n ",
"O g > a p = p L j i t l 1 n 6.,.v 0 X y 9.o.t o & Z [ s 6.P & s % g i f t $ g n s g < s d z =.5.v w X y 8...r & & n ..0 n f ; a ",
"m m $ 4 g g j <.X.0 a 5 g ..W 1.;.v 9 n %.I q y s 6.#.j ` r h A V j - ; f g n -.X.r e < M ] W O.O.N q y *.Y t t s <.X.h q f g G ",
"6...- 4 * P 7.<.W h > c $.9 w Q <.1.h m ..O q y 3.$.~ p % & h X.2.X.% 4 ; Z 6.%.^ s q M [ t w W 5. .v N ..& ; a %.6.~ 0 & ; g &."
};
