/* XPM */
static char *hunter[] = {
/* columns rows colors chars-per-pixel */
"64 64 253 2 ",
"   c #181D0C",
".  c #310D02",
"X  c #1B2715",
"o  c #1C3415",
"O  c #172C0D",
"+  c #2C3F07",
"@  c #393B0A",
"#  c #242C1A",
"$  c #283618",
"%  c #383A14",
"&  c #3E2201",
"*  c #272B27",
"=  c #2A3726",
"-  c #383B38",
";  c #333628",
":  c #1E2820",
">  c #5B1B00",
",  c #4E1A00",
"<  c #641D01",
"1  c #6A1A00",
"2  c #771B00",
"3  c #482701",
"4  c #582501",
"5  c #553A07",
"6  c #4B3A10",
"7  c #6B2302",
"8  c #652802",
"9  c #732502",
"0  c #7A2502",
"q  c #772A05",
"w  c #6B3609",
"e  c #783205",
"r  c #7A3911",
"t  c #473E31",
"y  c #3A450A",
"u  c #384715",
"i  c #3A5A19",
"p  c #2F5215",
"a  c #2E641D",
"s  c #34651D",
"d  c #39651D",
"f  c #356A1D",
"g  c #38681B",
"h  c #3E721F",
"j  c #2A4322",
"k  c #324729",
"l  c #385926",
"z  c #394236",
"x  c #3C5636",
"c  c #2E6828",
"v  c #346523",
"b  c #3B6423",
"n  c #356A23",
"m  c #3B6C24",
"M  c #3D632A",
"N  c #356A2A",
"B  c #3C6E2A",
"V  c #33662A",
"C  c #3D7126",
"Z  c #3D722B",
"A  c #38732B",
"S  c #3D7432",
"D  c #3D7735",
"F  c #3F6D32",
"G  c #47450B",
"H  c #57450B",
"J  c #434413",
"K  c #4B4A14",
"L  c #464A18",
"P  c #544917",
"I  c #485719",
"U  c #5B5A1B",
"Y  c #57581A",
"T  c #4B540E",
"R  c #6F550D",
"E  c #486419",
"W  c #55611C",
"Q  c #7A6619",
"!  c #6E6210",
"~  c #465A27",
"^  c #595A25",
"/  c #435638",
"(  c #434C30",
")  c #426D25",
"_  c #426D2B",
"`  c #486827",
"'  c #576729",
"]  c #437225",
"[  c #43742C",
"{  c #4A752C",
"}  c #45792D",
"|  c #4C7B2D",
" . c #4A7426",
".. c #517C2D",
"X. c #55752D",
"o. c #446E32",
"O. c #466835",
"+. c #586937",
"@. c #437532",
"#. c #4B7533",
"$. c #457A33",
"%. c #4C7C34",
"&. c #4B743A",
"*. c #4C7D3A",
"=. c #46793A",
"-. c #527E35",
";. c #547539",
":. c #537D3B",
">. c #5B7B3A",
",. c #587733",
"<. c #68732A",
"1. c #787934",
"2. c #6C6D2D",
"3. c #3A3E41",
"4. c #3B4241",
"5. c #424443",
"6. c #475844",
"7. c #4E5253",
"8. c #4D7C42",
"9. c #567746",
"0. c #546D4F",
"q. c #667958",
"w. c #862B04",
"e. c #952D04",
"r. c #863505",
"t. c #8E350B",
"y. c #A53700",
"u. c #864804",
"i. c #8C5617",
"p. c #A7520D",
"a. c #8B640C",
"s. c #B26D18",
"d. c #937330",
"f. c #B97334",
"g. c #AB6F2D",
"h. c #975C29",
"j. c #D0780F",
"k. c #D47A28",
"l. c #D37B39",
"z. c #4D8135",
"x. c #4E813B",
"c. c #468137",
"v. c #538235",
"b. c #53823B",
"n. c #59853B",
"m. c #5C893C",
"M. c #588739",
"N. c #628C3E",
"B. c #67863B",
"V. c #76843A",
"C. c #4E8243",
"Z. c #548441",
"A. c #5B8542",
"S. c #5C8B43",
"D. c #5E8B4A",
"F. c #578944",
"G. c #5E9249",
"H. c #578254",
"J. c #638B44",
"K. c #628E4A",
"L. c #688944",
"P. c #639345",
"I. c #63934B",
"U. c #6A964C",
"Y. c #6C9B4C",
"T. c #65994A",
"R. c #749B4C",
"E. c #688655",
"W. c #6C9652",
"Q. c #6B9C53",
"!. c #679A56",
"~. c #739D53",
"^. c #739E5A",
"/. c #799957",
"(. c #7A8548",
"). c #6EA25A",
"_. c #6CA152",
"`. c #74A355",
"'. c #7AA555",
"]. c #73A45B",
"[. c #7AA55C",
"{. c #75A95C",
"}. c #7CAA5C",
"|. c #79A857",
" X c #79AA57",
".X c #779169",
"XX c #7BA563",
"oX c #76A962",
"OX c #7CAC63",
"+X c #7DAC68",
"@X c #75A664",
"#X c #7DB263",
"$X c #7FB269",
"%X c #BA871A",
"&X c #898329",
"*X c #918438",
"=X c #A7882B",
"-X c #A88636",
";X c #BB8D31",
":X c #98821C",
">X c #D7851A",
",X c #DC961A",
"<X c #D38210",
"1X c #FD9B1C",
"2X c #FC9618",
"3X c #E68E12",
"4X c #FCB60D",
"5X c #FCA819",
"6X c #FFB314",
"7X c #FFB31C",
"8X c #FBAA0E",
"9X c #D78727",
"0X c #D39130",
"qX c #FC9A26",
"wX c #EC9031",
"eX c #FBA726",
"rX c #FBA739",
"tX c #FBB131",
"yX c #8E9950",
"uX c #AC8D48",
"iX c #82AC5D",
"pX c #85A25B",
"aX c #84B15E",
"sX c #92A757",
"dX c #A7A857",
"fX c #859E67",
"gX c #849E71",
"hX c #82AD63",
"jX c #84AB68",
"kX c #84B264",
"lX c #89B365",
"zX c #84B36A",
"xX c #89B36B",
"cX c #88B968",
"vX c #89AA77",
"bX c #8CB873",
"nX c #93AD62",
"mX c #B1B063",
"MX c #D0944A",
"NX c #EB984B",
"BX c #D1A954",
"VX c #F7B559",
"CX c #F2AD54",
"ZX c #D3B565",
"AX c #F5B863",
"SX c #EBB86E",
"DX c #D29C60",
"FX c #FFC45C",
"GX c #FACA69",
"HX c #FFC972",
"JX c #FED47B",
"KX c #EDC56F",
"LX c #FFC88E",
/* pixels */
"-.[.S.-.%.zXOXI.[ z.v v S v S 8.).oX%.[ !.M o.b.kXQ.#.;.:.p i u l p p ` :.$XjXG.@.C.V V D c S c.W.kX=.%.Q.f _ :.jX^.$.} %...M.` ",
"#.W.hX} %.kXT.m [ *.F.*.F V S V S +XZ %.K.M Z.oX$XI.:.i ` 8.;.;.:.F.L.hXI.`.U.m S 8.8.8.D c A v $.oXS @.S.m b.xXjXW.=.C z.#X[.-.",
"B @.].[ -.].] ) J.xXOXZ N N D c F.oX] s m m S.zXG.%.&.o.&.D.D.T.Y.`.}.{.:.A.;.o.Z B @.B c c S f Z.).@.N f n S.OXW.[ [ m.}.aX~.'.",
"@.[ ].[ [ `.| v.}.jXW.C.8.c V c $.Q.:.m d %.M.oXM._ l >.D.F.).{.`.}.`.}.].:.` #.%.} [ z.8.c n n =.^.*.S N #.A.OXb.v Z #X#XY.v.` ",
"Z B !.m } P.[ M.zXR.%.*.D =.D D $.T.Z n.%.| z.oX*._ i >.U.K.).{.{.}.{.{.[.` ` J.zXOX] %.Z $.=.S =.!.$.@.$.*.z.OX:.Z A #XT.z.M.M.",
"[ Z I.z.[ b.Z m.].#.@.[ B =.D A [ z.$.zX}.M.b.W.:.@.d ,.J.A.Q._.Y.R.`.T.R.{ i B.zX$X#X| m *.o.#.@.c.C S Z Z v.P.%.C z.`.f v.kX}.",
"}.v.v.{.} f [ b.b.{ [ Z s n A C $.$.Z Q.kXaX..d @.@.p | G.N.P.N.N.P.M.A.J.d l n.b.OXzX{.s g v.'.} } C } C [ ] ] Z.Z Z Q.[ Q.}.+X",
"zX[.} hXoX#.b.$.[ @X} C [ } } #X].n Z %.Y.aXiX) b  .i i E N.N.L.B.E I T I I ~ M @.%.+X}.] z.aX X] v.#X{.[ m z.aXoXZ C ] f m M.^.",
"'.|.| %.OXoX%.%.m ^.XX%.[ m.aX#XT.A $.*.M.~.'.X.S.nX*X*X*X' ' ' ! d.-Xd.*XU y j M ) -.].z.+XcX`.z.#X}.}.OXM.}.cX@X[ z.] ] M.b.:.",
"] [.| m P.].%.b.m [ ~.[.M.`.#XP.Z m Z b.v.J.[.>.lXmXZXKXmXG K R ! ZXDXDXZXd.G u l [ %.].Z.zX].}  ._.} #._.| kX X%.F.#X}.%.} %._ ",
") W.%.[ b.[.| hXhX .-.iXv.zXG.C %.Z.%.z.} -.[.L.jXyXSXAX-X. uXBXMXAXh.3 ZXZXdX,.m n } Y.z.].[ g f C _ #.XXv.]. .[ b.OXkX`.z.v.] ",
"Z I.s [ S.}.{ `.jX}.n.~.} {.C $.+XzXQ.%.s | [.J.~.yXBXSXuX. BXGXFXVXw . KXKXZXiXv.A ] C Z #X[ m } Z v #.XXA.}.C f %.} }.kX X .} ",
"[ @.@.*.Z.].]  .~.[.-.`.[ ].@.%.XX_.kX_.s v %.>.9.V.BXJXBX& SXLXGXVXh.7 HXKXmXmXpXB n A c.).{ :.z.*.o.Z.XXA.OX[ Z [ [ } aX}.} ] ",
"@.=.@.Z Z z.$.%.v.^.{ U.[ !.B [ ) ] {.{.[ [ @.*.{ V.ZXJXLXJXJXJXJXVXSXLXJXGXZXsXpXm C n A D @.*.Z @.&.&.hX:.oXb.C } z.C v._.C c.",
"*.@.C.=.[ x.c.Z Z I.A.D.B I.@.[ n...P.}.[ A A @.o.2.a.AXHXHXHXCXs.i.h.f.AXGXmX>./.d m Z S c S F C.F F &.!.#.oX$.A n @.$.z.#XA n ",
"A.*.Z @.Z S =.@.*.=.*.*.=.*.{ b.-.v.v._.S C $.*.o.' 4 f.NXMXNXh.< > 1 w.0XMXdX1.iXv.v.b.8.N c c F M l M o.@.Z [ S n D Z $.].z.A ",
"jXn.*.@.=.D S $.b.$.@.8.=.*.z.*.*.#.[ } z.C A b.9.+.3 4 < < 7 < 7 9 e w.8 4 w 1./.E ) v.bX@XD O.0.4.4.O.o n =.B [ S A D Z z.M.iX",
"/./.o.x.D $.Z $.[ [ $.B $.$.%.A.:.B %.%.C f v.nXyX^ , < < < < 7 7 q w.w.9 > w *X<.X...X.^.bX+XO.0.q.= j x O.*.[ z.A A A x.G.iXkX",
":.m.%.S A $.} n [ %.#.{ z.%.P.{.Z =. .{ }  .nXdXuXd.t.0 1 9 9 7 r r.e.e.t.2 w.l.yXyX/.[ #.+XvX.X6.k j O.&.S [ M.b.[ c.A z.zXjXY.",
"#.#.{ Z $.z.[ z.%.v.M.v.:.J.kX|.b.-.n.J.{ v.dX;X0X9Xk.e.1 1 q 7 e w.e.t.t.2 e.l.a.<.X._ @.8.q.6.k o 0.F Z C Z cX@X$.C C b.jXI.s ",
"%.*.m M.z.z.%.Z J.OXlXU.N.iXlXiXv.[.hXvXW.2.Q 0X,XeXrXe.1 7 7 7 r.r.t.t.q 2 e.l.*X<.` =.8.0.5.X o q.O._ Z Z c.`.bX{.} C %.].m [ ",
"@.z.M.OXOXb.[ %.OXjXlXiXM.aXaXN...^.{ ^.W.' ! -X0XtXeXj.r.1 < 8 8 7 q q 2 1 w.l.-X2.&.9.0.z o k x +X_ =.x.f C z.{.cX{.f $.I.s m ",
"b.%.-.`.jX}.v.} kXU.M.'.B.iXY.} C v.Z 8._ X.(.&X%X,XeXtXk.0 4 3 3 3 > 4 1 2 y.k.-X1.E.0.k * X 9.9.].M C c.c.C C %.+XoXS } Z ] | ",
"x.[ ] { `.}.%.%.T.v.B.'.B.iXv.} h c.Z M K.[.].B.! a.,XeXqXj.g.Q 2.2.d.h.l.wXwXk.uX2.O = X # +..X=.*.[ A a c.z.Z [ D.).*.#.z.kX}.",
"OXx.g [ N.jX%.n b.%.A.[.%.kXx.Z Z n B i Y. X'.L.U a.<X5XqXj.=X&X*XV.*Xd.9XqXqX9Xh.( * : k / l ` } Z A n S *.[ #.*.F.oXA F.{.Y.zX",
"$XoX] -.#.].%.n C.@.b.[.S.).x.C.c.$.&.v R.`.R.L.W Q >X1X2X3X%Xd.&X&X:X=X>X2XqXwXR . *   k +.o.@.} D C c @.*.B @.@.@.!.n c z.m _.",
"`.oX{ %.%.) $.B x.v *.oX%.*.C.*.A @.8.l `.R.N.V.U ! >X2X2Xj.<Xj.>X9X>X>Xj.2XeXCXi.&   = O.:.8.%.c.A n S Z [ #.=.@.=.C C S m #.#.",
"@.@Xm m :.@.*.@.=.n %.=.m S *.@.z.[ 9.l R.Y.T.L.T ! >XqX5X2X2X2XqX2X1X2X5XeXtXFXMXd.L l M _ :.%.x.D $.$.B K.zX@X*.b.$.Z C N #.:.",
"[ Q.[ Z @.[ $.Z $.Z A N z.n Z.A.%.] &.V `.Q.m.L.W ! >X5X5X6X7X7X7X7X5X1X2XNXrXGXCXZX(.M o.s n.n.=.@.$.Z S.+XOXI.[ [ Z C D D S *.",
"m %.$.Z @.B z.Z.} $.A f B b.xXpXM.[ B i _.T.m.J.W ! <X2X6X4X4X6X6X7XeX3X1 j.VXFXVXBX<.B i F.zXoXA.) f c.$XoX[ m Z m ] C C C =.*.",
"m.$.a $.x.$.b.).n C A S Z.`.~.lXhX:.9.9.)._._.J.W R >X2X8X4X4X6X6XeXs.R 1 f.VXCXBXyXB.v @.oXY.lX Xm.C z.#XI.$.#.C %.Z [ S Z b.F.",
").b.Z S n F.cXoX[ z.A b.).{ { ~.lXXXU.&.!.{.).G.W Q >X2X8X8X4X6X5X<Xu., 8 g.BXBXyXV.K.M 8.{ | R.lX Xz.M.].n [ z.S.oX| %.b.N $.{.",
"#.+X#X] } #X#XI.@.c.N } [ } { b.Y.OX&.M Q.].].J.i ! 9XqX5X5X6X2X0Xe 8 8 4 5 R V.L.L.L.v F 8.} x.Y.}.z.$.W.n Z z.#XT.} | %.%.b.} ",
"} ).].f z.zXG.m [ [ z.%.m v Z $.%.oXo.i D.@X^.~.N.<.a.,XeX5XeXj.r.0 < e f.a.T B.L.J.W.i V c Z $.$.{.m } I.@.%.F.{.s | g M.#XOX%.",
"C Z oXZ %.{.] [ %.} %.Z f Z =.B A.^.O._ &.E.].`.N.B.R :X0XwX9Xp.2 2 r.p.tX%XQ <.X.>.*.[ V V Z.v x.oX} s f [ b.#.Q.m { S.kX+XQ.[.",
"} } @XB @.Q.-.} N.zX].b.x.@.N S #.W.*.B i @.I.].Y.B.V.T s.VXe.w.w.2 s.eXtX,X=XW i s s C @.8.@.*.z.I.%.Z h S.{.[ { s M.+XzXU.g ] ",
"n Z !.Z =.G.[ M.kX`.v._.B c.Z.Z } T.@.*.#.Z Z J.P.<.R =XCXVXNXp.1 9XqX7X7X,X=X<.X.b.z.$.*.A.#. .b.@.b.b.J.#X+X-.:.#.K.xXJ.d N.v.",
"} Z !.=.@.c.%.#X#XT.C } B b.zXoX} x._ { [ m _ #.X.1.d.BXVXHXCXk.p.wXwX1X5X,X=X1.,.kX#Xm.*.:.J.M.:.*.[ b.kXcX`.v.n.%.A.].m v.iXaX",
"+XM.n @.A f c.#XG.C n Z n m Y.zX#Xb.v ) ] { L.i i d.CXVXAXVXCXNX9Xk.9Xk.j.9X*X' X.iXxXoX-.:.aXiX-.b.#.M.kX`.M.| OXn.-.~.) [.`.hX",
"zX@Xm m } A F.{.n A m n C v. .Y.#X].) [ | hXE.@ J H e MXCXCXs.u.u.u.r.u.R R U 1.,.#.jX[.J.hXaX'.[ ] ] M.`.v.....lXjXM.%.E d -.R.",
"^.+X[ Z } $.m._.n c.A f v.zX[.| z. X .m.aXhX` % ; 4 < h.g.h.R 8 5 H H 5 H G T >.M.{ -.jXM.kX|.v.M.m...N.}.{ ..M.}.lXiX .E v...M.",
"&.^.m [ z.[ S A c.).f F.#XkX~.W.z.`...lXzXJ.` 6 3 > 9 q 1 1 5 6 K K T L W y i  . ...-.|.N.}.-.M.lX'.v.M.[.v.....M.iX'...z.M.kX}.",
"8.!.N Z z.%.Z $.zX`.z.#XkXT.[ m | `...hXU.+.' 3 w t.q q 1 , 5 G G T W Y Y y ^ L... . .R.m.OX] J.aXlX}.v... .M.B. .N.aXv.M.kX}.W.",
"=.D.B $.M.v.m F.lX X| }.P.Z S B | v.v.^.~ I H w 9 t.0 q < 4 @ G G T W Y W G +.fX,...m.} ..`.b.v. XlXiX-.] -.lX'...M.'.] b.zXI.v ",
"Z Z Z.+X+X%.{ #.iXN.v.`.m z.N =.xX+X&.W.^ 5 4 e w.q 9 8 3 3 J u y y T U ^ J ~ fX..v.#X}.z.M.-.>.M. XkXv.n.lXlXhXiXM.iX#.-.].n [ ",
"=.#.S `.$XXXb.M.[.g | _.s m =.$X+XD.=.D.+ 5 r 0 9 1 8 4 3 6 ^ ;.,.L G G Y K + L n.aXzX).z.b.:.-. .| iXM.lXlX~.m.`.J.].*.*.].B =.",
"%.[ %.m !.zX{.%.].s A.K.n z.cXoX[ [ Z B ~ 6 w q q r 4 5 6 L ~ M 9.p J K Y Y P y X.hX`.%.[ [ Z.{ ) N.'.v.lX X .-.n.-.Z.*.=.I.n s ",
"n.v.%._ [ Q.{.%.G._ *.@.[ Z.OXT.C m Z Z &.^ 5 4 8 4 4 5 ^ @ &.O.q.u @ G U U ^ + X.iX{ { x.x.*.8.b.m.'.v.'.v...[ %.:.*.*.Z !.#.Z ",
"{.S.#.z.m S {.S n =.[ @.@.[ ).$.Z %.} [ -.` ^ 3 & 3 5 Y P @ >.jXfXu G G Y ' L y ,.jXb.x.C.*.b.:.:.Z.`.S.[.-. .v.#.z.Z.*.@.*.b.jX",
"].!.$.b.n Z ).D M @.$.m B Z !.B G.@XOXb.] ` ' @ % 6 6 ^ P @ yX/.+.L K K Y W T y ,./.n.*.*.Z.:.-.*.b.b.F.OXb.| -.*.b.z.%.M.M.lXkX",
"*.A.z.[ C C !.B $.=.b.%.b.z.N b.^._ Q.OXM.-./.u @ K G Y Y u pX>.+ J K G U P I I '  .A.#.=.=.-.n.v.[ %.b.{.:.{ [ F.:.b.%.b.zXOXI.",
"#.*.) | b.Z @.c.*.@.v.kX}.M.Z Z *.[ b._.).Z fXu @ J 6 ^ L J >.i + u K P ^ J ' >.>.X.#.Z.x.#.v.M.| { [ { v.b.%.S.}.M.v.%.#.OXI.m ",
"*.*.-.hX[.M.} $.*.%.] U.zX X| C Z x.Z } @X&.W.+ y ^ J ^ L u d E + y J J L @ E L.lXiXm.v.v.M.kXiX| n.-.b.b.%.b.b.zXOXM.E v.].m Z ",
"o.A.].~.xX}.] Z %.] .. .Y.lX{.s n A m $.oX:.W.~ ~ @ % L ~ ;.i _ I L J % % ^ ' n.iXaX|.v.#...iXaX'.X.b.-.%.C *.%.}.zX}.d %.[.s Z ",
"*.*.d ` W.lX{.C h z.hX'.{ ~.{.} A A a *.).@.XXo.+.@ % $ x K.{ #.>.u % % % +.>.-.M.aX Xb.v.) n.iXiXE } M.%.z.%.%.n.jXiX) ] U.[ =.",
"F.B o.:._ Q.{.C m.{.lX].U.[ {.Z *.Z A Z !.@.K.;.( % ; # j { jXjXq.% $ ; O ( 9.{ ..} }.M.%.{ -.N.[.M.N.hXzX`.| { %.M.OX[ s } +XoX",
"oXb._ oXM.z.`.C #X#XU.b.[ { Q.m :.Z *.=.G.c.f *.l O - X k XX!.vXfX$ * ; X / 9.:.-.v.OXb.z.%.b.n.}.n.lXlX'.m.~.M.%.b.oX%.[ ).^.+X",
"#X{.[ zX^.z._.] #XT.C [ #.=.^.{ %.=.x.@.m } $.o.= * 5.: l O._ /.vX= ; z X / 9.:.-.P.oXb.b.@.) -.[.m.iX'.v.v.n.%.v.F.@XN z.b.) !.",
"].].m ).oX} I.} ).n [ Z *.#.G.@.Z.=.c.$.a ) :.9.= * 3.: j &.Z.;..X; * - X / 9.9.:.:.^.Z.[ [ b.A.`.M.}.v...v.-.m.%.b.oXn [ b.b.{ ",
"} ).[ n ^.%.S.%.oXf c.Z Z @.*.:.[ Z $.#.[ J.vX9.z - 4.: x vXXX&./ 6.( 5.= z x ( / l 8.@.B C -.-.m v.aX.. .B.cX[.[ %.Z @.x.-.b.%.",
"[ ].C [ $.Z [ #.J.m S $.$.z.A.A.%.%.%.h D.vXq.o z 7.4.* / .X^.M O 7.7.7.4.= : X O $ F 8.x.z.A.n.-.-.Y.} N.hX[.P.[ [ *.@.Z.x.*.b.",
"m %.Z $.} M %.J.v.$.} c.Z b.lXjXn.) a %.bX9.o z z 4.5.z z $ M x X 3.5.3.3.4.- - - z o 8.@.z.jXxXb.] g | zX{.[ m b b.{._ x.#.B %.",
"m.b.v @.*.:.n.jX[.[ $.D %.{.Y.hXhXn.] v.jXx X * * * * * X o 9.O.X * * * * * * * * X o l Z.).R.iXhXM.] | #XG.[ [ %.zX{.-.[ $.*.F.",
"lX].N S V F.xXjXU.-.Z c.oX] X.R.lX}.v.M.[.k = ; 3.5.- ; * $ 0.E.( - * * * - 5.3.- = j F.).Z  .`.kX|.v.M.].m Z %.+XkXU.[ m Z =.+X"
};
