/* XPM */
static char *hunter[] = {
/* columns rows colors chars-per-pixel */
"64 64 250 2 ",
"   c #361600",
".  c #2C3924",
"X  c #333E2A",
"o  c #383E37",
"O  c #5C3C0A",
"+  c #533105",
"@  c #6C3200",
"#  c #683A07",
"$  c #733502",
"%  c #733B04",
"&  c #7B3B05",
"*  c #793A06",
"=  c #6C3107",
"-  c #493B28",
";  c #37561D",
":  c #2F651D",
">  c #34651C",
",  c #366A1D",
"<  c #39671B",
"1  c #36462C",
"2  c #3C433B",
"3  c #394534",
"4  c #3D5633",
"5  c #355326",
"6  c #2E6928",
"7  c #346523",
"8  c #356A23",
"9  c #3B6C24",
"0  c #3C6D2A",
"q  c #386729",
"w  c #3C7225",
"e  c #3D722B",
"r  c #387529",
"t  c #3D7432",
"y  c #3C7637",
"u  c #3D6334",
"i  c #584C18",
"p  c #49561C",
"a  c #58571D",
"s  c #4E4510",
"d  c #784209",
"f  c #6B4B18",
"g  c #784715",
"h  c #66551E",
"j  c #6A480F",
"k  c #4F611E",
"l  c #464C2B",
"z  c #4B5A26",
"x  c #5B5923",
"c  c #5C5C2A",
"v  c #545827",
"b  c #44493B",
"n  c #465A3A",
"m  c #595937",
"M  c #655A26",
"N  c #765627",
"B  c #416E25",
"V  c #426D2B",
"C  c #4A6D2A",
"Z  c #466527",
"A  c #5B632B",
"S  c #57672A",
"D  c #447225",
"F  c #43742C",
"G  c #49752C",
"H  c #45792D",
"J  c #4C7B2D",
"K  c #497626",
"L  c #517C2E",
"P  c #55752B",
"I  c #456C34",
"U  c #4C6C3B",
"Y  c #496736",
"T  c #5C6B33",
"R  c #576937",
"E  c #437532",
"W  c #4A7433",
"Q  c #467A34",
"!  c #4C7C34",
"~  c #4C733B",
"^  c #4C7D3A",
"/  c #467C3A",
"(  c #527D35",
")  c #54723C",
"_  c #537D3A",
"`  c #597737",
"'  c #67662C",
"]  c #786929",
"[  c #676934",
"{  c #657939",
"}  c #707033",
"|  c #6E641F",
" . c #3D4343",
".. c #474B45",
"X. c #4A5745",
"o. c #53574B",
"O. c #4E5654",
"+. c #545956",
"@. c #534F4E",
"#. c #53684A",
"$. c #4E7942",
"%. c #547442",
"&. c #547A42",
"*. c #5B7849",
"=. c #566B51",
"-. c #766D46",
";. c #657948",
":. c #787943",
">. c #677A56",
",. c #797D52",
"<. c #606F4E",
"1. c #5A6261",
"2. c #646B68",
"3. c #873E01",
"4. c #83450C",
"5. c #894808",
"6. c #874813",
"7. c #8C5412",
"8. c #AF6D19",
"9. c #955A22",
"0. c #866725",
"q. c #957E3D",
"w. c #8E6E36",
"e. c #AB7233",
"r. c #A55E18",
"t. c #D37C1E",
"y. c #CC7D2D",
"u. c #867943",
"i. c #977847",
"p. c #957450",
"a. c #AA7749",
"s. c #D07A41",
"d. c #4D8135",
"f. c #4E813B",
"g. c #468236",
"h. c #538235",
"j. c #53823B",
"k. c #59853C",
"l. c #5C893C",
"z. c #598739",
"x. c #4C802E",
"c. c #618C3E",
"v. c #64853C",
"b. c #548541",
"n. c #5A8442",
"m. c #568A42",
"M. c #5C8B43",
"N. c #5B884A",
"B. c #5E924A",
"V. c #57854C",
"C. c #638D4B",
"Z. c #658648",
"A. c #77854B",
"S. c #63934B",
"D. c #6B964C",
"F. c #6C9A4C",
"G. c #649648",
"H. c #739D4C",
"J. c #6C8656",
"K. c #6C8A5A",
"L. c #6B8656",
"P. c #738C5B",
"I. c #768856",
"U. c #6C9C54",
"Y. c #689855",
"T. c #729E53",
"R. c #74935C",
"E. c #739B5A",
"W. c #7A9A5A",
"Q. c #6EA156",
"!. c #73A255",
"~. c #7AA556",
"^. c #74A45B",
"/. c #7AA55C",
"(. c #75A95E",
"). c #7CAA5C",
"_. c #79A956",
"`. c #79A956",
"'. c #6C8960",
"]. c #758964",
"[. c #7A9565",
"{. c #7B9767",
"}. c #679860",
"|. c #75A461",
" X c #7CA563",
".X c #76A962",
"XX c #7CAC63",
"oX c #7AAA69",
"OX c #7DB264",
"+X c #7FB269",
"@X c #93823C",
"#X c #AD8636",
"$X c #F38F1D",
"%X c #FCA31E",
"&X c #CC862B",
"*X c #D4832A",
"=X c #C88538",
"-X c #D58934",
";X c #D69333",
":X c #F68E28",
">X c #E9962C",
",X c #F79728",
"<X c #EB9736",
"1X c #F49737",
"2X c #EA8C30",
"3X c #FBA325",
"4X c #F0A139",
"5X c #878347",
"6X c #9C8446",
"7X c #859A59",
"8X c #978F56",
"9X c #B78342",
"0X c #B08D53",
"qX c #83AC5D",
"wX c #83A55C",
"eX c #84B15F",
"rX c #9CA35A",
"tX c #839B66",
"yX c #839E72",
"uX c #B5996A",
"iX c #82AD64",
"pX c #83AD6A",
"aX c #88AA66",
"sX c #95AB63",
"dX c #84B264",
"fX c #89B365",
"gX c #84B26A",
"hX c #89B36C",
"jX c #88B969",
"kX c #86B772",
"lX c #8CAC74",
"zX c #B4AD69",
"xX c #C58648",
"cX c #CB8E58",
"vX c #D49B58",
"bX c #D29452",
"nX c #E5984B",
"mX c #F2A24B",
"MX c #C8946D",
"NX c #EE9D64",
"BX c #CDA266",
"VX c #D7A76A",
"CX c #D5B077",
"ZX c #E7A667",
"AX c #F7B779",
"SX c #EBAF71",
"DX c #FFC17B",
"FX c #8FA880",
"GX c #F2B886",
"HX c #FFC184",
/* pixels */
"( /.M.( J gXXXS.Q ! q 7 t 7 y ^ !.(.( W }.q E _ OXF.Q ` ;.Y Y n #.Y z ) n.+XpXC.I b.7 6 y 6 y / U.XXQ ^ U., V _ pXE.Q Q d.x.k.C ",
"! D.XXG Q dXF.9 F ^ m.^ 0 q t 6 e XXF ! N.q j.XXOXB.( Y %.*.>.>.>.>.P.tXZ.^.Y.V I ^ ^ b.y 6 y 8 Q XXE E M.9 k.hXpXS.Q 0 d.)./.P ",
"9 E |.F d.^.K B C.hXXX0 6 u y 6 m.^.F ; 0 q M.gXS.Q ~ U *.L.K.K.R.{.{.{.Z.Z._ V F V E 0 6 6 y 6 b.|.t 0 7 8 M. XY.G F l.).dX^./.",
"E E ^.F F !.G ( ).iXY.j.$.6 6 6 / Q._ 0 7 _ m..Xd.V U L.'.J.[.[.[.{.{.{.{.;.W W G F Q ^ y 8 8 , / Q.$.0 8 ! n.XXj.7 0 OXOXH.L B ",
"e 0 U.9 H G.F k.hXD.^ ^ y / y y Q Y.t m.J J d./.k.C R >.K.J.tXtXtX{.[.[.{.*.~ n.hXaXQ ^ w r H e y Y.Q E Q / h.XXh.0 r OXG.x.z.z.",
"F e S.d.F h.F l.^.! G F e / t r E f./ +X_.z.h.U.k.R R >.K.J.P.R.R.E.R.R.].<.U N.pXpXXXQ w x.F H F f.r t e F d.S./ 9 d.(., h.dX).",
"XXh.h..XQ > F f._ G F e > , r w / y w F.eXeXL , F V R <.>.P.Z.J.L.D.Z.L.>.*.U *.b..XkX.X: , h.^.H H w H w D D K m.0 F F.e E.XXXX",
"fX/.G XX(.Q j.Q e |.F F F H H OX|.8 e ! H.eXqXB 9 W R A ;.J.J.J.A.T R A [ R R U E / OX.XF d.iX).w d.OX_.F 9 x.dX|.F w w , 9 k.E.",
"~./.J J XXXX( Q 9 ^./.Q G l.OXOXG.r H ! z.H.~.L m.aX5XA.,.;.;.} } p.p.a.5X' v Z U Y _ (.d.XXjX^.x.OX(.).XXz.).jX|.F ! K w z.j._ ",
"D /.J 9 B./.W h.9 W T./.j.~.eXG.D w H f.h.z.~.z.pXhXCXGXuXv [ ' 0.MXMXMXVX@Xp z U ~ _ (.d.gX^.J H F.G ( !.x.eX(.! m.OX).! G ! e ",
"B U.Q G j.^.J iXqXK ( iXh.dXB., x.j.Q ! J x.wXv.lX7XVXVXp.  a.BXcXVXp.O VXBXrXP q q E U.! ~.K < , D V W |.( ~.K F k.).jX!.J ( K ",
"e B.> D B.).J T.iX/.l.T.Q (.e J ).dXU.^ < K wXv.{.5XBXSX0X  cXAXSXVX9.  ZXZXzXwX` 0 E e w OXK 9 F e 7 W XXn.(.w 8 Q H ).jX_.K H ",
"F E t ^ l.^.F G T.).( E.F ^.E Q _.T.gXT.< , Q k._ 5XBXAXuX# VXHXDXZXw.= GXVXzXsX/.e r 8 H U.E f.f.^ 0 *. Xk..XF w e F H ).).H H ",
"E ^ E E e ! H Q ( T.F D.F U.0 F B C /.XXw e F ^ ) { VXHXGXSXGXGXAXSXGXGXGXCXzXsXW.< r r D F y $.t E W ~  X_ .Xj.w H f.w h.Q.r x.",
"^ W ^ / t f.f.0 F S.n.B.V S.Q G h.( D.(.r e e F V [ w.BXGXAXAXvXe.9.e.a.SXSXuXZ.wX< 9 w w 6 t u ^ t E &.E.Q .XQ e r E E d.OXe 8 ",
"n.^ e E e t Q Q / / ^ ^ / ^ F ^ _ ( ( ~.r r Q Q W T s e.cXcXcXe.@ @ @ * xXMX8X:.qXh.d.h.b.r 6 6 y u Y $.~ W e E r 8 y e Q ^.Q r ",
" Xn.^ e g.y e Q f.Q E ^ / ^ h.^ Q G G F d.w , l.( A O = = = @ # % % 4.4.@ @ h q.7XK D h.+XoX~ I #.#.#.#.5 7 I V E e r y t d.z.).",
"/.E.I b.y / e ! F F W e E Q Q l.h.e ! ! F > v.qXwX} O = = $ = % % & 4.4.* # f i.| P K L |.kXoX$.>.2.2 4 u ~ ~ Q ^ e r r f.M.XXdX",
"` k.W t r Q e 8 F ! ! G f.G G./.r g.e ^ D h.sXrX6Xe.6.3.$ % * * 6.6.5.6.6.* 5.a.7XsX~.B / .XFX].=. .X.$.E I E j.f.F g.r ! gXiXU.",
"G ! F F Q f.H d.! h.k.h._ C.dX_.d.d.m.n.C h.rX6XxX=X=X5.$ $ * d 4.6.6.4.6.& 3.0X] v.C V Q $.>.=.X.3 *.u / , w gX.XQ w w h.pXD.> ",
"^ ! 9 k.d.^ ! w G.).fXD.v.qXeX).h./.iXhXP.[ u.9XnX<XnX5.= % * * 4.6.5.4.3.3.3.s.q.{ ~ &.&.*.=.1 5 }.u I e r H (.kX(.J w ^ /.7 G ",
"F f.z.XXXXh.F ! iXqXaXqXv.fXqXG.! E.C tXR.-.} 6X=X4X4X8.7.* # * g d d % * = 3.a.@X:.*.V.=.n b b 4 oXE E x.r w ! (.gX/.> J S.> B ",
"j.H h.!.aX).h.Q dXD.z.~.z.qXF.K w j.W ) ) ;.I.@X#X;X<XmXy.& # O O O j # 3.3.r.=X6XI.].2.o.b X <.V.^.8 w g.g.r w ! iX XF Q B V J ",
"j.F D F ~.).! Q D.h.c.wXz.wXh.Q 9 ! I ) K.E.^.A.| r.*X2X2Xy.w.u.-.-.w.w.e.y.2XxXp.-.3 2 3 1 #.].~ f.e r : g.g.D F N.|.Q Q ( dX).",
"XXf., G v.XXQ 7 j.! n./.( iX^ e H w I U P.W.[.A.' 0.&X,X1X&Xi.5XI.I.5X@X&X1X1X-Xp.@.o o X.n q q Q e r w y ^ 0 Q h.V.oXr m.(.F.dX",
"+X.XF ( ( ^._ 8 b.E f./.M.^.f.f./ t %.%.[.R.R.J.{ ] &X,X:Xt.e.@X5X@X6Xe.y.:X1X-X0.- - . n ~ E / F E r : E ^ V E Q E Y.: 6 d.9 Q.",
"Q.|.G ! ! V Q 0 f.7 ^ .XQ / b./ 0 / %.Y W.[.J.P.P ] &X$X:X$Xt.*X=X&X*X*Xt.:X1XnXp.- . n I ^ j.W ^ 0 8 y V F W ^ E Q r r r r Q Q ",
"Q /.9 9 ^ F f.E / 8 ^ Q 0 t ^ E $.0 %.%.R.].].J.' ] &X,X,X:X:X:X$X2X:X:X1X1XmXSXa.p.m n Z G ^ Q f.y E ! F N.gX|.f.f.Q e r 6 W _ ",
"F U.F e Q F e E Q w e 8 ^ 8 k.n./ W $.#.R.R.L.J.` 0.-X,X,X%X,X3X3X3X3X,X2XnXNXAXGXuXp.U ` 7 m.j.W Q Q F M.XXXXS.F F e r E r E $.",
"8 ! E e E 0 f.j.F / e 6 0 j.hXqX( I ~ U K.Y.J.P.[ ] y.:X,X%X%X%X3X3X>X;X3.e.NXNXSXuX,.#.V n.pXXXM.0 8 H +XXXG q V w 9 9 r 0 / ^ ",
"l.Q : / f.Q j.^.8 r e e m.^.T.aXfX&.%.V.E.W.[.>.{ ] y.:X%X%X%X%X3X4X#Xd $ a.NXSXuX8XZ.~ _ |.T.aX).l.w d.OXS.G Q 0 ( V G E r ^ n.",
"^.f.e F 8 m.kX(.H d.r h.Q.F G W.fX XL.V.R.{.[.P.[ ] xX:X:X%X%X3X>X#X7.O = e.vXuX8X:.I.W M.F ^ T.fX_.d.j.(.8 e ! M.XX( Q f.9 Q XX",
"! XX.XH Q OX+XB.F / 8 H F H F _ U.XX&.U {.{.{.K.) ] =X2X,X3X,X>X&X5.d j + g ] A.A.P.J.I W ^ E b.S.).d.Q Y.8 e ! XXG.H J ! d.f.G ",
"Q Q.(., d.dXB.9 F Q f.Q 9 8 e Q H .X~ U '.{.{.].J.:.0.&X<X,X1Xy.5.d # j e.0.' A.J.J.P.U C 7 e / ! .X9 F S.F ! M.(., J < h.dXXX! ",
"r w .Xe ! !.F K ! G ! e 7 e / 0 k.^.W I *.J.{.{.tX,.' @X=XnXs.r.$ $ 5.r.nX#X] { >.>.Z.&.I 7 j.8 f..XH > 7 H h.! U.9 K M.iXiXU.(.",
"H F |.w E E.! H l.jXQ.l.f.E 0 E G T.^ 0 Y %.'.{.].,.v.| #XvX3.3.3.$ 8.4X4X;X6X[ Y Y I I W ( W ! ! S.! e , M.XXF Q < n.XXgXS.< K ",
"8 e Y.e / B.F l.dX_.x.!.0 / b.e ~ C.W ^ ~ ^ %.K.,.,.' 6XvXAXnXr.$ y.<X4X3X;X#X{ ` n.n./ ! j.! F j.W j.j.M.dXiX( ( ! Z.hXS.< v.h.",
"H e Y./ H f.G OXOXG.F e e j.gX|.( ` F E Q 9 ^ *.>.-.q.MXZXAXNXy.r.-X<X>X>X;X@X} ` iXXXm.d.h.M.k.h./ F k.OXjX!.h.k.^ m.^.< k.).dX",
"XXm.8 W e : g.OXB.r 8 w 7 9 F.fXXXk.7 B F ! *.C A :.BXZXZXZXNXcXs.y.=X&X&X#X@XP L ).jX_.( ! fXqXh.j.^ k.dX~.h.! XXk.` T.B /.!.iX",
"pX|.8 0 t r m.(.8 e 0 8 0 h.K F.OX^.B D F iXH.z x N g xXNXNXe.9.7.9.7.7.0.h | v.P L XXqXl.qXfX~.G 0 B h.~.h.J J aXiXh.P B < h.H.",
"E.oXF F F Q m.Q.6 Q e : j.jX/.J x._.K M.dX).C p i j # 9.e.e.N f M M M h | p k ( k.L ( wXz.eX_.h.z.l.L v./.J L z.qXdXqXK D L L l.",
"E |.9 F d.F e r g.(., l.OXOXT.U.x.!.! pX+XS.T i O # % % $ + f c c c A c ' k k D C L _ /.c._.x.z.fX`.z.z./.h.L L z.qX~.L K c.iX).",
"$.Y.q e d.! e Q dX!.x.OXdXG.t 8 h.!.! aXC.P T s f 6.d % & # M c x ' [ ' { k T v.` K W T.c._.F l.OXfX`.h.L K k.v.J c.eXL k.iXXXY.",
"^ B.0 Q k.f.9 M.fX).J ).B.D E w F h.k.T.z p h f d 5.% d # # i v z S [ [ ' a { tX_ ! M.J J !.j.j.).eXqX( B ( fX~.K z.~.K h.gXD.7 ",
"e E b.XX.X! G G qXc.( !.w Q 0 / OXOXJ I.S i # g 4.& d d # s p z v v c ' [ c R tX` _ pXOXJ h._ k.z.`.dXL z.fXfXiX).k.iXG h.^.8 E ",
"Q Q e T.hX|.j.M./.< ( U.> 8 / OXOXM.P Z.; i g * & % % # O i v ) ) m v x [ c p S v.aXhX^.J z._ ^ K L `.l.fXqXT.l.!.M.^.^ / ^.0 W ",
"Q G ^ 9 U.gX^.h.^.> m.B.9 ^ gX(.r Q I V z x f * * g # f M x Z q ) Z a ' ' [ M z ` aX^.^ K F j.F D v.).h.dXqXK ( k.( k.^ / Y.8 7 ",
"k._ h.0 e U./.Q B.V ^ E 0 l.OXD.e 9 0 E W z i f # # j M M i P F Z.z p a M [ [ z k./.W Q ! f.f.f.j.l./.h.~.h.( K ! _ ^ ^ 0 Y.Q e ",
"/.M.! f.r F |.t 8 ^ E E Q e ^.E F ! Q E ! C S s + s h ] M v ` aXaXv i a ' } S p { /.j.j.j.^ _ j.f.M.T.M./.h.G ( Q h.j./ Q ^ h.iX",
"^.Y.H f.8 e Q.y q E E e 9 0 Y.e M.|.XXj.B C S a i a h ' M p wX7XR v x M ' ' A p { W.k._ / m._ ( ^ f.^ M.XXh.W h.^ j.f.! z.k.gXiX",
"^ k.! F w 9 Y.e E Q h.! f.! r b.Q.e Q.).h.( 7Xz a M h ' ' z 7Xv.z v c x [ [ T S P C k.Q W ^ ( k._ F ! z./.h.F G M.^ h._ j.fXiXS.",
"W ^ D ! j.F y g.$.E h.dX).l.0 e d.H f.Q._.B tXz p x a ' S z Z.Z ; v c c ' c ) { ` L W h._ Q h.z.J F G F ! _ ^ M./.k.h.Q ! XXS.9 ",
"$.^ ! aX_.M.H E ^ ! K F.dX_.! r e f.w r /.^ R.; z [ v ' S z Z B p p c c v v P v.jXqXz.h.! z.dXwXL h.( h.j.^ h.m.hXiXh.B ( /.8 e ",
"W n.^.U.hX^.D w ! D J C F.fX(.> 8 e w H |._ D.Y T l v m R _ ; C Z S v v m [ ) v.qXeX~.h.! L qXeXwX( h.! ! 9 h.! /.fX/.< ! /.> e ",
"^ ^ < Z F.gX(.D , d.iX~.G T.^.H e e : f.Y.t |.Y ;.l v l Y C.C W ) v l v l T ` ( z.eX_.z._ B z.qXqXB K k.! h.Q ! k.iX).D e D.F Q ",
"j.0 W _ V T.(.w l.OXfX^.D.F (.D Q e r e Y.e S.~ m 3 ..l ; W hXaX;.l l b 1 l *.J x.J ).z.! G ( Z.~.z.v.qXgX!.! G ! k. XF > W +X.X",
"XXj.V .Xk.d.Q.w OXOXD.^ G G U.0 f.t Q g.S./ q _ X.X X.3 5  XU.hXyXl b n . n ;.h.( h.XXk.^ ^ k._ /.z.fXfX~.v.T.h.! h..X/ F ^.E.+X",
"+X|.F +X^.J !.D OXG.w W Q Q E.F W Q f.e 8 E ^ u 3 o +.3 Y I V R.lXb ..o.. X.*.b.( S.(.( j.F V _ /.l.iX`.z.L l.( d.M..X8 ^ h.9 Y.",
"^.(.9 Q..XH G.H Q.8 r e Q Q B.W b./ ! Q > D &.*.3  .O.o 5 ) &.W {.n  .X.X #.=.&.^ _ |.b.Q F j.k.^.l.qXL L h.x.l._ j..X8 e j.j.G ",
"H Q.F 9 U.! C.! (., d.e e E _ ^ G 0 Q d.D M.lX>.O...+.3 X.lX|.U X.1.+.+...X.n Y Y 4 $.0 0 e ( ( w ( dXK K c.hX/.F ! e E f._ h.( ",
"e !.e F Q 0 G G M.9 F g./ ^ n.k.( Q ( < C.oX'.1 O.2.O.2 #.yX}.Y . 1.2.1.O. .1 . . 4 #.$./ f.Z.l.( L D.K l.dX(.S.F E Q Q m.^ ^ ( ",
"9 ! e E E 0 ^ n.j.Q E g.F z.pXiXk.B > G kXZ.1 X.O.+.+.o.X.3 Y Y o O.+.+.+.O.o.O.X.X.5 $.Q ! ).dXh.F < ! gX/.F B 9 h./.V ^ ^ F / ",
"l.j.8 / ^ ^ j.aX/.F E y ! (.H.qXqXz.B ( pX#.. 3 b b o 2 o 1 %.%.X  . . . .o  .b ..X 1 u m.!.H.qX).l.D J +XB.H F ! aX/.^ G Q / M.",
"gX/.8 e q M.hXaXF.( r f..XD P H.dXqX( n.|.5 3 2 @.+...2 o 3 U K.X.O.o o  ...@.@... .5 V.U.H K !.fX_.h.l.^.8 w ! XXgXD.F 9 0 / oX"
};
