/* XPM */
static char *player[] = {
/* columns rows colors chars-per-pixel */
"64 64 256 2 ",
"   c #020101",
".  c #0A0908",
"X  c #1C1C1C",
"o  c #171613",
"O  c #0F1410",
"+  c #1C211D",
"@  c #1D1C21",
"#  c #221E23",
"$  c #383939",
"%  c #202020",
"&  c #202020",
"*  c #5B3B1B",
"=  c #693A06",
"-  c #653B15",
";  c #6A3B15",
":  c #643C1C",
">  c #6B3D1C",
",  c #61371E",
"<  c #723E1A",
"1  c #5C3C23",
"2  c #5C3D2B",
"3  c #553B25",
"4  c #5D3E33",
"5  c #4D3C24",
"6  c #643C23",
"7  c #6A3D22",
"8  c #633C2A",
"9  c #693C2B",
"0  c #6C3E2C",
"q  c #37661C",
"w  c #33681E",
"e  c #3A6423",
"r  c #3B6B24",
"t  c #3C6E2A",
"y  c #356823",
"u  c #3E722C",
"i  c #3C7327",
"p  c #3C7432",
"a  c #366D2C",
"s  c #4C491B",
"d  c #57441C",
"f  c #4D501B",
"g  c #64421C",
"h  c #6C421C",
"j  c #684618",
"k  c #73431C",
"l  c #744A1C",
"z  c #7D4C1D",
"x  c #7B4718",
"c  c #724E0B",
"v  c #4D4B23",
"b  c #4D4826",
"n  c #544324",
"m  c #5C4224",
"M  c #534C25",
"N  c #55432A",
"B  c #5C432B",
"V  c #5B4B2A",
"C  c #584C26",
"Z  c #4D532A",
"A  c #4B5826",
"S  c #54532A",
"D  c #5A552C",
"F  c #565827",
"G  c #5B4134",
"H  c #575733",
"J  c #634224",
"K  c #6C4324",
"L  c #63422C",
"P  c #694927",
"I  c #734422",
"U  c #754B23",
"Y  c #7C4C23",
"T  c #7B4D29",
"R  c #764629",
"E  c #665729",
"W  c #7A5227",
"Q  c #665A35",
"!  c #775338",
"~  c #684533",
"^  c #436C25",
"/  c #436E2A",
"(  c #4C6C2C",
")  c #4A652B",
"_  c #53642D",
"`  c #54692C",
"'  c #427225",
"]  c #43742C",
"[  c #4A742C",
"{  c #45792E",
"}  c #4B7A2D",
"|  c #4A7626",
" . c #517B2D",
".. c #51712E",
"X. c #4B6933",
"o. c #586935",
"O. c #437532",
"+. c #4B7532",
"@. c #457A33",
"#. c #4C7C33",
"$. c #4C7D3A",
"%. c #477B39",
"&. c #537D35",
"*. c #537E3B",
"=. c #5B7B3B",
"-. c #577637",
";. c #656639",
":. c #65743C",
">. c #766431",
",. c #5A5A5B",
"<. c #565857",
"1. c #695647",
"2. c #695851",
"3. c #5C7D41",
"4. c #697A46",
"5. c #777948",
"6. c #71724D",
"7. c #6D6B6A",
"8. c #5C6261",
"9. c #844D15",
"0. c #884D15",
"q. c #834D1B",
"w. c #894D1A",
"e. c #86471C",
"r. c #845016",
"t. c #84511B",
"y. c #8A5219",
"u. c #935D18",
"i. c #835505",
"p. c #946F18",
"a. c #824D21",
"s. c #854D2A",
"d. c #845122",
"f. c #8A5424",
"g. c #955829",
"h. c #824E36",
"j. c #854E36",
"k. c #865134",
"l. c #9A5C37",
"z. c #996439",
"x. c #936A2D",
"c. c #A7673A",
"v. c #AB7A37",
"b. c #B27533",
"n. c #A05A38",
"m. c #975D45",
"M. c #9B6346",
"N. c #8F7157",
"B. c #AC6C4C",
"V. c #A96C47",
"C. c #B46E4C",
"Z. c #B86F4E",
"A. c #B26E45",
"S. c #B6714D",
"D. c #B9714E",
"F. c #A76E51",
"G. c #B46F52",
"H. c #BA6F52",
"J. c #AD7356",
"K. c #B57252",
"L. c #B97251",
"P. c #B47359",
"I. c #B57955",
"U. c #A6734D",
"Y. c #977E75",
"T. c #987B6A",
"R. c #4E8136",
"E. c #4D813B",
"W. c #538235",
"Q. c #54833B",
"!. c #5A853D",
"~. c #5A883B",
"^. c #4B802E",
"/. c #62883D",
"(. c #5C8443",
"). c #5C8A42",
"_. c #568844",
"`. c #598F46",
"'. c #658646",
"]. c #73884D",
"[. c #63934B",
"{. c #69964C",
"}. c #6C9C53",
"|. c #6B9955",
" X c #759A57",
".X c #768F55",
"XX c #6EA359",
"oX c #74A254",
"OX c #73A45B",
"+X c #7BA55C",
"@X c #7AAB5D",
"#X c #77A85A",
"$X c #71A34C",
"%X c #7CAC63",
"&X c #78A864",
"*X c #7DB265",
"=X c #AC9233",
"-X c #C68B36",
";X c #D49639",
":X c #C9AF29",
">X c #CBB111",
",X c #FCEB13",
"<X c #EBD529",
"1X c #FDEC2A",
"2X c #E8DA19",
"3X c #86945D",
"4X c #838959",
"5X c #83A75D",
"6X c #82B35F",
"7X c #8A9A64",
"8X c #958175",
"9X c #9A8275",
"0X c #97837A",
"qX c #8F916E",
"wX c #AB8E7B",
"eX c #82AD63",
"rX c #87A766",
"tX c #83B265",
"yX c #83B269",
"uX c #89B46A",
"iX c #90AD71",
"pX c #A18A56",
"aX c #CB9647",
"sX c #D39945",
"dX c #CC9751",
"fX c #C9A743",
"gX c #F1DB48",
"hX c #A98D81",
"jX c #A9B496",
"kX c #A7A8A9",
"lX c #AFAFB1",
"zX c #949997",
"xX c #C7AD93",
"cX c #CABAAC",
"vX c #D2B6A9",
"bX c #CABAB3",
"nX c #C8B9B3",
"mX c #D2BBB4",
"MX c #CDC2B8",
"NX c #C3C4C3",
"BX c #DEDEC4",
"VX c #DEE3DF",
"CX c #F7E6D8",
"ZX c #E4E6DA",
"AX c #E1DFE2",
"SX c #DCE3E1",
"DX c #E3E2E3",
"FX c #E9E7E5",
"GX c #F3EAE4",
"HX c #FCF8E9",
"JX c #FFFBF5",
"KX c #FEFDFC",
"LX c #FAF5F4",
"PX c #ECEDF1",
"IX c #DFDDE2",
"UX c #B0C695",
/* pixels */
"#.OX).R.#.uXeX'.o.Z N v O.y O.$.oXoX ... XA S m 1 m 8 8 8 8 6 6 8 8 L 6 8 m 8 6 8 8 9 9 9 6 6 J V 3X-.Q.|.y / 3.7XS v S -. .W.( ",
"#.|.%X{ } tX{.^ _ b N D X.e X.A ) iX` -.'.A Q J : 6 6 6 6 6 : J 6 6 6 6 6 6 6 6 6 6 7 6 6 7 6 : C 3XX.+.'.) 3.iX7XS M S =.6X+X-.",
"r O.#X] #.#X] ^ 4.H 2 V Z Z H Z 4.6.H M H H ~ K 7 I I I I I k k k I k k l I I I K k k k I I I U P 5.H Z Z Z 6.5.1.m m D 5X6X+X X",
"+.] +X' ] XX#.=.7XD 1 L b b V N V 3 B N N C E T Y a.a.a.a.Y q.q.q.a.d.Y Y Y d.Y d.z z z z Y W T W J n C n * N N J L J ;.rX{.W.^ ",
"/ r }.r { [.] !.qXC 8 9 4 B * 6 : J 6 J * d l q.w.t.w.q.q.q.z r.r.x 9.q.q.q.q.q.9.9.r.r.t.t.a.a.T - : * h g L 8 9 0 3 >.4X .~.~.",
"] / [.R.i R./ '.3XC 2 8 4 8 K U U R I I x Y q.9.9.9.0.e.q.q.9.9.9.9.9.w.w.q.9.9.9.9.r.9.9.w.w.a.q.q.Y k l R 9 8 9 9 6 Q ` ^.%X%X",
"@XR.R.&X{ w ] 3.-.S N L 8 8 U z d.d.q.a.t.x y.9.0.0.e.w.w.w.y.r.r.r.9.9.w.9.w.9.w.9.9.9.9.q.q.q.a.e.Y a.t.Y K 6 2 9 * ;.+.}.&X*X",
"tX#X^.%X@X#._.+.( H b B 8 6 U t.z q.z q.a.q.z a.q.q.q.e.a.e.9.9.x 9.q.9.w.q.w.w.e.q.q.Y q.z Y q.z a.a.q.w.t.U 1 B N M Z ^ y _.XX",
"oX#X+.&.%X%X#.@.r .X3XQ 3 7 x t.Y > > 7 > 7 6 : > > > k a.y.9.r.r.r.9.r.r.9.y.q.Y k 7 K > K > : > 6 > k 9.d.> m D H o.X.[ W.W.W.",
"' +X[ r [.+X@.R.r +. XN.m 6 Y Y T 7 * 6 8 8 5 4 3 1 6 P T x r.r.r.r.r.9.r.x a.T T 6 3 6 2 3 1 B 2 3 1 K W z I d b 4.rXrX .} ^.' ",
"' }.+.] Q.#X} *X@X| -.].m 7 K R ! T.9X8XY.0XzX8X0X0X8XN.P Y r.9.r.r.9.0.y.t.l U ! T.Y.0X8X8X8X8X8X0X9XN.K T K m S 4.&XuX$X .W.] ",
"i [.e ] [.+X| $XtXoX'.5.m 6 , J 1.CXJXKXKXKXLXLXKXJXJXcXm g k 9.9.0.0.9.t.z K g 1.CXJXJXKXKXJXKXKXKXJXmXB J 6 B v o.+.&XuX#X{ { ",
"] ] O.E._.OX' | $X5X-.4.m 6 G 2 1.CXKXKXKXKXKXKXKXKXKXnXN J R s.w.9.9.q.d.U K m 1.CXKXKXKXKXKXKXKXKXKXnXG 3 B 2 M _ ( @.5X6X] ] ",
"O.%.p p p E.{ } &. X..;.m L hXbXMXLXKXNX,.,.,.,.7.FXKXFXbXvXN.< x q.d.Y k P wXmXmXLXKXNX8.,.,.,.7.FXKXGXbXbXN.5 v o.3.r W.#Xt %.",
"#.O.E.%.p E.R.i ^ {.(.4.n B nXKXKXJXKXkX        X PXKXKXKXJXY.6 > Y Y R 7 L vXHXJXKXKXkX        o FXKXKXJXJXY.N M A O.{ R.%Xp t ",
"(.&.u p p p @.{ @.$.*.o.n 2 bXKXKXFXSXzX# # .   X NXDXPXKXJXY.1 > Y T I 9 2 mXJXKXFXAXzX@ @ .   X NXAXPXKXKX8Xn M ) O.i } oX#.t ",
"&X(.$.p %.@.p @.Q.@.] o.* L bXKXDX$ + 8.SXSX<.  . o X 7.KXKXY.6 > Y W U 6 4 nXKXDX$ + 8.IXDX<.    X X 7.KXKXY.N b X.u p { #.~.%X",
"&XOXO.E.p %.u @.i { } A m 2 bXKXDX&   ,.KXKX<.        ,.KXKX9X3 > Y a.l 6 4 nXKXDX+   8.KXJX,.        <.KXKX0X5 G X.u i R.).eXtX",
"$.Q.+.] u @.O.e ] { -.F m G bXKXDX@   $ kXkX$         ,.KXKX8X6 I T a.x 6 4 nXKXZXX   $ kXkX$         ,.KXJX0X5 b o.R.i +.uXrX|.",
"+.+.] ] @.E.] W.#.Q.!.o.3 8 bXKXDX@       .           <.KXKX0X8 7 R q.x 9 G bXKXDXX                   <.KXKX0X5 H o.' i &.yX[.q ",
"#.#.r ).#.R.#.] ).%XrX4.V 2 nXKXDX@         .         ,.KXLXY.2 7 T W Y g B bXKXDXX                   ,.KXJXY.b E 3X^.q #.+Xy O.",
"} &.!.eX%XQ.] #.eXuXuX].N 4 bXJXLXlXkX7.        . zXjXNXKXKXY.2 J K I > * B bXKXLXlXkX7.        O zXkXNXKXKX0X5 F rX$Xq } {.q ] ",
"*.@.&. XtX@X&.} yX[.(.].5 G bXJXKXKXKXkX        + VXJXKXKXKX8X3 d j : 6 J P cXJXKXKXJXkX        X DXKXKXJXJXY.5 b 7X%X' | i t @.",
"Q.] / } oX%X#.O.{.Q.'..X1.1.cXCXFXKXKXlX& @ @ @ $ FXJXPXGXCXpXj c i.c c c l xXCXGXJXJXlX# @ X @ $ FXKXLXGXCXhX1.1.4. X#.@.#.yX@X",
"%XE.e ] ).*X@.w Q.&.(.jXCXCXwX1.7.GXKXLXDXAXIXIXZXJXKXMX1.E :X<X<X<X2X<X<XgXx.;.6.GXJXLXDXIXAXDXFXLXKXMX1.1.vXCXBX.X&Xa _.&XXX&X",
"*X&X] &.#.XX$.y Q.[ !.UXHXHX8X5 ! CXJXJXKXKXKXKXJXJXJXmX* c :X1X1X,X,X,X,XgXv.* ! CXJXJXKXKXKXKXKXJXKXcX2 6 vXHXFX'.|.a a p a XX",
"XX&XO.#.#.i %.a $.e &.iXcXvXN.J ! xXmXMXbXnXmXbXmXmXvXhX! d.=X:X>X1X1X2X:XaXx.W m.jXcXbXcXcXbXbXbXbXbXwXK P wXMXjX4.p a p t p @.",
"p OXt r $.O.$.p @.y -.o.N 4 R ! T 6 2 L 2 B G 2 4 ~ 9 j.J.K.e.= i.<X1X>Xc c x.I.U.K G 4 B B B 3 G G 2 R W T P n Z 3.3.p a a %.$.",
"] XXu u { ] a p @./ / A n 2 I W T > 0 7 6 g : 6 8 8 9 h.J.G.j.= c <XgX:X= - l.K.F.7 0 9 9 7 9 R 6 6 7 h z Y P m Z o.t a %.p O.$.",
"r @.@.] ] r 3._.] +.[ A N 6 Y q.q.z I < Y l Y I R 9 7 j.P.P.F.z.p.p.=Xp.x.l.C.P.J.M.m.m.m.l.j.< Y I Y Y 9.q.I 1 b ) [ r a u O.$.",
"~.%.w p Q.@._.&Xr i ^ A 3 6 Y 9.9.9.a.f.q.z d.a.I h : T G.G.S.I.J.h = t.I.L.Z.Z.K.K.P.I.K.S.n.f.w.q.q.q.r.q.I 1 b -.] ' u ] Q._.",
"OXQ.i u w ).uX&XO.-._ ;.J k x 0.r.9.0.9.w.w.q.a.T > ; h.P.C.S.U.F.s.< k.P.C.H.H.S.S.K.S.S.S.g.f.w.9.q.w.9.q.I m b 7X-.@.~.y { @X",
"%.*X*Xi ^.*X%X[.( F b P W q.x 9.9.9.z r.0.0.9.d.T > ; j.K.K.S.S.C.B.B.C.K.D.Z.Z.S.K.D.S.D.C.A.A.c.y.t.w.9.a.I J S ].X.#.#.#.W.{ ",
"{ XX&Xy R.tX).^ _ M 3 R a.9.r.y.9.r.r.r.0.0.9.q.T 6 7 j.J.K.Z.D.L.C.S.C.L.K.K.D.Z.K.L.C.S.S.D.D.A.f.q.t.w.d.k : F A -.y E.tXtX} ",
"t ] &Xi ^.XX] ..:.n m 7 z 9.w.9.r.9.r.9.9.0.9.w.Y > > h.J.K.D.D.K.L.L.D.L.C.L.C.S.S.L.K.D.S.S.S.A.w.9.9.9.q.I d f A ( [.eX5X}.#X",
"@.] XXi { }.=.o.5.d J U z 9.t.9.0.9.9.9.9.9.9.q.Y > 6 h.J.K.Z.D.Z.C.S.K.S.D.G.L.L.C.D.D.S.S.S.S.A.f.9.w.0.a.I m F A (.%XyX{.q | ",
"r i |.u @.).-.4.7XE ; < t.r.9.9.0.9.9.9.r.9.9.q.Y > 6 h.K.K.D.D.Z.D.S.D.H.H.L.L.L.Z.D.S.S.D.S.A.A.y.0.0.9.t.I 3 M o.'.uX[.q '.W.",
"] i |.%.p *._ ;.>.j R a.r.9.9.0.0.0.0.9.q.t.z t.Y > > h.K.K.D.C.L.D.K.K.D.L.Z.H.L.C.L.S.S.C.c.n.g.e.r.0.9.z I m M :.:.+Xq W.5X6X",
"&X_.y O.t A Z s d U T q.x r.w.9.9.0.0.0.r.q.t.Y Y > > j.S.S.L.C.S.K.Z.Z.D.Z.L.C.D.D.D.S.S.A.g.e.w.9.9.9.r.a.I J D :. .$Xq #XoX*X",
"yXOXy p O.X.o.d j Y W t.q.9.9.w.0.9.0.0.9.t.z Y T I < k.K.S.S.D.S.D.Z.D.H.H.L.L.D.S.D.S.S.S.l.w.w.r.9.0.0.q.K B D 7X:. .' q R.}.",
"XX*Xu t %.-.H m > Y q.x r.r.9.w.9.r.0.0.9.q.k > I M.U.B.S.I.K.C.K.K.Z.D.Z.D.H.D.L.L.S.S.S.S.g.e.9.r.9.9.9.W h J D 7X5X| ^ #.#.~.",
"@.XXt O.$.X.H J j z t.9.r.9.w.w.w.9.9.9.0.t.h > K F.K.L.S.S.K.L.Z.D.L.Z.L.Z.L.D.S.C.A.S.S.A.g.w.9.r.9.9.t.Y P d f 7X5X .} ).tX%X",
"R.[.y O.3.-.D 1 j Y 9.9.9.r.9.w.q.w.9.9.9.q.k : I F.L.S.K.K.S.S.D.K.D.S.H.D.D.D.D.S.S.A.c.z.g.w.w.9.9.9.U P E F F '.rX .!.%X%X|.",
"@.`.] +.Q.3.N 8 h z x 9.9.9.9.9.q.t.w.t.w.a.I > < B.D.C.S.K.S.D.L.D.D.G.Z.D.D.S.A.S.S.c.w.w.q.9.9.w.0.x - g N.7X-.!.oX| Q.yX{.q ",
"i ] =.%X&X-.H 6 g z t.9.0.r.r.x 9.q.w.a.a.Y R < a.B.G.H.L.L.D.D.S.S.D.K.D.S.S.S.D.S.D.c.e.0.9.t.9.w.t.x : n 4XiXrX~.@XR.Q.XXr / ",
"@.@./  XyX&XV 8 j Y q.9.9.9.r.r.q.q.q.z < I k.m.n.Z.H.P.H.D.D.D.S.S.S.L.K.L.D.D.A.l.g.g.w.9.9.9.t.q.w.x J n :./.oX~.XXR.E.XX/ +.",
"%.O.&.^ {.iX6.* g Y t.9.9.w.r.9.r.9.q.k 7 7 m.I.D.H.G.K.K.K.D.b.C.S.S.K.D.L.S.S.A.y.w.w.w.0.9.r.t.t.q.l J d o.-.~.W.E.%.p [.r e ",
"_.*.&.^ ]  X;.3 g U q.9.w.9.r.q.q.z q.Y I < M.L.Z.Z.J.P.G.G.D.D.L.K.L.S.S.C.C.A.c.g.w.0.w.w.9.r.q.z l U J F ` (  .W.R.R.u |.O./ ",
"rX(.+.*.r ..;.N J T 9.9.t.t.q.a.e.; ; s.F.B.C.S.S.S.S.S.S.S.D.L.H.H.L.D.D.D.g.f.0.0.y.e.w.q.z z T > j F 3X=.( Q.} *.Q.#.O.#.Q.tX",
"+X|.@.Q.w ( Q B 6 d.q.9.q.z a.a.a.< ; h.K.L.S.S.S.U.D.D.S.S.D.L.L.C.I.D.D.D.g.9.0.0.9.d.s.f.t.Y T J d _ rX#.@.#.#.Q.W.-.!.!.tXeX",
"$.Q.R.u ^ ) ;.* h Y 9.q.k Y Y k R ! h.m.K.K.S.S.L.L.D.S.A.S.S.S.C.c.c.c.c.c.g.9.0.r.t.z k I Y l P j F ` rX*.{ { !.&.&.&.Q.yX%X{.",
"@.%.i R.W.o.M d : Y a.a.> > ; ; R F.J.P.G.C.S.S.Z.H.D.C.S.A.S.D.A.f.w.e.w.0.9.9.9.r.t.Y h - g g d ;.` ` *.Q.@.).@X~.Q.} R.%X[.r ",
"%.E.@.eX+X'.A d j U Y Y < : > ; I B.P.L.Z.D.L.L.L.H.H.H.S.S.S.S.c.y.0.t.q.a.a.q.t.t.t.j n d m n f :.=.3.Q.*.*.Q.tX6X~.q R.OXi i ",
"p _.OX}.uX5X` F E P > T m.M.m.m.z.J.G.H.H.D.D.C.C.n.l.g.g.x.g.g.g.0.t.z k k I k h j U P Q ;.5.4X]. .&.&.$.t Q.#.@XtX#Xq #.OXw u ",
"*.#.e ( {.tX5X` A f : h.P.P.L.P.L.K.C.L.H.H.H.L.A.f.a.q.z q.w.w.w.9.t.l : : 6 * g d d E :._ :.5X5X' { ~.#.E.@.} !.eX@X^ i [.u @.",
"Q.' [ $.'  X+X( 4.F 1 ! P.P.H.L.K.B.B.B.B.C.B.U.V.Y Y Y l Y z Y q.q.Y Y x Y l l l l l E :.` :./.5X~.~.tXuX X&.[ &.Q.%X{ e +.*X&X",
"@XQ./ &XQ.&.oX/ 7XF L h.K.H.L.K.F.R R 7 R K I R K K J > < 7 : 9 7 K : f.aX-X-X-X-X-X-Xc.d S o./.+X~.tX6XoX~.oXW.#.W.&X&.]  X}.yX",
"*XOX] yXOX@.OX] rXv 3 h.P.G.S.D.F.0 9 6 1 m m n L 3 6 * : ; ; - ; - - g.sX;X;X;X;X;X;X=X: s F =.+X/.6X5X~.W.~.R.R.).&Xy *.&.^ |.",
"XXXXr XX&XO.[.@..XS m h.I.L.D.A.F.K ~ B v Z F F C N g l g.u.u.u.u.u.u.x.b.b.b.b.b.b.v.x.* C _ /.oX/.5XW. .W.^.~.E.E.&Xy O.*.Q.[ ",
"^.XX' i  X$.`.$..XC * j.P.L.A.I.F.K B H o.4.iX7Xo.C d f.dXsXaXsX;X;XaXv.= c = ; = h - d d d o.-.^ &.5X .| /.uXOX{ #.t +.*.&.Q.#.",
"i #Xi { %.t O.+.4.s 6 h.G.L.C.U.U.g n Z '.eXeX.Xo.b s f.dXsXsXaX-XfXaXv.= d d d d g s n M s :.!.-. .{. ./.eX#X[.i ] $.O.(.*.$.Q.",
"q R.t } +.r %.).:.v J h.G.P.m.k.W E f ` iX#X] q e 3.:.>.f.u.u.u.u.u.u.>.F M ;.;.F ;.F o.Z X.7XeX~.' q  .uX#X] i y Q.+X] *.@.t #.",
"_.(.e O.$.$.Q.uX4XV * h.P.S.j.: E :.` Q.%X[.} +.#.*XrXQ g ; - g g : * d 3.%.3.iX5X( [ X.'. X$X5X@X~.'  .eX[.{ { R.*X#X#.] %.%.`.",
"yXOXt / y (.uXrX].P : h.P.J.h.6 D 3X-.!.#Xw ' | *X%X.X_ * 9 6 2 8 8 2 S ) _.uX&X}.| ] ). X} | $X6X#XW.~.#Xe i %.%XyX|.] r a %.&X"
};
