/* XPM */
static char *wall[] = {
/* columns rows colors chars-per-pixel */
"64 64 244 2 ",
"   c #020400",
".  c #0A0100",
"X  c #000C00",
"o  c #0B0E03",
"O  c #120100",
"+  c #1C0B02",
"@  c #180A04",
"#  c #011401",
"$  c #091504",
"%  c #011B01",
"&  c #091A02",
"*  c #0B150A",
"=  c #061A09",
"-  c #081809",
";  c #1A1305",
":  c #161410",
">  c #220C01",
",  c #250804",
"<  c #351502",
"1  c #3C1302",
"2  c #3B1B09",
"3  c #391909",
"4  c #3A1D14",
"5  c #2A0F04",
"6  c #012101",
"7  c #0A3406",
"8  c #043D03",
"9  c #0A3C05",
"0  c #0B360C",
"q  c #063C0A",
"w  c #0B3C0B",
"e  c #053704",
"r  c #11350E",
"t  c #123A0D",
"y  c #103D06",
"u  c #0C3B11",
"i  c #0D3512",
"p  c #133513",
"a  c #133B12",
"s  c #173717",
"d  c #112F0C",
"f  c #3F200E",
"g  c #3F3522",
"h  c #431504",
"j  c #441807",
"k  c #4D2C1D",
"l  c #532C16",
"z  c #47331C",
"x  c #56331D",
"c  c #473323",
"v  c #563222",
"b  c #034202",
"n  c #094205",
"m  c #024802",
"M  c #05420A",
"N  c #0B410A",
"B  c #11410B",
"V  c #104114",
"C  c #33651C",
"Z  c #3B6B1B",
"A  c #37671C",
"S  c #2C641A",
"D  c #2E6524",
"F  c #336523",
"G  c #3B6524",
"H  c #356A23",
"J  c #3B6C24",
"K  c #356B2A",
"L  c #3B6D2B",
"P  c #37662B",
"I  c #3D7225",
"U  c #3D722B",
"Y  c #38742B",
"T  c #396B33",
"R  c #3D7331",
"E  c #3D7832",
"W  c #41691E",
"Q  c #425B2A",
"!  c #426D24",
"~  c #426E2B",
"^  c #496A29",
"/  c #437324",
"(  c #43742C",
")  c #49752D",
"_  c #447A2D",
"`  c #4B7B2D",
"'  c #497825",
"]  c #517C2D",
"[  c #446D34",
"{  c #4A6C33",
"}  c #456D3A",
"|  c #476738",
" . c #536C3C",
".. c #437432",
"X. c #497533",
"o. c #457A33",
"O. c #4C7C33",
"+. c #457B3B",
"@. c #4C7C3A",
"#. c #46733A",
"$. c #527D34",
"%. c #53743C",
"&. c #537D3B",
"*. c #587738",
"=. c #526C41",
"-. c #487A44",
";. c #547342",
":. c #5B7B4B",
">. c #587747",
",. c #5D7853",
"<. c #4A734A",
"1. c #637349",
"2. c #657D57",
"3. c #2E8C2D",
"4. c #338C2E",
"5. c #34892D",
"6. c #358633",
"7. c #3B8636",
"8. c #348C33",
"9. c #3A8D35",
"0. c #3D863C",
"q. c #368C39",
"w. c #3C8C3A",
"e. c #349133",
"r. c #399235",
"t. c #3B9239",
"y. c #369339",
"u. c #2E9330",
"i. c #4A802D",
"p. c #4C8135",
"a. c #42843C",
"s. c #4D823B",
"d. c #418A3C",
"f. c #438036",
"g. c #538235",
"h. c #5A8435",
"j. c #53823B",
"k. c #5A853C",
"l. c #5B8A3D",
"z. c #568938",
"x. c #5F903F",
"c. c #628A3D",
"v. c #629038",
"b. c #3E8342",
"n. c #3D8A42",
"m. c #3D9042",
"M. c #438443",
"N. c #4C8342",
"B. c #478748",
"V. c #538342",
"C. c #5B8542",
"Z. c #558A43",
"A. c #5C8B42",
"S. c #5C854B",
"D. c #59894A",
"F. c #5D9245",
"G. c #5E944D",
"H. c #588C55",
"J. c #638E4A",
"K. c #628948",
"L. c #63934B",
"P. c #6B964C",
"I. c #65994D",
"U. c #6B9A4C",
"Y. c #649546",
"T. c #739B4D",
"R. c #658B57",
"E. c #669954",
"W. c #6B9C53",
"Q. c #6A9856",
"!. c #729E53",
"~. c #729D5B",
"^. c #77975A",
"/. c #718E56",
"(. c #6EA255",
"). c #6EA259",
"_. c #73A355",
"`. c #7AA456",
"'. c #74A45B",
"]. c #7AA55C",
"[. c #75A95C",
"{. c #7BAA5C",
"}. c #78AA56",
"|. c #7BB35E",
" X c #77A14D",
".X c #6C9463",
"XX c #799D67",
"oX c #75A463",
"OX c #7CA563",
"+X c #75A961",
"@X c #7CAC63",
"#X c #7DAD6A",
"$X c #7DA46B",
"%X c #7DB163",
"&X c #7EB26B",
"*X c #76BC6D",
"=X c #7DBC7B",
"-X c #79BB76",
";X c #7FA671",
":X c #6AC766",
">X c #66CC64",
",X c #6ACC65",
"<X c #6CC66C",
"1X c #66CB69",
"2X c #6BCB6B",
"3X c #65C666",
"4X c #72C56D",
"5X c #72CA6D",
"6X c #71C567",
"7X c #6AD16A",
"8X c #69D066",
"9X c #6DC573",
"0X c #6DCB71",
"qX c #74C473",
"wX c #7AC374",
"eX c #73CA72",
"rX c #7CC47B",
"tX c #77C679",
"yX c #71D170",
"uX c #70D06F",
"iX c #65C95D",
"pX c #81AC5E",
"aX c #80A65E",
"sX c #86B45D",
"dX c #849B69",
"fX c #839973",
"gX c #82AD64",
"hX c #83AD6B",
"jX c #87A968",
"kX c #84B264",
"lX c #89B265",
"zX c #84B36A",
"xX c #89B36C",
"cX c #84B869",
"vX c #8CA77A",
"bX c #82BB7D",
"nX c #86B775",
"mX c #95AB7A",
"MX c #83C07A",
"NX c #7FBC81",
"BX c #7EC082",
"VX c #85B983",
"CX c #99B181",
"ZX c #83C085",
/* pixels */
"O.].A.O.) cX@XL._ p.C C R D +.@.`.{.O.) /.G X.j.zXE.O.O.%.$.] ] sX}.z.O.O.@XzXF.( N.P K R F R @.I.%Xo.O.Q.H { &.zX!.) ) ] i.h.! ",
"O.E.@X) O.zXI.Z J g.j.j.R F R F L @XL &.J.L @.@XzXJ.$.G $.xX`.] v.cXOX@.@.jXP.G { -.-.N.R D R D s.[.( R L.H >.xX@XY.` ! g.pX].] ",
"J _ [.( O.`.) ! Y.hX@XL D T +.D A.).X.F F G z.cXL.o.L D.xXOX].`.' ].OX} ,.XX=. .| #.[ R D K E D V.~.+.K C H J.OXE._ ( l.{.zX`.`.",
"_ E '.U ( ~.O.$.gXjX~.@.s.D D K @.W.-.T F -.D.+Xs.K U zXhXQ.&.^ $.X.XX# X # X # # # +.V.+.K K T @.oX-.L J O.k.OXj.C ( #XkXU.$.~ ",
"I J W.J o.L.) k.xX/.O.@.+.+.+...#..X| # # # % % % % % % # # # S.| =.# -XrXwXwX*XwXMX% # # # X T <.R.-.#.o._ g.@Xs.I U #XU.O.k.k.",
"U U L.O.( $.( l.].O.X.X.P +.R T +.# # VXVX=XrX-X-XtXNXBXVX=XVX# X # BXeX2X,X,X:X5X4X-XbXNXVXVX% # D.T R I I j.Y.O.L @.'.A g.gX#X",
"@Xg.g.[._ C ( s.&.X...L J K R Y % qXwXqX*XtXwXtXeX9XtX9X9X9XeX-X# # rX2X2X8XiXuX2X5X4XqXeXeX<X9X-X% } } U ) Z ( z.I ( W./ !.].hX",
"xX].O.@X[.O.z._ U ].( [ ....+.% 5X:X2X2X2X2X2X2X2X2X1X0X2X0X2XqX# VXeX2X,X8X,X,XiX:X,X:X2X1X8X2X9XrX# $X( Z g.cX+XU J / Z J k.~.",
"].].) p.%X[.p._ J ~.oX@.o.Z.% wX5X2X1X>X7X>X8X>X>X7X2X,X5X5X6.d.% M.y.,X,X,X2X,X>X>X8X8X2X1X1X2X:X4X# vXOXh.zXcX'.U O.' I g.z.&.",
"~ [.` Z F.}._ j.J X.~.+Xs.6 -X4X2X2X2X2X>X7XiX8X1X2X:X4X9.d.d.% M.0.6.e.2X6XuX,X1X>X>XiX7X1XyX1X1XeX# *.^.] @X[.s.z.%X{.i.' $.~ ",
"/ E._ _ g.}.) zXgX~ &.@X6 *XwX6X9X9X0X3X2X2X:X2X5X4.9.t.7.a.% M.M.M.7.9.9.4.e.2X2X2X,X>X2X2X3X7X>X<XX  .aXh.OXL ( V.{.cX_.i.&.) ",
"U Y.C ( F.[.) ~.hX].D.% *XwX5X5X0XeX8.8.r.4.9.8.6.9.7.d.d.% 6 -.b M 6 a.w.6.e.3.q.q.e.2X:X,X2X2X1XwX#  .dXc.'.X.G O.` }.cX'.) X.",
"U ( U p.z.[.( ) ~.hX% *XwXqX5X3X2Xe.8.t.6.d.B.M.b.B.M.% 6 b.b.B.b 8 9 8 a.w.8.q.e.6.8.t.w.9.8.8.9X=XX ,.OXc.@X( U _ I _ |.{.( ..",
"..@._ U U O.) O.&.~.% bXwX<X0X7Xu.e.e.q.6 0.b.6 % % M.B.M.a.m 8 b q % w b 0.q.q.d.9.d.7.d.0.q.m m 9 X ,.$XO.@Xj.L o.p.I i.(.( O.",
"@.X.s.o.( s.s.L ~ Q.% =XwX0X3.u.y.6.3.r.9.9.7.0.7.B.0.a.8 n N M M w d # e M m n.b 8 b b 8 n b 8 e p   2.Q.` ].( ..L U _ p.@XU J ",
"C.@.( ..U ( o...@.#.% =X7.q.e.u.4.9.9.7.9.9.0.m m b b b b 8 w 0 w 9 p X q q b b n 9 9 9 9 b b 8 % # # X N.( ~ X.U K E Y O.'.O.Y ",
"OXC.&...@.o.R o.-.@.% VX7.9.3.e.4.9.a.M.0.m 8 n w 9 9 w # # # # # p t M # % q 9 r t i 7 n 8 m qXeXtXtXNX% # } [ X.R Y E ( O.z.#X",
"XX~.~ V.R o.Y o.( ..# B.d.9.r.8.r.7.% n 8 b w 0 r # # M -.B.B.-.X # 0 -.VX=X# M # # % % 9 =XqX0X<X2X1X<XrXbX# #.@.U E Y j.l.gXhX",
"&.>.O.U R o.U H U >.,.# 7.9.6.w.w.n.M.b M 8 0 p p # 0.3X5X6XwXwX-.% # u rX<X0X9XqXrX0.b.# -.eX,X>X>X1X1X,X4XwX% @.X.@.U g.lX@XQ.",
"O.O.) U O.p._ p.O.@.2.X a.9.t.0.b.b b b 8 N e % # NX9X>X,XiX,X6X4X7.:.# rX5X2X2X0X2X<XtX% % +.eX2X7X>X>X:X2X1XwX# %.! J p.@XL.C ",
"@.@.L C.O.g.O.U F.hXCXX % d.0.b.% N m b w 9 % *X4X<X0X0X7X>X,X2X,X6XrX% % -X6X,X,X,XyX4X-.# X # qXeX2X4X2X2X2XrX# dX] / ' [.H E ",
"o.s.V.#X{.g.( O.@XhXvXX MX% 0.6 =X# e 9 9 % wX2X2X,X0X3X3X8X2X>X,X,XeX-X6 4X5X8X,X2X1X5XwXB.# X 7.6.8.5X6X5X4.9.# CX^.A i.F.C I ",
"s.o.p._.gXgXp.) gXQ.X VXwX4X6 qXrX=X# a M.d.2X,X2X2X2X,XyX2X1X1X0X1X2X0X2X:X2X2X,X>X>X1XeX6.d.7.t.4.4.y.5.4.u.d.# vX#X~ ( / ( O.",
"s.U U ) ~.gXO.O.U.&.$ VX4X5XrXqXeXqX# # a.8.u.2X2X2X:X5X:X1X2X1X1X2X1X8X,X>X7X1X2X>X7X>X2Xt.3.e.8.e.y.8.9.d.5.f.# 2.oXo.O.$.#XgX",
"|.s.H ) l.gXX.F s.s.# bX4X5X<X0X<X5Xa.7.9.e.e.4.2X:X6X2X2X2X7X2X1X0Xe.8.e.:X2X<X2X2X:X4.9.8.8.u.3.y.n.b.-.N.+.N.X H.#XY N.+X).hX",
"%X{.) O.] ~.@.K N.R % nX4X5X<X<X4X9.0.w.w.8.t.r.9.e.<X2X>X>X2X2X,X8.0.M.7.t.8.2X5X2X9.9.5.t.8.8.q.6.m.B.# # # # X =..XD H s.G ~.",
"(.[.( $.$.! +.K N.D # nX5X3X0XeXM.B.B.-.-.N.6.8.u.q.e.2Xu.8X:X9.d.8 # # M.q.8.8.8.6.9.4.9.4.t.w.M.% # # # 0 a # X X X T R K O.) ",
"_ '.J J &.X.@...+.K % rX4XeXqXb % # # % # % 0.y.q.y.6.y.3.3.r.7.8 B X p q m.e.8.w.w.5.t.9.6.w.8 # u u u 0 a u u s d # =.R J U s.",
"/ W.( U ( ) X.[ =.# tX9X9X8 m b w 0 M e w # % -.b b 0.6.w.7.b n b 9 X a M 6.y.q.e.q.8.5.7.0.m 9 9 9 w 8 w w e w p t X [ E E R @.",
"H O.o.U U J $.S. .# qX9Xm M 8 M 9 q M b w w 9 w 9 M 8 b m b 8 N N e a 0 8 m 6.8.q.w.w.d.m b 8 w 0 t M 8 n 8 N w 9 r X [ K R @.-.",
"Z.o.C _ s.O.j.oX| X =Xm b 9 8 8 b b 8 w 9 e N w 0 w 0 9 b b w 7 8 N 0 # N b m b M.0.0.m 8 n N r X X 7 n n b 9 q w 7 X ;...Y &.D.",
"[.j.Y ( H A.nXoX| # % 9 9 w u 9 b b 9 9 9 N 8 w 0 # # w 8 n e B w w p # 7 w 9 9 9 e 8 9 M 8 t X X s t 8 8 n q w 6 t X %.@.I o.$X",
"` %X@X_ o.@XgXR.=.X % % p 9 w 8 8 b M q 9 b b n 8 t X t 9 9 9 M 9 9 0 t # X s p p a p u # w u # i i 9 8 9 w a % % X  .*.) g.p.( ",
"_ ).).K p.cXL.J | X % # % t w 9 w w w e w q 8 8 n w r # y 9 w 8 9 w w 9 0 p # X X # % 0 t 0 w w u V 9 y t % # 6 # X *.W k.].%Xp.",
"J ( +XU o.[._ ( &.;.X # % % 6 t % t i % u q M M q 9 0 # 9 9 n 8 8 n 9 w w w 9 N 9 N 9 8 w 9 9 w i 0 7 % 6 % % # 6 X { J.pXgXE.+X",
"X...).J o.(.i.' c.mX# # = % % 6 # s X i i q q 0 M e w w i u w b n 8 N 9 8 n b e 8 9 9 w w t r % % 6 6 % % # % = - X K.OXlXY.G ( ",
"L ~ E.L o.F._ z.kX].>.X $ # % # & % . # s V q M e B t r % X a u q q 9 N n 8 b b B 7 r p % % % # % % % # & % %   X >.A.lXK.A K.g.",
") ~ Q.+.R p._ |.|.I.} X % # % & % X & % % % % u a 0 t % =   % % u q 9 8 9 n 9 9 7 6 % % % = $ X % % % & X X X ,.:.$.l.}.Z h.{.sX",
"@Xk.P o.Y C i.|.I.L P } X # X # X % # % % % % # # & % # *   X % % a t t y 7 a % % % % # 6 % X   % $ & & X fX:.;.hXk.] U.Z }.T.lX",
"kX[.P L ..E Z.[.H L L P | ;.;.  % # = % $ % % $ % % % $ - -   # % % % % 6 % % % # $ % % # #   $ $ $ $ X X 1.&.%.gXpXh.i.Z Z $.T.",
"U.%X( U ..O.V.W.H o.Y C &.xXXX>.X $ = # # $ % % # % % % # = # X $ # % % % % % % 6 # # - $     $ = $ $ X vXX.&.h.pXlXaX/ / ] O.k.",
"_ ).L ( j...( U s.).H A.&XhX~.^.  % # - = = # % % % % # % % #   $ $ # % # % % % % % - X X   * # # % $ X dX&.O.g.h.pX].$.` K.gXgX",
"+.E.C ( &.O.U O.%X[.i.|.kXI.( L >.X % % $ * % % % % = = % % $ -   - = % = # # # # =   o   o = $ = % X :.) ) v.h.' v.sX$.k.hX#XY.",
"@.G.J O.z.&.J A.cX}.i.{.F.U ( J { :.X X # % % # # = # # X $ o .     $ $ - - = - $ X         X X X X ;X@.' ] pX}.i.h. X' k.xXL.C ",
"L ..j.@X@XO.) ) gXc.g._.I p.H o.zXOX-..XX   $ # * o * *       . + +     $ * o *   X vXvX>.>.:.:.K.$XhXO.v.pXsXsX{.z.gXO.$._.H ( ",
"#.@.( ~.zX'.h.l.].Z ` (.C H i.%X|.G.+.R.<.=.X   X   X X   . + 3 3 j > .     X   X vXxX~.&.z.#.&.~ &.].C.pXsX Xh. Xl.'.O.$._.L ..",
"$.) O.J E.kX_.p.'.C C.D.A g.&X[.I _ U U Y o.L %.! %.XXfX  @ 4 2 j 1 3 c ;   2.XXC.jX`.$.( ( Z.( ) l.aXh.lXaX) &.k.$.j.O.o.L.J F ",
"k.&.&.I ( W.[.O.J.~ @.X.( z.%XI.I J I U _ H o.o.l.$.! dX  c < 2 2 j 1 k . 1.K.OXl.[.) _ p.p.o.s.p.z.aX] aX$.$.) $.&.s.@.L E.@.~ ",
"].D.O.s.J ( +X..K @.) ....U oX_ Y O.o.) ` / J K.kX`./ /.. c < < l h 1 z . >.K.`.A.OX&.j.s.&.j.j.s.A._.A.].$.) $.X.j.j.O.o.s.j.gX",
"'.Q._ j.H Y E.E K ....I L I E.Y F.+X@Xj./ W O.gX{.Y.O.^.. k 1 l 5 l < l   1.%.] k.].j.-.@.V.&.$.@.p.@.A.@Xg.` &.O.j.s.O.j.k.lXgX",
"&.V.$./ I I E.K ..o.j.O.g.O.L s.).U ).@Xz.i.|.%XK.! ~ *.O k 2 l 5 l h x   R.*.] i.' k.O.X.@.O.k.&.( O.z.].s.( ( A.s.g.j.j.zX@XL.",
"X.@.! O.j.( ..@.-.X.g.kX{.l.U R o...s.W.(.I &XG.! { c.*.O v 1 j l h h l . vXlXi.g.) ) j.$.O.j.k.) ) ) ( &.j.$.A.].k.j.) $.@XL.J ",
"@.@.$.jX}.A._ o.@.O./ U.lX[.) Y U s./ ) (.i.).J s.&XgX^ O k 1 h h h h l . mX].l.cXpXh.h.$.k.lXaX` h.O.j.j.O.s.k.zXgXk.W $.].J Y ",
"{ D.~.P.xX{.( I p.! ] ' U.lX{.C H L J O.[.p.).L &XzXL.Q . k < j h h j l . dX$.h.}.sX`.h.` ` aXlX`.$.h.O.O.J g.O.].lX].Z O.].S U ",
"@.O.G ~ U.zX[.I A g.gX`.) !.[._ E U F s.(.Y '.R hXD.~ | . x 1 3 f < h v . 1.*.` k.lXaXl.s.U c.aXpXW ) l.O.g.O.O.z.gXgX! ( Y.( X.",
"j.U ) &.~ W.[./ l.|.zX`.P.( [.U o...L E G.Y G.@.R.{ ;.X c 5 3 3 < 3 j 1 z X 1.) *.%.gXg.O._ *.c.aXh.c.gXcX~.` ) O.k.].( C o.#X#X",
"@Xs.~ oXk.p._.I %X%XP.&.( ) Q.I O.U f.f.G.f.H @.R.Q   g ; , O 4 3 3 @ , 4 z . 1.%.S.OXj.O.p.$.h.{.l.lXlX_.l.!.h.O.g.+XO.( '.Q.zX",
"&X].( zX'.` )./ %XI.I ....O.Q.( g.U d.E S E @.T Q X g > . . , , 4 4 @ O . > c   ,.S.#Xj.j.I ' ] `.l.pX`.h.g.k.O.s.A.+XH @.j.J Q.",
").[.J (.+X( Y._ ).H U U O.O.L.O.V.&.@.X.H ..@.:.X ; ; . @ : : , @ @ , : ; . ; @ X >.oXj.o.o.` c.`.z.aXg.] h.$.l.$.j.+XK ( j.z.) ",
"_ ).( J ).O.K.O.[.H p.U L ..@.&.L ~ X.O._ z.nX# X X                           X X # %.U L U $.$.J $.pX) ' v.xX`.( O.U ..s.@.&.$.",
"( _.U ( o.U ) X.A.J _ p.+.s.k.V.s.o.O.! l.%X@XJ.#.#.%.>.hXhX/.%.) XX{ [ >.{ %.| #.P X.p.o.s.z.k.$.O.U.' A.gX].Y.( ( O...V.s.O.&.",
"J O.Y o...L O.A.j.o...o.U j.lXgX@.Y A ` cX}.' Z H V.'._ cXY.Z $.A g.( O.U F &.&.@.@.J O.E p.%XkXh./ A O.cX{.) J J j.].~ j.O.U +.",
"k.j.H ..@.@.&.gX].( o.E O.'.T.gXgXl.^ &.[.I./ ` O.nXoXV.E.' *.k.*.k.F Y s.-.j.&X+XO./ / z.).(.{.@Xl./ ) @XG.( ( O.zX].$.) ..@.Z.",
"xX`.K R G S.xXlXP.$.U a.+X/ ] T.kXgX*.k.@XA W ` #X;XQ...H J $.jXxXoXK R L V.-X&XQ.$.^ l.(.E ' _.kX}.g.l.'.J Y O.@XzXP.( J Y +.#X"
};
