/* XPM */
static char *wood_stick[] = {
/* columns rows colors chars-per-pixel */
"64 64 255 2 ",
"   c #0D1B06",
".  c #0E1C0A",
"X  c #0A1508",
"o  c #121D0C",
"O  c #17180B",
"+  c #141B11",
"@  c #1A1B12",
"#  c #14140D",
"$  c #260D0B",
"%  c #360C0C",
"&  c #28170C",
"*  c #3A170C",
"=  c #241B14",
"-  c #2B1A1C",
";  c #2A1616",
":  c #381816",
">  c #260D12",
",  c #0E230A",
"<  c #13230D",
"1  c #18270D",
"2  c #1B350D",
"3  c #152312",
"4  c #1B2413",
"5  c #162B12",
"6  c #1B2C13",
"7  c #1E2C19",
"8  c #1A2418",
"9  c #1C3414",
"0  c #1D3915",
"q  c #272817",
"w  c #3A2318",
"e  c #213B14",
"r  c #233C1A",
"t  c #263519",
"y  c #2E3215",
"u  c #361A22",
"i  c #2E1A23",
"p  c #362825",
"a  c #293722",
"s  c #393827",
"d  c #2C2A21",
"f  c #481917",
"g  c #55191C",
"h  c #440E0C",
"j  c #44261A",
"k  c #56241A",
"l  c #44361C",
"z  c #56361D",
"x  c #64261B",
"c  c #702E1A",
"v  c #541922",
"b  c #451A21",
"n  c #631D25",
"m  c #771D2A",
"M  c #453627",
"N  c #512D27",
"B  c #662726",
"V  c #782628",
"C  c #673425",
"Z  c #753825",
"A  c #752C35",
"S  c #793D36",
"D  c #683936",
"F  c #6A161A",
"G  c #2B441D",
"H  c #2C4B1D",
"J  c #274617",
"K  c #34491C",
"L  c #2C521B",
"P  c #2D5619",
"I  c #34571C",
"U  c #21420D",
"Y  c #2E641D",
"T  c #33651D",
"R  c #39661C",
"E  c #3E701B",
"W  c #2C4722",
"Q  c #344A26",
"!  c #2D5621",
"~  c #345523",
"^  c #355B23",
"/  c #3A5C24",
"(  c #3A5829",
")  c #3B5131",
"_  c #346524",
"`  c #3B6424",
"'  c #356A23",
"]  c #3B6C24",
"[  c #3D642B",
"{  c #356A2A",
"}  c #3C6D2A",
"|  c #34672A",
" . c #3C7225",
".. c #3D722B",
"X. c #3A7528",
"o. c #3D7431",
"O. c #3E793B",
"+. c #346A2C",
"@. c #4C5618",
"#. c #4A661D",
"$. c #70611C",
"%. c #455B34",
"&. c #4F562A",
"*. c #714A35",
"=. c #6F522D",
"-. c #426D24",
";. c #43652C",
":. c #426C2B",
">. c #496A29",
",. c #576828",
"<. c #447226",
"1. c #43742C",
"2. c #4A752C",
"3. c #45792D",
"4. c #4C7A2D",
"5. c #467827",
"6. c #517B2E",
"7. c #57732B",
"8. c #436D32",
"9. c #496737",
"0. c #556A38",
"q. c #437532",
"w. c #4B7434",
"e. c #457A33",
"r. c #4C7C34",
"t. c #4B743A",
"y. c #4C7D3A",
"u. c #457A3A",
"i. c #527D34",
"p. c #537D3A",
"a. c #567636",
"s. c #776828",
"d. c #68742A",
"f. c #79742A",
"g. c #677735",
"h. c #7A7834",
"j. c #6F6532",
"k. c #7F3941",
"l. c #7C4846",
"z. c #4F7542",
"x. c #597946",
"c. c #546B42",
"v. c #767B45",
"b. c #667C46",
"n. c #8E301B",
"m. c #841C23",
"M. c #882628",
"N. c #952C28",
"B. c #86382B",
"V. c #97362B",
"C. c #862935",
"Z. c #893937",
"A. c #963738",
"S. c #A33934",
"D. c #9A491B",
"F. c #8B4637",
"G. c #974534",
"H. c #975B35",
"J. c #8E502C",
"K. c #A75729",
"L. c #A64A37",
"P. c #AA5A39",
"I. c #B4593B",
"U. c #B05E2E",
"Y. c #857934",
"T. c #977537",
"R. c #8E6F31",
"E. c #A76637",
"W. c #B76839",
"Q. c #A87737",
"!. c #B87739",
"~. c #AB702F",
"^. c #953C40",
"/. c #9A4D44",
"(. c #AB5745",
"). c #B45B45",
"_. c #A54B44",
"`. c #8F7343",
"'. c #A66748",
"]. c #B86645",
"[. c #BA7745",
"{. c #B0734B",
"}. c #C16A48",
"|. c #C27547",
" X c #C26E54",
".X c #4C8136",
"XX c #4E813B",
"oX c #448134",
"OX c #538135",
"+X c #5A8336",
"@X c #53833B",
"#X c #5A853B",
"$X c #5B893C",
"%X c #55893E",
"&X c #628A3B",
"*X c #778338",
"=X c #548441",
"-X c #5B8543",
";X c #5C8B43",
":X c #5A8B47",
">X c #5D924A",
",X c #568649",
"<X c #658B4C",
"1X c #638A46",
"2X c #738A4A",
"3X c #63944B",
"4X c #6A944B",
"5X c #6C9A4E",
"6X c #649548",
"7X c #79994C",
"8X c #678B52",
"9X c #6A9453",
"0X c #6C9B54",
"qX c #689856",
"wX c #729E54",
"eX c #739D59",
"rX c #789755",
"tX c #7A8D5D",
"yX c #6EA25B",
"uX c #6EA357",
"iX c #73A255",
"pX c #7AA455",
"aX c #73A45B",
"sX c #7AA55C",
"dX c #7CAA5C",
"fX c #75A95C",
"gX c #77A956",
"hX c #739A62",
"jX c #76A961",
"kX c #7CAB63",
"lX c #78A865",
"zX c #7DB265",
"xX c #7DB26A",
"cX c #95853A",
"vX c #8B8238",
"bX c #A78338",
"nX c #B8843A",
"mX c #988947",
"MX c #909452",
"NX c #A88444",
"BX c #BC8742",
"VX c #A5914A",
"CX c #82AC5D",
"ZX c #8CA859",
"AX c #8FA958",
"SX c #889961",
"DX c #82AD63",
"FX c #86AB67",
"GX c #84B264",
"HX c #89B265",
"JX c #84B36A",
"KX c #8AB46B",
"LX c #86B96B",
"PX c #87B471",
"IX c #C9814B",
/* pixels */
"i.sX$Xi.4.JXkX>Xq..X{ _ q._ O.y.iXfXr.q.hX| 1.OXzX5Xe.y.a.i.i.2.HXCX$X4.4.xXKX<X2.y.| +.O.| o.oXuXlXu.=XqXT -.i.FXwX2.q.i.a.+X-.",
"r.9XkX4.r.JX5X] 1.r.=Xy.} | o._ ..kX1.y.<X[ @XkXGX3Xy.[ p.FXpXi.5XGXpXOX4.zX9X[ 1..Xu.=X+.| o.Y X.xXo.o.3X] +XKXGX4Xr.' p.FXsXi.",
"} q.jX1.r.aX5.] 1XPXkX} | +.O.| :XaX1.T | ` :XzX3X3.:.<XPXDXaXiXr.uXdX-.OXaXw.-.<.X.X.X.| +.O._ %XaXo.+.Y _ 1XsX9Xq.q.:XkXGXaXsX",
"q.1.aX..5.iX4.OXCXDXqX@XO.| +.| u.uXy. ._ i.%XkX@X` 1.xXDX5Xi.5.q.1.wX-.w.wXr.1.3.oXX.oXz.+.| | e.eXu.o._ y.;XDXOX' ..zXzX5Xi.-.",
"..} qX] 3.6X5.#XKX5Xy.r.o.O.O.o.e.qXX.%X4.4.p.dX@X] 2.jX3XXX%X@X] <.wXR r.4Xq.%XzXfX5.oX} q.r.} w.9Xt.9.t.y.r.kXXX....kX5X6.+X+X",
"1...3XOX1.OX1.%XeXr.3.1...u.o.X.o.XXe.zXdX+XOX0Xp.] r.jX{ @XJXdX<.-.6Xr.3.r...=XzXGXzX3.} r.q.w.a.a.0.x.0.,.a.<Xr.{ y.aXR OXCXCX",
"dXOX.XfX3.T 1.@X@X2.3.} T T X...oXq.X.5XzXCXi.R w.-.1.0X .yXiXHXfX#X1.2.{ { q.y.@XkXJXdXT T @XsX9.9.=.=.`.j.g.d.i.' ..qX..0XsXdX",
"KXsX4.kXjXr.XXe.1.jXq. .3.3.3.zXyX . ..X5XGXCX-.-.>.3.r.' } @XwXKXkX5. .X...} q.q.r.kXdX<.OXkXsX,.=.C B.'.'.`.MXSX;.{ { _ ` @XwX",
"pXpX4.r.lXkXr.r.` yXfXr.1.$XGXzX3X3.q.r.+XwXpX4.1XKXkX..o.@Xi.p.0XxXe.3.r. .' u.z.q.r.sXi.CXHXZX0.=.C C._.(.'.{.`.&.0.-.-.a.i.i.",
"<.sX2.] 3XfXr.OX] w.wXsX+XaXdX6X . .3.@XOX$XsX+XDXDX4XXXq.y.g.-.:.jX3.{ oXiX3...e.u.t.jXOXGXpX,.&.*.Z.^.Z.A.S.G.=.=.2X9X>.>.w.;.",
"-.qXr.3.@XaX4.DXDX<.i.CXOXKX>XE .X@Xw.p.5.4.dX1XFX4X%X@Xy.2.g.,.>.eXe.X.4.LXZX5.] _ o.eXr.rXd.j.`.'._.^.C.m M.M.B.=.v.2X<X:.w.;.",
"..3XT 5.;XdX2.wXDXdX&XwX4.fXX.e.kXGX0Xi.R 4.fX$XrX+Xr.1.@Xp.0.v.g.2X} o.5.pXZX7X6.' o.o.-.MXf.T.{._.A.C.m m m V B.*.&.b.<X<X| 8.",
"1.q.q.y.%XaX<.5.wXdXi.eX1.aXq.e.dX0XGXwXR T y.=X#X+XOX;XgXpXg.v.v.,.,.i.#.#.AXAXpX-.E -.d.MXT.BX].G.M.m C.C.A B C &.@.K b.1X| | ",
"q.u.q.1....Xe.r.i.eX5.4X1.qX....-.5.sXdX..o.q.u.2.w.OXuXdX2Xg.v.Y.Y.,.,.,.f.*XMX7XT #.,.vXT.[.|.L.V.m m B A N : = s W e K w.! } ",
"y.q.XXu...XXy.....3X-X>X:.3Xe.2.OXr.6XfX1.o.o.q.:.5..XzX6X2.j.j.`.R.f.f.Y.cXh.d.7XR #.f.bX!.IX].S.V n g g N f & = 6 t r H x.P P ",
"-Xy.1.o.o.o.e.q.y.y.y.y.u.y.1.y.i.OXOXuXq.{ q.y.q.oXE gXE w.j.=.E.NXmXcXY.h.d.a.7Xd.Y.bXBXIX|.I.V.m g % * y & 1 1 1 7 6 J 9.! ^ ",
"DXx.y.q.u.u.X.q.XXe.q.y.y.y.@Xr.r.2.3.3..X.. .#Xp.w. .gX<.7.0.=.H.[.mXmXg.,.@.7.*XvXbXnX|.|.}.A.V v h ; & q 1 O , 1 5 0 e H ( <X",
"sXeXq.XXo.u.X.e.1.3.q.o.q.q.r.%Xy.:.r.y...T @XDXjXp.5.fXOX2X`.J.K.Q.R.MX2X&.;.@.f.T.bX!.W.).L.A.m v : & & 1 O o 1 , , 2 W ~ z.8X",
"a.#Xw.o...e.1.' 1.r.r.2.@Xr.6XsX1.e.<.r.<.4.JXDX0Xw. .gXOXCX`.`.`.T.f.2Xb.@.&.R.~.bXQ.P.P.L.S.N.V B N y 1 3   + < < e 5 G x.x.x.",
"4.r.2...oXXX1..Xr.p.OX+Xp.;XDXdXXX@X%X#Xw.w.DX0Xr.' 3.4.r.SXv.F.H.R.@.&X&X&.s.Q.!.nXP.D.V N.A.A.A.C j & . . . 7 t , 2 2 K x.0.K ",
"r.r.] #Xy..Xr. .3XCXGX4X&XCXGXdX.XkXsXFX4Xi.sX@Xy._ ] 4.r.MXz Z H.`.@.@.h.s.J.D.K.).G.x h g m Z./.C * O   X o t a Q 0 J K 0.L ;.",
"3.@X%XDXdX@X3.r.kXDXHXCX+XHXCX3Xr.yXq.wXwX4.dXr...y..XT w.&XC Z H.`.$.$.cXnX~.D.K.I.V h % % % B F.S z -     o 1 s ) ( 2 I t.P ^ ",
"XXe.OXiXGXdXr.4.JX4X+XZX&XZX5X5.1.XX1.1.dXr.jX3.o.XXr.} :.,.=.Z P.{.R.$.bXBX|.W.)._.B % $ $ $ f B Z.*.s O , 1 1 9 %.9.L ! ! _ 2.",
"@X1.-.5.iXkXr.e.4Xi.$XgX&XgXOXr.] y.' 1.aX.XyX.XXX} q.q.y.&.F.F.W.[.Q.~.!.!.!. X(.Z.B h ; ; & $ f B l.*.w q 1 q t ) 9.| | o.yXeX",
"kX@XT 5.$XDXr.' @Xy.#XsXr.DX@X..1...Y 1.aX' .X' ......e.-Xv.Z Z.).[.BXnX!.W.W.].L.V v u u u : u : h A k.D &.q 2 G ) x.~ u.qX3XlX",
"xXjX1.i.i.iXy._ =Xq.p.sX;XaXy.XXe.q.{ ..fX' { _ ..u.X...>.&.Z V.P.[.!.Q.!.W.}.).Z.B M p - - i u u u n A Z.l.M y G G z.H ! q.` 9X",
"aXjX2.r.r.:.y.} =X_ y.jXr.y.=Xy...o.oXXXaXr.:.q.' e.e.] ,.$.H.L.I.].[.[.|.}.(.G.C j p 8 O @ ; ; i u : f D S z l y a W ^ [ ` :.w.",
"q.fX] ` y.1.y.o.O.' XXe.{ o.y.q.oX3.q.u.1.:XPXlXq.X.@X-.g.`.'.].W.E.H.H.K.G.B.k : = t + . X O # > ; ; ; f f k z @.&.( ( ~ / ;.p.",
"1.0X1...e.1.1.1.e.} ..{ .X_ p.-Xy.X.r.r.=XzXkX4X1.5.#.7.VXNX[.].E.J.C g x x k w = # 8 . . X . + # # = = q & w j l M K ~ [ { } t.",
"T y.e...o.} y.=X3.e...' { @XKXCX+X1.` 3.LXfX1.] -.2.#.d.VXNXIX|.H.z * % h f : = # + + X   3 7 7 8 O @ 1 d q q y l w @.K ~ _ q.q.",
"%Xe.Y q.XXe.%XaXT X.X.X.=XaXwXHXFXi.>.i.zX:XX.r.R +Xd.T.BXBX[.H.*.: > : : ; = q X . . . 4 7 a a a 9 1 q W a t t t K K ~ ^ _ u.z.",
"fX@X..q.' :XLXfX3..X..XXyX4.2.wXFXCX+X#XyXX.X..X2XMXvXbXNXnXH.c f > ; : - - @ 3 . . X 6 t 1 q Q ) ) r r ) 6 9 r Q 9.! ~ [ ~ +.eX",
"u.xXkX3.3.zXzX>X1.y.' q.q.w.q.@X5XCXr.u.uXT 5.7.AXcXnX!.~.E.S g ; - i - @ q @ + X . , 3 5 r a W ) ( W J ) 0 J H 9.[ J ` ` [ w.8.",
"q.eXjXT .XJX3XR X.q.@Xr.] ' 1.e.4.sX[ r.>X4.d.*XVXQ.!.!.D.B.V v u p p - + 8 + X . , 9 0 0 9 0 ! ! c.H W ) G W ~ 9.0 I J [ 9XeX8.",
"o...jX1.r.aX1.3..X3.r.X.T X.e. .%XfXq._ Y 1.f.cXNXU.U.).V.M.m v : d p @ + 8 . . 3 5 7 J 0 U ) W [ x.^ H J ~ ( ~ t.P I 8.9X9X-XeX",
"q.q.aX] 4.wXr.1.;XLXyX%XXX3.' 3.e.5XOX-.#.*XvXbX~.D.D.I.L.A.C.n j d d + + 3 . 5 7 5 J 0 Q ( ~ [ [ z.[ ^ L 8.1XI ~ J >.8X9X=XP ;.",
"] <.qX..w.<X3.%XzXfXoXyX} y.@X] 3.3X7.*XvX~.bXnXW.K.U.}.].G.V v - q d o . 3 5 5 0 W ) L ( ;.;.[ z.[ w.w.p.9X8X:.;.8.t.qXx.I #Xr.",
"X. .qXe.q.y.4.GXzX6XX.3...@XJXsXr.+Xd.cXnXnXnX~.U.U.U.W.I.B.B j - 3 + . 3 3 5 9 0 c.c.( [ >.t.a.t.t.;.r.eXlX<Xi.w.8.a.9XI r.aXfX",
"dX%X' w..._ .XzX>X .' X.' ' 9XJXDXd.s.bXnXnXU.K.n.N.N.N.B.C l M t @ o < < , 5 0 G 0.b.<X8.w.eXrXr.r.4.@XDX0X4.>.eXi.w.4X-.wX5XCX",
"JXfX' ..q.o.:XfXT X.X.Y ..@X2.7XZXVXcXnX!.|.K.n.n.M.M.m k f q q t q , , , 9 G W Q ( 8X<Xa.eXCXpX1.] -.i.rX6.4.2.DXkXi.>.-.R i.5X",
"0XlX....e.r.,XqXT 3. .T OXCXgXOXd.cX!.[.!.W.V.N.N.A.C.B w q 1 1 8 7   , 5 r H ! ( / ;.rXa.CXpX6.+X+X4.$XsX2.i.+XsXDXgX<.-.6.4.#X",
"e.yX..3.XXX.o....XiXE &XAXAXvX*Xf.cXQ.!.].).N.m.m A B p = q q 7 . t < 2 G G J ! I >.2.rX#XpXi.i.GXgXOX+XsX+X2.6.+XCXiX6.5.&XFXkX",
"z.qX' X..Xr.X.y.KXSX*XAXMXcXf.f.R.T.E.[.}.L.S.N.V B f q q 7 7 < < 5 5 e %.c.x.;.>.-.>.9X$XsX-.#XdXHXgX+X4.>.+X$X2.&XCX6.+XDXkX9X",
"XX>X} q.@XoX .1XFXAXs.mXbXbXcXT.Q.~.W.].I.V.N.N.C N - 4 O 7 3   1 e 2 9.0.x.8X<X2.>.p.2.i.eXOX@XgXLXCXOX<.i.DXpX7.+XpX<.OXJX4X_ ",
"o.q.@XkXzXr.3.w.SX`.=.J.H.[.[.[.!.~.~.!.I.N.M.n N d q & O 6 , 3 1 0 Q 9.~ ^ <X4X>.i.DXDXi.p.@X@X+XgXGXOX$XHXHXGXCX$XCXr.OXeX' 1.",
"q.w.2.wXGXfXOX1XMX@.Z c n.W. X|.W.W.[.!.I.N.n b ; 7 q 1   7 . 5 9 r U ( ( I a.eXi.dXDXiXr.OXy.r.5..XdX+XHXHXiX$XwX$XaXr.p.yX} e.",
"i.:.r.-.5XKXaXa.tXl c F V L.].[.[.|.|.[.L.c f : O < 3 5 o q 1 5 r G ( ( 8.;.p.0Xi.dXaXr.2.o.=X..1.;XgX+XGXgX5.i.@XOX@Xy.e.3X' T ",
"#Xp.@X-.<.qXlXt.0.w k g g B._.].]. X{.P.B.k : 4 o . X 7 3 9 t e Q ( ( 9.[ 2.p.wX&XsX2.2.y.=Xu.=X@X#XfX+XpXOX6.1.r.@X@Xy...3Xr.X.",
"aX>Xe..X .3.hX0.M * % % : k V L. X X].F.k * $ + 8 3 . 6 1 t W 9.c.[ [ q.w.2.&XwX1XsXi.@X=X=X@Xx.y.;XiX;XsXOX2.i.4.XX@Xy.1.i.@XDX",
"fXqX4.@XT } rX%.s : > > $ * x G.).{.'.A f & + 3 8 < 1 t t G %.z.t.-X[ 8.;.i.w.a.+XsXOXp.u.=Xy.p.y.XXy.;XkX@X2.OXr.@XXXy.@X%XGXGX",
"y.=Xi.-. .] 8X%.s u - ; $ $ x Z.(.(.F.k & O o 3 @   1 1 G %.0.0.;.:.8.y.i.p.i.2.i.-.+Xw.q.y.i.#X@X1.r.OXfXp.2.5.;Xp.XXi.OXJXkX4X",
"t.p.-.6.OX..9.0.M : u ; $ $ f A B.A k : & X + +   1 2 t J 0.w.L ;.8.8.t.1XFXCXi.+X2.6.p.y.r.+X+X4.2.1.2.y.p.r.;XfX#XOXr.r.kX3X] ",
"z.y.i.CXfX;X8.%.D b u i > > % v n g : $ + X + . < W Q 2 I x.J R >.w.w.t.FXKXrX#XKXCX&X+Xr.%XGXsX6.+Xi.OX@Xy.@X%XJXDX+X-.i.fX' 1.",
"8.-XrX5XHXfX>.%.s u u u ; - : f f : ; $ + X 8 . d %.G e / @XP [ :.i.y.=XDXdXi.#XCXFXpXi.4.y.CXHXsX6.OXr.r.] XXr.sXJXsXR i.jXY } ",
"=Xp.` 2.5XkXeX~ a p u u i i p b - > # X + X 8 3 W W G J ^ w.` 8.i.r.t.,XdXOXi.6.$XDXCX+Xi.<.$XDXCX-.2.#Xr..Xr.4.%XDXdX-.] 4X1.e.",
"@X} :.p...0XyX( ) M p p p p s q > # X X + X 7 5 W t W ~ H [ jXyXp.] 1.:XsX2.i.2.i.6.kXOXr.2.i.&XsX+X&XCXKXiXr.2.i.#XkX2.T r.xXlX",
"jX@X:.kX@Xy.0X;.tXc.&.s a 7 a 8 . + . X 4 < 5 0 ) 2 ( ( ( 8XqXjXkX@XY :XjX@XOX.Xi.@XdX@XXXy.i.+XdX+XGXHXpX$XwX#Xr.OXjXr...aX0XJX",
"zXaX1.JXyXu.eX} lXx.K ~ W a W 5 5 X o 3 < 6 0 0 2 ~ %.I t.:.| qXzXiX' :XaX.XOXOX.X1XkX@XXX..1.OXsX$XGXpX+X6.$X6..X;XjX{ y.@X] qX",
"uXfX' aXkXq.<Xq.tX^ / H ! J a 5 9 3 5 5 , 9 0 W J ` / I ;.:.@X3.0XaX .e.@XOX.Xy.XXXXaX@Xu.q.i.#XiX$XCXOX6.OXi.%Xi.@XjX' 1.OXOXw.",
"X.uX5.' 0Xw.;Xw.qXL [ P J J r a 7 6 0 0 0 L z.O.~ ` / -.#XkXaXw.<.aX1..X.XX.y.3.y.' XX..} o.@Xr.] .XCX6.5.&XKXaX3.r.} q.XXy.@Xi.",
"X.yXX.3.w.:.q.w.-X_ R [ _ H Q Q G t r U ! t.z.q.^ _ w.w.aXDX4X2.5.aX..} u.1.1.1.3.] 1.y..XXX$X$X6.r.6X4.$XDXdX4X1.q.r.q.=XXXy.p.",
"X..X .1.3.[ w.-Xw.:.` :.I ~ x.0.Q K e K x.x.^ H I r.9X1.zX1XR 4.R r.u.u.q.' XXXXy.y...r.o..XGXCX+X5.R 4.KXjX5.] ] OXfX1.@Xe.} y.",
"&Xp._ e.y.r.p.DXeX' +.[ [ 8Xz.b.x.( H ;.,X0._ :.:.lX0Xy.yX1.i.;X$Xp.' o.t.y.@XJXsXq.5.X.=XuXwXCXdX$X<.4.kX3X3.3.r.DXsXr.1.e..X:X",
"KXlX' 1.[ :XJXDX3Xy.| O.qX^ [ x.8X<X;.9.<XI @.w.aXjXqX..T } r.kXDXdX_ ..{ =XPXxXqXr.1.=XuX3.5.iXGXgX+X%XfX' } r.kXJX9X1.] ..u.lX"
};
